<?xml version="1.0" standalone="no"?>
<!DOCTYPE svg PUBLIC "-//W3C//DTD SVG 1.1//EN" "http://www.w3.org/Graphics/SVG/1.1/DTD/svg11.dtd" >
<svg xmlns="http://www.w3.org/2000/svg" xmlns:xlink="http://www.w3.org/1999/xlink" version="1.1">
<metadata>
Created by FontForge 20200314 at Sat Mar 23 02:19:23 2002
 By Unknown
Copyright 1993, 1994, 2002 Adobe Systems Incorporated. All Rights Reserved. Sanvito is a trademark of Adobe Systems Incorporated.
</metadata>
<defs>
<font id="SanvitoPro-Regular" horiz-adv-x="309" >
  <font-face 
    font-family="Sanvito Pro"
    font-weight="400"
    font-style="italic"
    font-stretch="normal"
    units-per-em="1000"
    panose-1="3 6 5 2 4 6 2 3 2 4"
    ascent="710"
    descent="-290"
    x-height="383"
    cap-height="528"
    bbox="-190.13 -289 898 804"
    underline-thickness="50"
    underline-position="-100"
    slope="-5"
    stemh="41"
    stemv="69"
    unicode-range="U+0020-FB02"
  />
<missing-glyph horiz-adv-x="500" 
d="M0 0v700h500v-700h-500zM250 395l170 255h-340zM280 350l170 -255v510zM80 50h340l-170 255zM50 605v-510l170 255z" />
    <glyph glyph-name="fi" unicode="fi" horiz-adv-x="474" 
d="M333 651h1c31 0 62 -24 62 -44c0 -13 -23 -31 -36 -39c-8 -5 -11 -4 -14 -1c-17 20 -40 32 -66 32c-27 0 -55 -11 -80 -52c-26 -42 -34 -109 -39 -176c-1 -9 0 -14 11 -14c27 -2 66 -5 118 -4c44 0 85 12 108 24c12 5 14 2 8 -12c-8 -17 -12 -41 -14 -62
c-4 -31 -11 -128 -11 -204c0 -49 18 -62 36 -62c15 0 36 5 59 17c12 6 7 -15 -8 -24c-44 -30 -92 -45 -113 -45c-38 0 -46 49 -46 91c0 57 7 161 13 226c2 11 -1 15 -10 13c-17 -1 -43 -3 -71 -3c-38 0 -54 0 -72 1c-10 0 -13 -2 -14 -12c-3 -19 -5 -57 -7 -110
c-3 -74 0 -106 2 -126c3 -21 7 -34 13 -39c5 -4 4 -5 -2 -12c-10 -10 -55 -30 -66 -30c-20 0 -23 25 -23 56c0 57 6 184 11 258c1 10 0 14 -6 14c-15 1 -31 0 -40 -3c-8 -4 -10 -1 -4 10c8 12 26 27 45 35c8 3 10 5 11 14c3 26 9 72 28 114c27 58 72 106 131 141
c35 21 65 28 85 28z" />
    <glyph glyph-name="fl" unicode="fl" horiz-adv-x="478" 
d="M314 646h1c12 0 25 -3 34 -9c7 -3 12 -3 18 1c16 9 35 17 43 19c4 1 6 -3 5 -16c-1 -18 -4 -52 -8 -112c-7 -92 -21 -271 -22 -362c-2 -86 4 -126 45 -126c17 0 37 9 49 14c9 5 11 -8 -4 -21c-24 -23 -72 -46 -104 -46c-19 0 -33 9 -45 24c-14 17 -16 50 -13 117
c3 55 7 139 10 185c0 7 -3 8 -9 7c-11 -3 -26 -6 -50 -8c-30 -3 -67 -2 -98 -1c-8 0 -12 -2 -13 -12c-2 -21 -5 -76 -6 -158c-1 -63 0 -98 15 -111c5 -4 4 -9 -5 -16c-17 -13 -56 -30 -65 -30c-14 0 -20 22 -20 57c1 38 2 77 5 132c3 53 6 105 7 126c0 10 -2 13 -9 13
c-17 0 -34 0 -42 -2c-6 -2 -9 -1 -5 8c7 13 26 28 50 36c7 2 9 4 10 10c1 24 8 63 22 98c23 69 76 128 132 159c30 18 54 24 72 24zM288 603h-1c-28 0 -58 -16 -76 -41c-32 -43 -48 -132 -51 -192c0 -9 3 -12 10 -12c15 -2 60 -6 108 -6c20 0 30 2 40 4c6 2 8 6 9 16
c4 50 10 135 10 175c0 24 -3 37 -14 45c-8 7 -18 11 -35 11z" />
    <glyph glyph-name=".notdef" horiz-adv-x="500" 
d="M0 0v700h500v-700h-500zM250 395l170 255h-340zM280 350l170 -255v510zM80 50h340l-170 255zM50 605v-510l170 255z" />
    <glyph glyph-name="space" unicode=" " horiz-adv-x="182" 
 />
    <glyph glyph-name="exclam" unicode="!" horiz-adv-x="213" 
d="M94 149h-1c-8 0 -12 18 -10 49c6 70 10 159 11 219c1 28 -4 44 -8 50c-4 5 -4 6 1 11c9 7 66 33 76 33c19 0 18 -37 14 -61c-5 -37 -27 -171 -31 -205c-3 -23 -1 -43 8 -50c4 -3 5 -5 -1 -12c-9 -11 -48 -34 -59 -34zM97 -14h-1c-14 0 -39 39 -39 55c0 18 35 44 53 54
c13 7 17 5 23 -6c4 -11 13 -26 26 -41c11 -11 3 -23 -20 -40c-21 -17 -37 -22 -42 -22z" />
    <glyph glyph-name="quotedbl" unicode="&#x22;" horiz-adv-x="264" 
d="M98 616h1c18 0 18 -33 16 -52c-3 -24 -14 -72 -30 -119c-7 -18 -26 -35 -37 -42c-9 -7 -13 -5 -12 10c4 27 8 85 8 115c0 21 -1 37 -6 46c-6 8 0 15 25 30c17 10 27 12 35 12zM225 616h1c17 0 17 -33 15 -52c-3 -24 -14 -72 -30 -119c-7 -18 -26 -35 -37 -42
c-8 -7 -13 -5 -12 10c3 27 8 85 8 115c0 21 -1 37 -6 46c-6 8 -1 14 25 30c17 10 29 12 36 12z" />
    <glyph glyph-name="numbersign" unicode="#" horiz-adv-x="419" 
d="M61 15h-1c-5 0 -4 6 -1 18c4 18 21 75 38 130c3 8 0 9 -5 9c-23 1 -51 2 -65 -1c-9 -2 -11 2 -3 12c23 30 29 35 82 36c9 0 11 1 13 7c9 29 18 57 29 93c2 8 1 9 -6 10c-26 1 -59 4 -79 -2c-9 -4 -12 2 -2 12c31 35 45 36 95 36c7 0 8 2 10 9c10 35 18 60 21 78
c0 5 16 18 39 30c15 9 13 0 9 -15c-5 -15 -14 -43 -30 -95c-3 -8 0 -9 5 -9c27 -2 49 -3 65 -3c7 0 9 2 11 9c20 63 25 91 39 102c9 7 26 16 34 17c4 0 6 -2 3 -11c-8 -16 -20 -57 -36 -108c-3 -8 -2 -10 5 -10c47 0 65 0 75 3c8 4 7 -3 -1 -12c-17 -21 -36 -33 -88 -34
c-6 0 -9 -2 -11 -9c-10 -29 -18 -65 -26 -94c-2 -7 -1 -10 6 -10c36 -1 66 -1 83 3c10 3 10 -1 3 -11c-22 -30 -47 -37 -97 -36c-8 0 -10 -2 -11 -9c-10 -45 -22 -81 -20 -95c1 -7 -12 -20 -22 -28c-11 -11 -23 -16 -26 -16c-4 0 -5 4 -2 16c5 20 25 90 33 123c1 7 0 9 -8 9
l-68 2c-9 0 -11 0 -14 -8c-23 -65 -27 -91 -27 -100c1 -10 -3 -17 -19 -31c-8 -8 -25 -17 -30 -17zM262 325h-1c-11 0 -42 1 -65 3c-7 0 -8 -2 -10 -9c-15 -45 -22 -69 -29 -92c-3 -8 -1 -9 5 -9c16 -1 48 -3 69 -3c7 0 9 1 11 8c7 26 18 64 26 93c2 7 2 9 -6 9z" />
    <glyph glyph-name="dollar" unicode="$" horiz-adv-x="419" 
d="M301 490h1c29 0 70 -11 71 -39c1 -13 -19 -32 -29 -38c-9 -6 -12 -6 -14 1c-7 20 -34 33 -61 33c-8 0 -9 -2 -10 -10c-5 -32 -11 -85 -20 -146c-2 -10 -1 -12 6 -15c22 -6 48 -12 67 -18c45 -14 66 -37 67 -76c1 -89 -99 -151 -172 -169c-8 -2 -10 -4 -11 -12
c-6 -47 -12 -78 -11 -103c0 -11 -2 -12 -7 -12c-10 0 -31 22 -27 50c2 17 3 30 8 60c1 7 0 9 -5 9h-21c-53 0 -106 20 -105 54c0 13 18 32 30 40c11 7 13 6 16 -1c10 -30 45 -54 83 -55c8 -1 10 1 11 9c8 55 16 103 23 154c1 8 0 11 -9 13c-67 18 -114 39 -115 97
c0 35 16 66 45 95c26 27 62 51 106 65c9 3 11 6 12 12c3 22 6 52 4 62c-1 6 -1 9 6 16c11 15 27 25 32 25c9 0 0 -55 -5 -94c0 -7 1 -10 6 -9c9 1 18 2 28 2zM130 353v-1c0 -35 29 -52 65 -62c7 -3 9 -1 10 7c10 63 15 106 19 139c1 9 -2 9 -10 8c-46 -9 -85 -49 -84 -91z
M311 138c0 45 -39 57 -75 68c-8 2 -10 0 -11 -8c-6 -39 -12 -78 -20 -140c-1 -11 -1 -13 6 -12c45 8 101 41 100 92z" />
    <glyph glyph-name="percent" unicode="%" horiz-adv-x="644" 
d="M236 506h1c21 0 32 -11 39 -19c5 -6 11 -10 18 -14c14 -6 34 -10 57 -10c67 0 119 16 138 38c6 7 12 14 12 18c2 9 2 11 12 18c11 8 36 17 44 17c9 0 4 -12 -3 -27c-9 -19 -39 -60 -77 -112c-29 -38 -121 -152 -169 -208c-70 -83 -137 -164 -152 -183
c-10 -14 -21 -31 -18 -40c2 -8 -1 -12 -9 -17c-9 -6 -37 -14 -44 -14s-10 4 -11 10c0 7 7 18 16 31c11 17 55 74 120 147c78 89 202 240 247 306c4 7 -1 10 -9 6c-42 -19 -111 -28 -144 -23c-10 1 -13 -1 -12 -8v-17c-1 -89 -59 -146 -93 -170c-26 -19 -58 -30 -79 -30
c-54 0 -79 47 -79 98c0 78 42 138 98 171c15 8 13 -9 6 -16c-32 -32 -45 -69 -45 -121c0 -62 30 -89 58 -89c19 0 42 14 56 38c11 19 22 62 22 96c0 29 -4 85 -42 85c-7 0 -13 -1 -18 -3c-6 -1 -7 7 1 14c13 13 37 28 59 28zM538 293h1c51 0 64 -59 64 -98
c0 -101 -65 -160 -102 -184c-24 -15 -48 -24 -69 -24c-42 0 -84 22 -84 99c0 62 29 110 54 131c17 16 31 24 39 28c13 6 16 -6 6 -16c-22 -20 -38 -62 -38 -112c0 -66 33 -89 58 -89c53 0 77 78 77 135c0 56 -19 87 -43 89c-8 1 -19 0 -24 -2c-7 -3 -11 4 -2 13
c13 13 37 30 63 30z" />
    <glyph glyph-name="ampersand" unicode="&#x26;" horiz-adv-x="704" 
d="M196 -14h-1c-97 0 -149 62 -149 130c0 77 70 114 121 153c7 5 9 8 5 15c-7 16 -12 41 -12 65c0 71 52 131 113 161c20 10 36 16 54 16c38 0 72 -29 72 -78c0 -70 -86 -118 -138 -156c-6 -4 -7 -8 -3 -14c37 -66 76 -110 142 -166c7 -6 11 -6 18 0c48 41 67 102 70 151
c1 12 -1 20 -3 26c-1 7 -6 11 -22 11c-53 0 -89 -24 -113 -46c-7 -7 -12 -7 -11 -1c1 13 15 29 36 44c29 22 74 45 139 45c35 0 62 -4 94 -8c29 -3 56 -5 72 -3c8 1 6 -5 -4 -13c-21 -18 -54 -25 -82 -25c-14 0 -32 1 -45 2c-8 1 -8 -1 -8 -9c-1 -59 -39 -139 -97 -190
c-8 -6 -7 -10 -2 -14c33 -26 76 -42 110 -42c29 0 62 11 88 35c6 5 11 8 14 8c4 0 4 -13 -5 -25c-38 -49 -98 -73 -144 -73c-47 0 -95 25 -126 51c-8 5 -11 6 -19 2c-47 -27 -106 -52 -164 -52zM293 485h-1c-47 0 -73 -58 -73 -102c0 -22 6 -46 15 -63c4 -7 8 -8 16 -3
c33 23 87 66 87 115c0 33 -19 53 -44 53zM253 35h1c35 0 65 12 82 22c6 4 5 7 -2 14c-54 48 -102 108 -140 169c-5 8 -8 9 -15 3c-31 -25 -58 -49 -58 -94c0 -68 61 -114 132 -114z" />
    <glyph glyph-name="quoteright" unicode="&#x2019;" horiz-adv-x="183" 
d="M118 615h1c20 0 39 -26 39 -61c0 -68 -59 -126 -115 -150c-20 -8 -24 5 -12 14c38 28 61 60 61 98c0 29 -12 44 -25 51c-7 5 -4 14 18 32c14 10 26 16 33 16z" />
    <glyph glyph-name="parenleft" unicode="(" horiz-adv-x="331" 
d="M116 197v-1c0 -72 8 -129 36 -182c29 -53 65 -79 107 -93c10 -4 8 -9 -2 -14c-13 -8 -32 -15 -45 -15c-9 0 -25 3 -45 14c-19 11 -53 39 -77 89c-29 58 -37 122 -37 182c0 175 62 308 162 394c30 28 69 44 86 44c8 0 13 -3 13 -7c0 -3 -5 -8 -17 -13
c-45 -20 -87 -65 -122 -134c-44 -88 -59 -178 -59 -264z" />
    <glyph glyph-name="parenright" unicode=")" horiz-adv-x="331" 
d="M274 314v-1c0 -148 -47 -257 -109 -322c-48 -64 -103 -89 -130 -97c-11 -3 -21 -1 -18 5c1 4 7 12 16 17c50 26 87 64 122 131c41 77 56 172 56 251c0 88 -13 157 -56 215c-24 35 -57 59 -84 68c-10 3 -8 8 -1 14c14 9 30 18 44 18c44 0 91 -53 114 -91
c34 -58 46 -131 46 -208z" />
    <glyph glyph-name="asterisk" unicode="*" horiz-adv-x="340" 
d="M214 536h1c9 0 23 -16 23 -26c0 -4 -4 -8 -7 -14c-5 -7 -15 -31 -27 -77c-3 -9 -1 -11 7 -8s70 26 90 40c7 5 9 4 13 1c11 -7 16 -20 7 -28c-15 -12 -72 -33 -97 -43c-7 -3 -8 -6 -2 -9c9 -8 13 -10 30 -21c19 -11 47 -29 59 -37c9 -7 11 -14 6 -20s-15 -13 -21 -16
c-6 -2 -11 -2 -14 1c-9 12 -78 56 -90 63c-6 3 -8 0 -11 -9c-10 -34 -18 -65 -19 -81c0 -13 -17 -21 -35 -28c-13 -5 -15 0 -12 13c4 15 23 79 31 104c3 10 1 12 -9 9c-25 -8 -88 -32 -110 -44c-8 -4 -11 -1 -7 10c15 34 56 47 103 64c8 2 8 5 1 11c-14 11 -46 33 -59 48
c-10 10 -11 21 -6 29c5 9 15 17 22 18c5 1 6 -1 7 -6c2 -12 49 -48 67 -63c7 -4 10 -4 12 2c13 51 23 85 31 101c6 12 11 16 16 16z" />
    <glyph glyph-name="plus" unicode="+" horiz-adv-x="512" 
d="M279 415h1c7 0 9 -21 9 -48c-1 -43 -6 -115 -6 -129c0 -8 2 -10 12 -11c37 -1 68 -2 101 -2c31 0 56 2 67 4c9 2 10 -3 4 -12c-20 -27 -63 -38 -98 -38c-29 0 -66 1 -80 1c-8 0 -9 -3 -10 -13l-8 -122c-2 -36 -37 -58 -48 -58c-6 0 -6 6 -4 17c3 22 9 147 9 166
c0 8 -2 12 -11 12c-21 2 -139 9 -164 2c-12 -3 -11 4 -4 13c20 25 56 36 88 36c17 0 74 -3 86 -3c7 0 9 2 10 13c6 83 2 111 -1 123c-3 9 3 17 13 26c17 15 29 23 34 23z" />
    <glyph glyph-name="comma" unicode="," horiz-adv-x="172" 
d="M103 124h1c26 0 39 -38 39 -67c0 -83 -78 -147 -141 -174c-9 -3 -16 -5 -12 5c4 9 10 22 19 28c39 28 61 62 61 109c0 22 -9 37 -19 43c-4 3 -6 6 -6 9c0 6 7 17 23 30c17 13 29 17 35 17z" />
    <glyph glyph-name="hyphen" unicode="-" horiz-adv-x="297" 
d="M259 244c-12 -26 -38 -46 -69 -55c-42 -12 -123 -30 -143 -32c-9 -1 -14 -1 -7 12c12 22 31 49 39 50c37 6 139 24 179 38c7 2 5 -6 1 -13z" />
    <glyph glyph-name="period" unicode="." horiz-adv-x="172" 
d="M107 108h1c3 0 8 -8 12 -17c5 -11 17 -32 23 -41c6 -8 2 -14 -5 -21c-10 -11 -47 -41 -60 -41c-14 0 -34 37 -39 49c-5 13 -3 22 16 39c23 22 45 32 52 32z" />
    <glyph glyph-name="slash" unicode="/" horiz-adv-x="437" 
d="M421 544c-7 -22 -25 -62 -55 -118c-73 -136 -211 -379 -284 -474c-14 -16 -53 -39 -65 -41c-11 -2 -10 5 0 19c84 126 263 410 320 549c10 23 20 42 26 52c9 9 34 20 47 26c15 7 17 4 11 -13z" />
    <glyph glyph-name="zero" unicode="0" horiz-adv-x="419" 
d="M273 506h1c79 0 115 -92 115 -177c0 -95 -18 -165 -40 -210c-26 -52 -70 -84 -99 -102c-25 -15 -54 -26 -83 -26c-84 0 -136 66 -136 182c0 70 12 133 36 182c23 47 57 76 72 85s24 7 24 3s-7 -13 -14 -25c-35 -48 -46 -114 -46 -214c0 -103 42 -168 104 -168
c25 0 50 14 68 42c23 35 40 114 40 216c0 64 -18 165 -87 165c-21 0 -32 -9 -40 -10c-3 0 -6 -1 -6 3c0 7 14 24 32 35c18 12 40 19 59 19z" />
    <glyph glyph-name="one" unicode="1" horiz-adv-x="419" 
d="M208 -12h-1c-15 0 -21 18 -21 58c-1 46 7 159 14 254c4 56 6 104 2 119c-2 9 -4 12 -10 10c-23 -11 -57 -19 -78 -23c-15 -2 -40 3 -41 10c-1 3 5 7 19 11c24 6 121 42 161 69c14 10 28 18 33 18c3 0 5 -1 5 -4c-1 -4 -2 -9 -6 -15c-2 -4 -3 -16 -4 -28
c-2 -55 -11 -150 -16 -237c-5 -77 -7 -129 -6 -157c0 -29 11 -40 20 -44c3 -1 6 -3 5 -6c-1 -4 -5 -9 -17 -16c-16 -9 -46 -19 -59 -19z" />
    <glyph glyph-name="two" unicode="2" horiz-adv-x="419" 
d="M235 506h1c80 0 125 -58 125 -118c0 -66 -35 -114 -105 -183c-35 -36 -87 -84 -112 -109c-8 -8 -8 -14 -1 -15c17 -3 36 -8 59 -14c36 -11 66 -19 101 -19c42 0 70 21 92 46c7 8 17 11 20 11c6 0 2 -15 -8 -28c-42 -53 -99 -88 -146 -88s-113 25 -142 33
c-15 4 -26 6 -35 6c-12 0 -30 -8 -37 -14c-8 -6 -30 -19 -35 -19c-6 0 -3 12 7 24c14 17 68 68 101 100c67 65 163 151 163 245c0 48 -35 83 -86 83c-49 0 -96 -40 -121 -68c-10 -12 -18 -18 -22 -18c-5 0 -3 15 2 26c4 9 15 25 34 46c25 27 83 73 145 73z" />
    <glyph glyph-name="three" unicode="3" horiz-adv-x="419" 
d="M251 506h1c49 0 95 -35 95 -86s-50 -90 -89 -122c-9 -7 -15 -13 -14 -18c0 -5 6 -10 21 -15c52 -20 108 -51 108 -117c0 -67 -60 -115 -110 -145c-58 -35 -120 -49 -160 -49c-34 0 -86 14 -87 48c0 13 34 42 47 42c4 0 5 -2 7 -7c10 -27 52 -40 84 -40
c93 0 142 63 142 122c0 38 -23 61 -52 80c-22 15 -54 21 -68 21c-19 0 -39 -4 -52 -7c-6 -1 -12 2 -12 6c0 5 12 19 23 25c60 36 133 78 133 147c0 35 -27 70 -70 70c-44 0 -74 -30 -75 -47c0 -7 -11 -16 -23 -24c-11 -7 -36 -17 -42 -17c-9 0 -5 16 12 35
c34 42 115 98 181 98z" />
    <glyph glyph-name="four" unicode="4" horiz-adv-x="419" 
d="M320 348h1c13 0 12 -31 11 -52c-1 -24 -4 -67 -9 -117c-1 -8 1 -11 6 -12c6 -1 13 -1 25 -1c18 0 48 4 65 16c4 3 7 2 7 -2c-1 -4 -3 -12 -10 -20c-21 -22 -65 -33 -91 -35c-7 0 -10 -3 -12 -11c-1 -14 -6 -56 -8 -87c-1 -16 4 -34 12 -41c5 -3 7 -5 -1 -11
c-10 -9 -50 -29 -64 -29c-13 0 -18 15 -16 50c3 41 8 83 10 115c1 11 -1 12 -10 14c-35 3 -109 11 -154 11c-29 0 -49 -2 -60 -11c-5 -4 -9 -7 -13 -7c-3 0 -4 3 -4 9c0 8 12 28 21 40c6 10 40 50 86 109c61 77 93 125 116 169c12 21 21 46 21 57c0 5 10 15 23 24
c11 9 27 24 33 24c5 0 6 -4 6 -11c0 -28 -32 -87 -70 -142c-39 -56 -138 -183 -152 -201c-6 -9 -6 -15 2 -15h33c32 -1 93 -8 118 -9c8 0 11 2 13 10c3 17 6 54 7 75c1 20 -3 35 -8 44c-3 4 -2 6 2 9c10 10 56 38 64 38z" />
    <glyph glyph-name="five" unicode="5" horiz-adv-x="419" 
d="M369 154v-1c0 -81 -73 -137 -135 -169c-41 -21 -79 -30 -121 -30c-29 0 -57 9 -69 19c-9 8 -12 16 -12 25c0 10 29 45 39 45c3 0 4 -1 5 -6c10 -23 44 -39 83 -39c36 0 76 11 106 39c25 22 35 50 35 75c0 41 -24 63 -81 81c-33 10 -79 18 -99 24c-32 10 -49 23 -44 67
c5 40 21 114 29 157c4 20 8 36 13 47c4 8 9 15 13 15c3 0 5 -4 6 -9c5 -17 55 -23 113 -23c69 0 100 20 115 42c6 7 11 13 14 13c6 0 6 -14 1 -28c-8 -25 -30 -47 -55 -63c-22 -15 -63 -26 -106 -26c-26 0 -57 1 -70 3c-8 1 -12 -4 -16 -13c-5 -16 -14 -56 -14 -74
c0 -29 21 -40 65 -52c25 -7 70 -17 103 -26c62 -17 82 -51 82 -93z" />
    <glyph glyph-name="six" unicode="6" horiz-adv-x="419" 
d="M344 540h1c29 0 52 -8 52 -25c0 -8 -27 -29 -35 -33c-3 -2 -5 -2 -8 1c-7 8 -24 16 -48 16c-31 0 -63 -14 -93 -39c-49 -40 -108 -124 -108 -268c0 -109 56 -159 114 -159c68 0 107 53 107 119c0 56 -37 98 -85 98c-28 0 -51 -13 -65 -24c-8 -6 -22 -12 -27 -12
c-4 0 -6 0 -5 5c1 8 16 26 51 49c36 23 71 37 93 37c75 0 108 -58 108 -118c0 -77 -67 -140 -110 -166c-31 -19 -71 -33 -108 -33c-92 0 -149 61 -149 178c0 89 23 152 51 201c35 61 96 115 166 148c40 18 71 25 98 25z" />
    <glyph glyph-name="seven" unicode="7" horiz-adv-x="419" 
d="M348 473h1c29 0 48 16 59 34c7 12 15 20 19 20c5 0 7 -8 6 -15c-1 -12 -15 -47 -27 -67c-24 -42 -170 -305 -205 -382c-13 -28 -20 -49 -19 -59c0 -9 3 -17 8 -23c3 -4 3 -6 -4 -11c-9 -7 -45 -24 -57 -24c-9 0 -16 7 -16 24c1 22 22 66 51 118c46 80 134 233 173 311
c6 11 3 15 -5 15c-15 0 -57 3 -91 8c-25 4 -55 8 -86 8c-46 0 -72 -25 -102 -72c-2 -5 -7 -12 -11 -12c-7 0 -8 17 -2 34c20 52 65 120 119 120c30 0 64 -7 97 -14c35 -7 68 -13 92 -13z" />
    <glyph glyph-name="eight" unicode="8" horiz-adv-x="419" 
d="M302 507h1c52 0 77 -44 77 -78c0 -39 -23 -68 -45 -89c-20 -19 -57 -49 -74 -62c-8 -6 -6 -10 1 -14c14 -7 40 -19 64 -35c49 -30 61 -58 61 -85c0 -69 -64 -104 -102 -125c-34 -18 -84 -30 -112 -30c-65 0 -140 32 -140 105c0 64 65 102 111 140c7 6 8 11 2 15
c-21 15 -63 41 -63 87c0 47 27 83 70 113c21 15 35 19 40 19c4 0 11 -1 11 -4c0 -4 -10 -12 -20 -21c-19 -15 -39 -43 -38 -75c0 -34 38 -62 68 -78c8 -5 14 -5 20 -1c36 28 82 73 82 120c0 35 -27 57 -57 57c-11 0 -25 -2 -32 -3c-6 -1 -9 -1 -8 2c0 6 12 21 35 31
c14 6 33 11 48 11zM213 30h1c51 0 103 31 103 82c0 17 -7 41 -37 62c-30 22 -67 38 -85 47c-11 5 -16 4 -24 -2c-28 -22 -68 -60 -68 -98c0 -60 60 -91 110 -91z" />
    <glyph glyph-name="nine" unicode="9" horiz-adv-x="419" 
d="M244 506h1c63 0 144 -51 144 -195c0 -119 -42 -201 -80 -247c-50 -59 -143 -116 -224 -116c-28 0 -64 23 -71 61c-1 7 2 15 9 9c18 -18 57 -28 98 -28c51 0 98 24 135 76c34 49 55 126 55 220c0 112 -48 180 -111 180c-21 0 -42 -10 -57 -23c-21 -18 -38 -51 -38 -93
c0 -62 50 -96 87 -96c17 0 37 7 50 16c6 5 9 6 11 5c3 -2 -2 -17 -8 -25c-21 -27 -63 -50 -102 -50c-57 0 -107 40 -107 116c0 56 33 117 103 159c24 14 63 31 105 31z" />
    <glyph glyph-name="colon" unicode=":" horiz-adv-x="172" 
d="M115 350h1c3 0 8 -8 12 -16c5 -11 17 -32 23 -41c7 -10 4 -15 -4 -23c-10 -10 -50 -40 -61 -40c-13 0 -35 39 -39 51c-4 11 -3 21 20 42s43 27 48 27zM105 108h1c3 0 8 -8 13 -17c5 -11 16 -31 23 -40c6 -8 1 -15 -5 -22c-11 -12 -49 -41 -60 -41s-35 35 -40 49
c-5 13 -3 23 19 42c23 21 43 29 49 29z" />
    <glyph glyph-name="semicolon" unicode=";" horiz-adv-x="168" 
d="M115 350h1c4 0 8 -7 12 -16c5 -11 18 -32 24 -41c6 -8 3 -16 -4 -22c-10 -10 -52 -41 -61 -41c-14 0 -35 38 -40 50c-3 10 -3 21 16 38c23 21 46 32 52 32zM100 125h1c25 0 39 -38 39 -68c0 -83 -80 -146 -141 -173c-9 -4 -16 -5 -13 5c4 9 12 22 21 28
c37 27 60 61 60 108c0 22 -10 38 -19 44c-5 3 -7 5 -7 9c0 6 8 17 24 29c17 13 27 18 35 18z" />
    <glyph glyph-name="less" unicode="&#x3c;" horiz-adv-x="448" 
d="M331 -3h-1c-8 0 -17 2 -28 6c-71 29 -184 94 -237 145c-9 10 -8 18 -2 27c37 53 244 171 315 198c8 3 10 -2 8 -8c-3 -14 -23 -33 -37 -40c-106 -48 -179 -103 -211 -132c-9 -9 -10 -17 2 -27c64 -57 151 -105 233 -128c15 -4 15 -7 3 -17c-11 -8 -30 -24 -45 -24z" />
    <glyph glyph-name="equal" unicode="=" horiz-adv-x="514" 
d="M203 292h1c51 0 187 -3 248 -7c12 -1 12 -6 4 -16c-22 -27 -56 -29 -119 -28c-59 1 -109 2 -154 2c-44 0 -84 -1 -106 -7c-8 -3 -9 3 1 15c29 31 60 41 125 41zM164 136h1c37 0 71 -2 126 -3c63 -3 132 -6 163 -1c10 2 12 -2 2 -13c-29 -32 -69 -38 -150 -36l-121 3
c-46 1 -108 2 -127 -3c-7 -2 -11 2 -1 14c28 32 62 39 107 39z" />
    <glyph glyph-name="greater" unicode="&#x3e;" horiz-adv-x="449" 
d="M70 -6h-1c-7 0 -10 2 -2 14c10 14 24 28 40 35c101 49 146 76 189 107c20 15 20 24 7 36c-40 33 -121 88 -210 138c-11 6 -14 11 -4 20c16 17 34 30 55 17c61 -36 194 -119 237 -164c10 -10 11 -20 1 -30c-40 -40 -187 -122 -260 -155c-26 -12 -44 -18 -52 -18z" />
    <glyph glyph-name="question" unicode="?" horiz-adv-x="314" 
d="M203 513h1c41 0 83 -33 83 -78c0 -50 -46 -89 -83 -130c-30 -33 -44 -62 -44 -80c0 -14 8 -28 22 -30c7 -1 13 -2 20 -1c10 2 4 -12 -11 -22c-14 -11 -35 -18 -54 -18c-24 0 -44 18 -44 47c0 15 8 33 20 52c15 21 37 51 62 84c23 30 29 51 29 73c0 23 -24 46 -51 46
c-37 0 -75 -23 -107 -51c-12 -10 -9 14 -1 24c14 19 43 44 74 62c26 14 56 22 84 22zM129 -12h-1c-18 0 -42 32 -42 53c0 23 48 57 72 57c4 0 7 -6 10 -16c4 -14 15 -34 22 -42c5 -7 3 -12 -9 -24c-11 -10 -43 -28 -52 -28z" />
    <glyph glyph-name="at" unicode="@" horiz-adv-x="673" 
d="M425 480h1c124 0 205 -76 205 -200c0 -109 -66 -188 -108 -216c-42 -29 -71 -37 -99 -37c-53 0 -43 83 -37 123c1 9 -3 10 -9 0c-25 -37 -73 -80 -106 -103c-16 -10 -33 -18 -46 -18c-20 0 -33 30 -33 61c0 99 64 182 140 223c29 16 52 21 70 21c11 0 15 -3 9 -9
c-9 -10 -24 -26 -33 -31c-4 -2 -10 -2 -18 -3c-10 0 -26 -5 -36 -11c-43 -30 -65 -91 -65 -153c0 -22 8 -35 16 -35c35 0 92 77 117 128c7 15 14 46 21 63c13 34 35 51 69 59c11 3 11 -1 6 -12c-28 -47 -48 -141 -49 -205c-1 -34 8 -52 26 -52c55 0 121 71 121 186
c0 117 -82 182 -191 182c-84 0 -148 -34 -196 -77c-57 -50 -99 -131 -99 -229c0 -158 115 -210 199 -210c74 0 125 29 152 49c16 11 15 -9 -3 -25c-47 -44 -110 -70 -182 -70c-122 0 -223 79 -223 234c0 165 117 282 239 336c57 25 108 31 142 31z" />
    <glyph glyph-name="A" unicode="A" horiz-adv-x="587" 
d="M477 -19h-1c-34 0 -58 10 -87 63c-18 36 -35 80 -53 136c-4 12 -6 13 -24 13c-62 0 -119 -4 -143 -13c-13 -4 -22 -12 -29 -21c-26 -40 -48 -96 -48 -134c0 -6 -4 -11 -20 -21c-19 -11 -37 -18 -43 -18c-7 0 -11 5 -11 17c0 17 14 51 33 84c22 39 54 92 92 152
c41 64 101 166 117 211c4 13 11 25 20 36c9 10 22 22 31 34c7 8 16 12 21 12c4 0 4 -5 3 -14c-1 -10 -2 -26 -1 -41c2 -62 36 -172 59 -233c2 -8 5 -9 12 -9c24 0 67 -4 95 -9c18 -4 17 -8 8 -15c-18 -13 -62 -17 -87 -18c-10 0 -10 -1 -7 -12c13 -38 24 -61 40 -90
c25 -45 52 -66 82 -66c16 0 36 3 50 9c8 3 12 3 12 -1s-7 -15 -15 -20c-18 -11 -65 -32 -106 -32zM309 233h1c9 0 11 1 8 11c-22 72 -33 114 -37 132c-3 12 -8 13 -14 1c-22 -39 -60 -107 -84 -147c-4 -7 -2 -11 8 -8c23 5 86 11 118 11z" />
    <glyph glyph-name="B" unicode="B" horiz-adv-x="487" 
d="M289 526h1c58 0 122 -21 122 -88c0 -59 -62 -93 -95 -122c-9 -7 -11 -14 -6 -20c6 -6 21 -12 43 -22c63 -30 95 -63 95 -105c0 -59 -49 -96 -98 -126c-52 -32 -117 -53 -178 -53c-41 0 -72 27 -80 62c-4 22 -1 71 4 129c8 87 23 236 9 267c-3 7 -5 7 -11 5
c-29 -11 -57 -30 -66 -35c-7 -4 -10 -4 -11 -2c0 4 2 11 6 18c9 16 21 25 30 30c10 6 36 18 46 23c7 2 10 7 15 12c16 13 42 27 47 27c6 0 8 -5 11 -10c2 -3 5 -3 12 -2c37 8 73 12 104 12zM240 486h-1c-15 0 -33 -2 -47 -6c-7 -1 -8 -4 -7 -12c4 -34 -5 -152 -10 -222
c-7 -82 -16 -156 2 -183c9 -14 29 -26 59 -26c26 0 66 7 88 21c24 16 47 42 47 78c0 45 -33 70 -84 93c-26 12 -60 25 -68 35c-7 9 -8 16 0 22c9 6 22 14 36 21c22 13 81 43 81 101c0 53 -47 78 -96 78z" />
    <glyph glyph-name="C" unicode="C" horiz-adv-x="484" 
d="M291 41h1c90 0 158 49 185 72c5 5 7 2 5 -5c-2 -13 -20 -32 -33 -42c-20 -15 -57 -37 -104 -56c-38 -15 -80 -24 -119 -24c-52 0 -110 21 -141 54c-27 30 -49 69 -49 146c0 114 70 213 174 279c61 40 122 61 165 61c28 0 43 -8 50 -17c7 -8 6 -17 -4 -26
c-9 -9 -22 -19 -32 -26c-12 -7 -17 -8 -20 -4c-11 12 -38 19 -63 19c-46 0 -94 -32 -121 -61c-37 -40 -67 -99 -67 -182c0 -113 52 -188 173 -188z" />
    <glyph glyph-name="D" unicode="D" horiz-adv-x="600" 
d="M315 523h2c85 0 148 -24 188 -63c37 -36 58 -90 58 -148c0 -126 -66 -200 -133 -244c-76 -50 -156 -81 -234 -81c-35 0 -63 14 -82 47c-18 31 -19 90 -12 180c8 110 17 203 4 225c-3 6 -3 7 -12 5c-19 -5 -61 -27 -74 -36c-7 -4 -11 -4 -10 1c3 9 14 26 21 32
c7 7 19 16 58 33c7 3 11 5 14 9c4 3 7 7 14 11c18 12 45 24 52 24c3 0 7 -4 11 -11c3 -3 5 -4 11 -2c34 9 79 18 124 18zM275 482h-1c-33 0 -63 -6 -77 -11c-8 -2 -8 -4 -8 -10c2 -35 -5 -128 -12 -212c-6 -80 -11 -150 14 -181c16 -20 44 -30 79 -30c29 0 59 5 90 21
c35 18 124 75 124 223c0 125 -85 200 -209 200z" />
    <glyph glyph-name="E" unicode="E" horiz-adv-x="445" 
d="M215 -9h-1c-44 0 -77 7 -91 11c-8 3 -17 0 -24 -3c-5 -3 -11 1 -16 17c-5 18 -4 47 -2 73c2 34 8 119 9 138c0 8 -2 12 -7 17c-6 6 -8 9 -4 14c10 16 16 25 17 34s3 35 3 84c0 39 -4 82 -17 97c-4 5 -5 7 0 12c11 10 49 37 59 37c4 0 8 -4 11 -7c3 -4 7 -4 14 0
c3 2 10 3 19 3c13 0 63 -5 113 -4c31 0 63 2 74 2c9 0 8 -5 0 -13c-27 -28 -91 -33 -144 -33c-24 0 -37 0 -51 1c-7 1 -7 -3 -6 -13c4 -25 -2 -124 -3 -161c0 -10 1 -13 11 -14c37 -4 80 -4 112 -4c43 0 86 6 100 8c10 2 9 -5 -4 -16c-35 -30 -107 -39 -163 -39
c-25 0 -41 1 -52 1c-8 1 -10 -2 -11 -10c-1 -14 -4 -85 -5 -118c-1 -38 7 -50 26 -56c13 -4 41 -9 86 -9c51 0 120 3 163 30c10 6 9 -6 -1 -16c-47 -52 -139 -63 -215 -63z" />
    <glyph glyph-name="F" unicode="F" horiz-adv-x="416" 
d="M164 520h1c25 0 55 -2 86 -5c28 -2 65 -4 89 -4c19 0 47 1 64 4c10 2 9 -4 -2 -13c-21 -20 -77 -31 -122 -31c-39 0 -74 2 -93 3c-8 0 -9 -1 -8 -8c2 -41 -3 -130 -6 -179c-1 -8 0 -11 10 -12c48 -6 99 -8 131 -8c41 0 73 6 87 10c12 4 13 -2 2 -13
c-28 -29 -77 -41 -138 -41c-27 0 -60 2 -88 4c-8 1 -9 -2 -10 -10c-2 -18 -7 -95 -8 -137c-1 -28 -1 -47 8 -53c5 -3 5 -6 -2 -11c-14 -11 -55 -31 -67 -31c-10 0 -13 20 -13 44c1 36 10 142 12 194c0 6 0 9 -5 10c-5 0 -14 1 -20 1c-7 -1 -8 3 -2 11c7 10 17 20 24 24
c5 4 7 8 8 15c5 52 8 146 -2 183c-2 10 -5 13 -12 13c-11 0 -29 -1 -39 -2c-7 -2 -10 4 7 15c25 17 68 27 108 27z" />
    <glyph glyph-name="G" unicode="G" horiz-adv-x="594" 
d="M117 208v-1c0 -103 63 -166 148 -166c64 0 108 28 127 43c15 11 20 37 22 58c3 31 3 56 0 69c-2 11 -12 15 -25 15c-62 0 -112 -28 -134 -48c-10 -8 -13 4 0 19c44 53 121 76 191 76c36 0 68 -4 97 -7s52 -4 65 -4c10 0 8 -6 -4 -14c-24 -18 -67 -25 -101 -25
c-10 0 -10 -4 -11 -14c-6 -69 -17 -126 -24 -192c-3 -26 3 -38 7 -44c4 -4 5 -5 -6 -16c-18 -15 -48 -35 -57 -35c-11 0 -17 9 -15 44c2 23 5 60 7 80c1 10 -3 12 -12 6c-49 -31 -129 -66 -184 -66c-44 0 -95 18 -129 57c-34 38 -43 82 -43 129c0 145 118 252 187 295
c40 26 104 59 165 59c30 0 66 -9 66 -34c0 -16 -41 -46 -51 -46c-4 0 -4 1 -7 4c-9 12 -32 25 -64 25c-66 0 -120 -40 -155 -85c-32 -39 -60 -106 -60 -182z" />
    <glyph glyph-name="H" unicode="H" horiz-adv-x="631" 
d="M478 -14h-1c-25 0 -55 23 -57 93c-1 37 1 117 1 142c1 9 0 11 -9 12c-34 4 -86 5 -135 7c-54 3 -82 1 -96 -1c-10 -2 -14 -4 -16 -17c-3 -32 -9 -99 -11 -155c-1 -25 4 -33 10 -39c5 -4 5 -6 -3 -13c-11 -10 -57 -33 -69 -33c-13 0 -13 23 -12 48c2 37 10 144 13 187
c0 7 -8 7 -15 4c-9 -5 -9 4 1 16c7 10 17 19 19 29c4 28 5 78 6 136c1 42 -7 68 -18 74c-6 4 -6 9 6 18c24 18 56 33 65 33c20 0 22 -50 22 -80c0 -24 -2 -95 -7 -156c-1 -9 2 -11 10 -9c26 4 55 5 88 5c38 0 113 -4 145 -7c8 -1 11 1 11 9c0 27 6 107 10 142
c4 34 11 50 19 58c16 19 60 34 84 39c14 3 16 -2 6 -11c-13 -11 -25 -28 -35 -70c-7 -31 -14 -126 -15 -163c0 -9 2 -11 11 -12c43 -2 76 -2 87 0s13 -2 2 -12c-25 -20 -65 -27 -94 -29c-8 0 -10 -2 -10 -10c0 -112 0 -180 59 -180c26 0 59 13 76 23c10 6 5 -13 -5 -22
c-31 -27 -101 -56 -143 -56z" />
    <glyph glyph-name="I" unicode="I" horiz-adv-x="246" 
d="M147 528h1c21 0 23 -56 22 -88c-1 -57 -6 -142 -10 -197c-4 -53 -9 -131 -9 -180c0 -20 4 -30 9 -34c5 -3 5 -6 -1 -12c-12 -11 -60 -35 -70 -35c-13 0 -14 28 -13 63c1 33 5 101 10 168c5 70 8 134 9 190c0 32 -4 68 -18 78c-6 4 -7 6 1 13c15 13 60 34 69 34z" />
    <glyph glyph-name="J" unicode="J" horiz-adv-x="258" 
d="M-59 -182h-1c-28 0 -55 26 -57 55c-1 11 2 15 7 12c19 -12 53 -19 74 -19c37 0 72 17 96 66c18 39 28 96 36 193c7 78 7 189 7 255c0 60 -7 87 -16 95c-4 4 -2 7 6 15c16 13 63 38 75 38c13 0 13 -112 13 -147c-3 -129 -7 -235 -14 -290c-18 -125 -78 -195 -130 -233
c-39 -27 -77 -40 -96 -40z" />
    <glyph glyph-name="K" unicode="K" horiz-adv-x="562" 
d="M518 28h1c18 0 45 9 58 16c6 3 3 -13 -7 -22c-22 -20 -79 -42 -114 -42c-39 0 -86 30 -129 87c-50 67 -85 116 -107 142c-12 16 -23 24 -32 24c-17 0 -28 -24 -31 -46c-1 -17 -6 -87 -6 -122c0 -16 3 -30 9 -37c4 -3 2 -6 -5 -12c-17 -14 -51 -32 -63 -32
c-13 0 -15 31 -13 62c4 71 17 270 20 346c1 49 -8 81 -18 91c-4 3 -4 6 7 13c26 17 59 31 65 31c17 0 21 -47 21 -82c-1 -48 -6 -140 -9 -179c-1 -11 3 -14 10 -7c14 12 36 26 66 47c75 52 133 108 150 131c18 23 25 38 24 49c0 5 2 8 20 16c24 13 47 21 56 21
c6 0 9 -2 9 -11c0 -18 -33 -58 -78 -97c-45 -38 -110 -90 -144 -117c-13 -11 -14 -16 -9 -24c5 -6 18 -24 38 -52c25 -37 69 -94 115 -142c42 -42 71 -52 96 -52z" />
    <glyph glyph-name="L" unicode="L" horiz-adv-x="441" 
d="M301 42h1c46 0 95 7 129 22c9 4 10 -7 -5 -20c-50 -42 -130 -50 -196 -50c-37 0 -61 2 -80 3c-8 1 -17 1 -27 -2c-8 -3 -20 -6 -27 -6c-5 0 -9 3 -13 13c-5 11 -6 25 -6 41c0 26 4 85 9 138c6 64 11 141 12 207c1 40 -1 84 -13 97c-2 3 -3 6 5 11c19 11 56 30 62 30
c25 0 22 -59 22 -95c-1 -50 -6 -114 -11 -184c-3 -56 -7 -114 -7 -139c0 -42 16 -55 47 -60c26 -4 55 -6 98 -6z" />
    <glyph glyph-name="M" unicode="M" horiz-adv-x="773" 
d="M633 -13h-1c-18 0 -40 20 -49 69c-4 29 -8 96 -4 183c3 62 4 106 4 121c0 11 -4 12 -9 4c-56 -76 -128 -193 -171 -275c-14 -28 -21 -45 -25 -58c-6 -15 -30 -46 -42 -46c-4 0 -6 4 -9 19c-8 45 -34 96 -105 231c-32 59 -47 92 -53 107c-3 10 -7 8 -9 -4
c-9 -43 -26 -129 -34 -186c-8 -55 -7 -95 -3 -124c0 -5 -2 -9 -10 -16c-15 -13 -44 -30 -50 -30c-12 0 -11 26 -4 62c10 50 48 217 59 280c10 51 14 86 13 105c-1 56 55 98 65 98c4 0 4 -4 4 -12c-6 -86 51 -189 91 -261c29 -51 43 -74 68 -113c10 -15 13 -16 22 -2
c39 60 148 220 171 257c20 31 30 48 32 58c2 11 4 19 14 31c18 18 44 36 52 36s11 -31 6 -89c-3 -43 -10 -157 -9 -222c0 -82 3 -168 61 -168c27 0 56 13 72 21c11 8 8 -13 -4 -22c-18 -14 -82 -54 -143 -54z" />
    <glyph glyph-name="N" unicode="N" horiz-adv-x="629" 
d="M87 -15h-1c-9 0 -13 12 -12 43c1 32 7 83 15 142c7 62 15 164 16 184c1 28 2 42 -17 65c-8 10 -25 33 -30 46c-7 18 -5 32 8 49c11 16 24 24 29 24c4 0 11 -20 20 -37c5 -8 9 -10 18 -10c12 0 15 -2 18 -10c4 -18 5 -28 11 -36c12 -17 73 -72 131 -119
c68 -55 134 -115 193 -174c7 -6 10 -4 11 9c4 32 14 182 14 215c1 54 -4 76 -7 83c-2 4 -1 10 18 34c17 21 28 29 32 29c6 0 8 -7 9 -24c2 -17 -1 -62 -6 -113c-11 -92 -18 -209 -19 -253c-1 -26 -1 -49 5 -61c10 -21 12 -31 12 -36c0 -17 -34 -51 -48 -51c-4 0 -6 4 -10 14
c-12 35 -38 77 -127 163c-50 47 -151 129 -211 183c-10 8 -13 7 -15 -5c-7 -52 -12 -143 -15 -201c-3 -55 4 -93 12 -110c2 -5 0 -7 -9 -15c-19 -16 -41 -28 -45 -28z" />
    <glyph glyph-name="O" unicode="O" horiz-adv-x="594" 
d="M248 -14h-1c-58 0 -128 19 -170 71c-22 28 -41 77 -41 129c0 116 55 207 159 264c19 11 31 1 19 -9c-55 -44 -99 -101 -99 -215c0 -48 9 -96 42 -132c41 -48 94 -57 130 -57c56 0 91 18 124 49c35 33 70 97 70 193c0 114 -51 199 -154 199c-46 0 -65 -15 -75 -16
c-5 0 -3 9 6 18c27 28 82 46 124 46c58 0 103 -29 125 -53c44 -48 51 -109 51 -162c0 -156 -125 -266 -222 -305c-36 -15 -62 -20 -88 -20z" />
    <glyph glyph-name="P" unicode="P" horiz-adv-x="449" 
d="M275 526h1c83 0 149 -35 149 -127c0 -100 -76 -150 -139 -183c-41 -22 -86 -33 -104 -35c-9 -1 -10 -4 -11 -11c-3 -28 -6 -92 -4 -114c1 -17 8 -30 16 -36c4 -2 6 -5 -4 -12c-14 -10 -55 -27 -66 -27c-16 0 -21 24 -20 69c2 42 8 124 10 183c6 93 12 190 1 216
c-2 6 -3 8 -11 6c-13 -5 -52 -23 -67 -33c-10 -6 -14 -4 -1 14c10 15 30 30 59 44c7 3 9 6 10 9c0 2 3 6 9 11c12 10 55 33 64 33c5 0 9 -10 12 -16c1 -4 4 -5 11 -3c18 5 56 11 85 12zM237 485h-1c-13 0 -31 -2 -44 -5c-7 -1 -8 -4 -7 -11c2 -33 -4 -145 -10 -229
c-1 -10 2 -16 16 -16c89 -1 158 52 158 146c0 66 -39 115 -112 115z" />
    <glyph glyph-name="Q" unicode="Q" horiz-adv-x="599" 
d="M387 526h1c57 0 102 -28 126 -56c42 -49 48 -110 48 -158c0 -150 -107 -248 -150 -278c-10 -7 -10 -9 -1 -14c38 -19 100 -61 137 -84c45 -29 90 -43 126 -43c37 0 69 20 86 36c10 9 10 -6 0 -19c-27 -32 -80 -60 -132 -60c-57 0 -106 20 -178 65c-21 13 -79 53 -114 71
c-10 5 -19 6 -29 3c-18 -4 -36 -5 -58 -5c-115 0 -213 69 -213 210c0 128 67 203 125 251c29 24 66 39 77 40c10 1 11 -9 0 -17c-63 -43 -123 -128 -123 -236c0 -126 67 -179 107 -192c10 -4 17 -2 26 1c32 9 74 12 106 4c11 -3 17 -1 26 5c51 29 104 117 104 226
c0 130 -61 203 -150 203c-24 0 -46 -7 -57 -12c-11 -6 -12 5 0 17c21 19 61 42 110 42z" />
    <glyph glyph-name="R" unicode="R" horiz-adv-x="533" 
d="M282 524h1c86 0 141 -40 141 -116c0 -72 -48 -109 -100 -146c-12 -8 -12 -13 -2 -29c23 -38 64 -112 103 -156c35 -38 58 -53 83 -53c15 0 30 3 38 7c7 2 8 0 7 -3c0 -4 -5 -12 -12 -17c-28 -20 -61 -26 -84 -26c-34 0 -68 19 -102 59c-32 37 -75 107 -91 135
c-17 30 -32 44 -53 44c-12 0 -23 -2 -28 -5s-9 -10 -10 -21c-3 -32 -8 -102 -8 -129c0 -18 4 -29 13 -36c5 -4 4 -8 -7 -16c-16 -10 -53 -27 -62 -27c-15 0 -18 40 -15 92c5 75 28 330 13 364c-3 7 -4 9 -12 7c-17 -6 -44 -23 -58 -32c-7 -3 -11 -4 -11 0c0 6 6 16 12 22
c16 15 41 29 62 41c6 3 11 9 18 15c9 9 47 33 54 33c5 0 7 -9 10 -14c2 -4 5 -5 14 -3c11 3 53 10 86 10zM230 482h-1c-10 0 -26 -1 -34 -3c-6 -2 -7 -5 -7 -12c1 -42 -6 -136 -10 -202c0 -9 3 -14 22 -14c34 1 69 10 93 26c28 17 55 51 55 97c0 72 -47 108 -118 108z" />
    <glyph glyph-name="S" unicode="S" horiz-adv-x="381" 
d="M104 -14h-1c-31 0 -81 13 -81 41c0 13 25 31 35 38c12 7 15 6 18 2c13 -20 44 -35 84 -35c60 0 117 40 117 98c0 40 -28 62 -87 88c-30 13 -71 29 -94 46c-26 17 -40 42 -40 78c0 58 41 99 74 126c34 28 100 59 144 59c29 0 57 -13 57 -29c0 -11 -23 -30 -33 -37
c-6 -4 -10 -6 -13 -3c-13 11 -33 21 -67 21c-50 0 -99 -44 -99 -93c0 -45 38 -69 111 -99c66 -27 116 -47 116 -112c0 -80 -76 -130 -110 -150c-25 -15 -76 -39 -131 -39z" />
    <glyph glyph-name="T" unicode="T" horiz-adv-x="519" 
d="M226 522h1c49 0 94 -5 135 -10s80 -8 107 -8c28 0 57 5 71 13c6 4 8 -4 -1 -15c-17 -20 -63 -40 -119 -40c-31 0 -74 3 -106 5c-8 1 -9 -2 -9 -10c0 -11 -1 -42 -4 -80c-5 -64 -11 -169 -17 -270c-3 -53 2 -70 10 -78c4 -4 4 -7 -5 -14c-14 -10 -53 -29 -65 -29
c-18 0 -21 24 -17 89c8 116 16 215 19 284c3 44 4 81 -1 100c-3 10 -7 14 -15 15c-11 2 -24 3 -38 3c-84 -1 -133 -41 -155 -63c-6 -6 -9 4 -1 16c48 70 124 92 210 92z" />
    <glyph glyph-name="U" unicode="U" horiz-adv-x="629" 
d="M180 -11h-1c-41 0 -76 24 -90 69c-12 39 -10 81 -6 149c5 55 10 117 13 170c2 41 2 78 -13 91c-3 3 -5 9 11 22c26 18 55 32 61 32c24 0 21 -77 15 -155c-4 -43 -11 -124 -14 -182c-4 -74 10 -133 87 -133c21 0 47 5 82 22c41 21 86 62 100 84c7 12 12 26 14 38
c1 13 4 35 8 72c6 44 10 108 11 138c1 24 -1 45 -7 58c-3 6 5 17 23 33c26 21 45 29 50 29c15 0 13 -50 7 -115c-7 -74 -16 -165 -18 -224c-2 -56 -3 -151 58 -151c23 0 49 11 66 20c8 5 9 -11 -7 -24c-31 -26 -85 -50 -119 -50c-55 0 -69 71 -72 124c-1 12 -6 14 -12 9
c-9 -7 -60 -52 -122 -86c-54 -30 -93 -40 -125 -40z" />
    <glyph glyph-name="V" unicode="V" horiz-adv-x="556" 
d="M242 -15h-1c-7 0 -14 22 -23 65c-17 83 -47 198 -75 283c-25 74 -46 107 -56 120c-14 17 -45 22 -62 20c-9 -1 -9 5 -1 14c12 14 55 39 81 39c32 0 61 -44 80 -88c39 -88 67 -222 92 -307c6 -20 10 -19 21 -2c15 22 63 100 105 165c42 66 58 104 65 131c6 21 3 40 -7 50
c-3 2 -4 3 -4 7c1 11 43 44 56 44s23 -17 24 -38c2 -56 -59 -142 -127 -248c-56 -89 -87 -149 -98 -169c-9 -20 -13 -31 -13 -40c1 -16 -46 -46 -57 -46z" />
    <glyph glyph-name="W" unicode="W" horiz-adv-x="790" 
d="M112 526h1c15 0 29 -21 40 -46c32 -76 65 -244 79 -327c2 -15 7 -15 15 -2c30 49 107 212 131 269c6 18 12 32 16 43c6 14 39 58 51 58c4 0 4 -4 4 -14c5 -71 22 -136 44 -214c21 -77 42 -145 51 -172c6 -17 10 -17 22 -1c49 63 92 141 116 199c20 49 27 94 26 116
c0 20 -7 35 -13 46c-2 4 2 11 19 30c12 14 23 23 28 23c17 0 23 -37 24 -55c1 -85 -53 -183 -77 -225c-24 -45 -70 -121 -113 -189c-6 -10 -13 -23 -16 -32c-6 -16 -51 -50 -61 -50c-5 0 -7 6 -8 17c-6 52 -21 108 -36 163c-17 63 -39 145 -51 185c-5 17 -8 17 -18 1
c-15 -27 -95 -190 -116 -238c-8 -19 -16 -41 -20 -57c-6 -20 -54 -67 -67 -67c-4 0 -6 6 -6 19c-1 16 -3 36 -5 59c-9 83 -46 294 -89 372c-13 25 -29 36 -55 39c-6 0 -5 8 6 15c13 10 61 35 78 35z" />
    <glyph glyph-name="X" unicode="X" horiz-adv-x="573" 
d="M456 -19h-1c-35 0 -62 18 -89 51c-28 34 -63 104 -101 183c-6 12 -10 11 -18 3c-25 -28 -82 -85 -114 -130c-30 -41 -36 -63 -36 -73c-1 -5 -4 -7 -17 -13c-15 -9 -47 -18 -55 -18c-6 0 -14 1 -15 9s9 26 22 41c48 61 141 152 201 219c8 9 9 15 4 25
c-30 66 -88 203 -154 203c-11 0 -31 -4 -39 -7c-8 -2 -10 9 6 19c31 19 70 33 92 33c27 0 52 -23 74 -52c21 -28 48 -81 78 -145c5 -10 9 -10 16 -3c84 84 132 147 133 173c1 8 3 13 12 17c18 9 50 20 58 20s8 -7 4 -20c-8 -28 -83 -110 -118 -146c-24 -24 -64 -64 -75 -76
c-7 -8 -7 -13 -2 -23c49 -101 108 -239 187 -239c27 0 51 9 67 17c10 6 10 -10 -3 -21c-38 -31 -85 -47 -117 -47z" />
    <glyph glyph-name="Y" unicode="Y" horiz-adv-x="500" 
d="M97 526h1c27 0 60 -28 92 -86s63 -136 74 -165c6 -16 11 -16 19 -6c26 28 94 115 117 151c15 26 22 47 22 57c0 8 -1 17 -3 22c-2 4 0 9 14 19c17 12 33 19 38 19c8 0 13 -9 13 -23c0 -41 -45 -102 -105 -178c-42 -52 -62 -79 -81 -115c-14 -26 -17 -67 -19 -117
c-3 -51 2 -74 9 -82c4 -4 5 -6 -6 -13c-20 -11 -53 -22 -64 -22c-18 0 -17 36 -15 60c2 32 8 120 10 133c0 6 -2 17 -3 21c-3 8 -5 14 -8 26c-14 61 -70 184 -117 229c-15 15 -32 25 -46 25c-7 0 -16 -1 -21 -2c-7 -2 -6 6 2 13c16 15 55 34 77 34z" />
    <glyph glyph-name="Z" unicode="Z" horiz-adv-x="565" 
d="M223 521h1c40 0 111 -14 165 -20c28 -4 44 -5 54 -5s22 4 33 14c23 22 41 32 54 32c6 0 6 -7 -1 -18c-6 -10 -22 -31 -46 -54c-87 -93 -220 -242 -319 -361c-10 -11 -9 -18 1 -18c20 -1 58 -10 120 -29c48 -15 94 -26 131 -26c44 0 93 32 131 79c8 10 12 -8 2 -24
c-44 -72 -121 -116 -187 -116c-60 0 -148 36 -185 47c-26 8 -49 11 -62 11c-31 0 -59 -21 -82 -41c-10 -8 -17 -3 -16 5c2 9 15 30 34 50c95 102 256 282 338 379c8 8 8 13 -4 13c-29 2 -118 17 -181 17c-69 0 -110 -26 -150 -73c-10 -13 -18 -5 -7 15c17 33 51 70 80 90
c30 21 61 33 96 33z" />
    <glyph glyph-name="bracketleft" unicode="[" horiz-adv-x="322" 
d="M253 608h1c13 0 23 0 31 -2c7 -1 10 -3 10 -7c0 -7 -13 -12 -29 -16c-27 -8 -66 -14 -82 -27c-11 -10 -15 -35 -18 -65c-4 -32 -6 -74 -13 -191c-7 -116 -16 -278 -8 -324c7 -39 17 -51 43 -59c19 -6 47 -9 74 -12c8 -1 10 -6 2 -12c-12 -7 -38 -12 -73 -12
c-38 0 -72 1 -89 21c-20 26 -19 80 -11 238c9 182 12 331 21 410c4 23 10 37 29 44c16 5 83 14 112 14z" />
    <glyph glyph-name="backslash" unicode="\" horiz-adv-x="350" 
d="M299 -106h-1c-11 0 -21 14 -28 31c-66 173 -159 408 -232 597c-5 13 12 42 21 56c5 10 8 7 13 -5c75 -198 160 -428 235 -611c5 -13 8 -23 9 -30c1 -16 -12 -38 -17 -38z" />
    <glyph glyph-name="bracketright" unicode="]" horiz-adv-x="322" 
d="M197 606h1c32 0 38 -28 40 -54c2 -38 -1 -118 -6 -239c-9 -206 -16 -293 -21 -323c-7 -42 -14 -74 -56 -90c-19 -8 -82 -18 -107 -18c-16 0 -19 3 -12 10c8 9 21 18 30 21c50 11 68 20 79 45c7 16 16 53 23 176c7 124 11 266 12 311c2 71 -5 104 -14 117
c-6 9 -14 11 -30 10c-24 -1 -63 -7 -72 -7c-8 0 -14 -1 -7 8c6 9 14 18 26 21c12 4 32 6 65 9c23 2 35 3 49 3z" />
    <glyph glyph-name="asciicircum" unicode="^" horiz-adv-x="444" 
d="M242 526h1c10 0 22 -18 36 -34c18 -24 102 -187 118 -230c4 -13 4 -21 -3 -29c-10 -12 -32 -27 -38 -27c-5 0 -7 3 -12 19c-21 70 -83 185 -102 212c-12 17 -18 17 -29 4c-42 -51 -130 -195 -150 -223c-7 -10 -11 -10 -14 -5c-5 9 -7 22 1 35c33 58 117 202 166 258
c10 12 19 20 26 20z" />
    <glyph glyph-name="underscore" unicode="_" horiz-adv-x="500" 
d="M497 -75v-50h-500v50h500z" />
    <glyph glyph-name="quoteleft" unicode="&#x2018;" horiz-adv-x="182" 
d="M81 407h-1c-20 0 -39 28 -39 62c0 67 59 124 115 149c18 7 24 -5 12 -14c-39 -29 -61 -61 -61 -99c0 -28 15 -43 25 -49c8 -5 4 -16 -17 -33c-14 -11 -26 -16 -34 -16z" />
    <glyph glyph-name="a" unicode="a" horiz-adv-x="378" 
d="M242 385h1c36 0 64 -46 58 -113c-4 -47 -7 -108 -8 -155c-1 -30 0 -52 9 -64s20 -17 33 -17c12 0 33 7 42 13c7 4 7 -10 -1 -19c-15 -19 -51 -47 -92 -47c-27 0 -50 27 -60 49c-4 7 -7 7 -16 2c-27 -18 -79 -44 -101 -44c-25 0 -57 11 -70 34c-6 10 -10 22 -10 38
c0 19 10 35 22 48c36 38 104 66 162 83c12 3 17 7 18 15c1 11 2 27 2 45c1 32 -5 80 -42 80c-38 0 -96 -41 -128 -58c-6 -3 -11 -2 -6 10c7 17 19 33 33 41c28 15 67 34 96 45c25 10 44 14 58 14zM150 41h1c15 0 41 8 52 18c12 8 17 19 18 34s3 36 4 56c0 9 -3 10 -13 8
c-28 -4 -69 -17 -86 -27c-17 -9 -29 -21 -29 -41c-1 -28 25 -48 53 -48z" />
    <glyph glyph-name="b" unicode="b" horiz-adv-x="464" 
d="M433 249v-1c0 -67 -36 -124 -80 -165c-53 -48 -133 -93 -205 -93c-20 0 -44 8 -63 35c-19 28 -20 61 -19 104c3 100 17 241 22 362c4 80 -5 106 -17 115c-4 3 -6 5 2 12c16 13 62 36 70 36c20 0 21 -65 19 -102c-2 -61 -11 -185 -14 -245c-1 -12 4 -13 13 -7
c17 10 59 45 121 72c18 8 31 11 45 11c56 0 106 -52 106 -134zM355 216v1c0 43 -19 111 -79 111c-35 0 -86 -37 -112 -62c-14 -15 -21 -29 -23 -47s-4 -60 -3 -89c2 -50 18 -91 74 -91c22 0 55 13 74 28c27 20 69 65 69 149z" />
    <glyph glyph-name="c" unicode="c" horiz-adv-x="356" 
d="M276 383h1c18 0 49 -13 49 -33c0 -13 -27 -32 -37 -39c-6 -4 -10 -5 -14 -1c-13 13 -33 19 -56 19c-33 0 -64 -24 -80 -45c-17 -21 -34 -58 -34 -109c0 -80 37 -131 118 -131c44 0 93 26 124 53c5 3 8 3 7 -4c-1 -10 -13 -29 -24 -38c-43 -35 -110 -68 -171 -68
c-93 0 -129 74 -129 138c0 97 67 173 140 218c33 20 77 40 106 40z" />
    <glyph glyph-name="d" unicode="d" horiz-adv-x="473" 
d="M118 -10h-1c-45 0 -86 43 -86 124c0 95 51 160 120 213c48 35 110 56 158 56c11 0 14 1 15 11c3 31 6 94 7 131c1 41 -3 74 -13 87c-3 4 -3 6 1 10c15 14 62 37 71 37c17 0 15 -78 11 -131c-4 -60 -18 -260 -20 -324c-2 -86 -3 -164 46 -164c14 0 37 6 53 15
c7 5 9 -9 -2 -20c-21 -22 -70 -52 -111 -52c-43 0 -53 50 -59 88c-2 9 -6 8 -15 1c-43 -29 -118 -82 -175 -82zM182 52h1c43 0 87 29 112 60c9 10 13 23 14 39c2 47 7 148 10 175c1 8 -1 10 -6 9c-11 -2 -28 1 -49 1c-46 0 -96 -20 -125 -59c-23 -29 -36 -65 -36 -113
c0 -56 22 -112 79 -112z" />
    <glyph glyph-name="e" unicode="e" horiz-adv-x="376" 
d="M162 -10h-1c-49 0 -104 27 -121 89c-6 19 -9 42 -9 69c0 71 33 144 101 193c33 24 74 42 111 42c44 0 66 -22 76 -42c11 -20 14 -51 13 -62c0 -7 2 -9 18 -7c13 2 13 -7 3 -15s-36 -20 -74 -31s-103 -25 -154 -35c-14 -3 -19 -5 -19 -18c-3 -75 35 -127 115 -126
c50 0 102 20 134 47c12 10 10 -15 -4 -28c-34 -34 -115 -76 -189 -76zM205 343h-1c-39 0 -80 -46 -91 -106c-2 -10 1 -12 14 -10c23 3 77 12 113 21c18 4 25 10 25 23c1 14 -3 34 -11 46c-10 16 -26 26 -49 26z" />
    <glyph glyph-name="f" unicode="f" horiz-adv-x="258" 
d="M185 311h-19c-6 0 -11 -1 -11 -10c-2 -15 -3 -49 -5 -112c-3 -72 -1 -125 1 -135c2 -12 8 -24 14 -30c3 -4 1 -8 -8 -14c-16 -11 -52 -26 -67 -26c-14 0 -17 29 -17 61c1 68 6 170 11 254c1 9 -1 12 -8 12c-16 0 -34 -2 -42 -7c-6 -3 -9 1 -4 10c6 11 23 29 49 39
c6 2 9 4 9 10c9 113 58 199 151 259c37 23 64 30 83 30c29 0 47 -21 47 -36c0 -14 -21 -33 -33 -41c-7 -5 -11 -6 -15 -2c-11 12 -32 22 -51 22c-29 0 -56 -19 -74 -50c-27 -49 -32 -115 -36 -174c-1 -10 1 -13 9 -14c25 -2 54 -4 84 -4c24 0 44 3 55 6c10 3 11 -2 1 -14
c-24 -28 -83 -34 -124 -34z" />
    <glyph glyph-name="g" unicode="g" horiz-adv-x="365" 
d="M235 383h1c27 0 44 -12 55 -21s21 -12 32 -12c37 1 63 14 89 36c6 5 9 -2 1 -17c-16 -30 -49 -57 -87 -66c-6 -2 -7 -3 -6 -8c1 -4 1 -13 1 -27c0 -42 -18 -85 -43 -115c-28 -34 -63 -53 -99 -81c-14 -11 -23 -20 -23 -31c0 -10 8 -18 23 -27c20 -12 76 -30 114 -45
c53 -20 73 -51 73 -80c0 -46 -39 -89 -85 -120c-49 -34 -116 -58 -179 -58c-58 0 -140 23 -140 91c0 16 5 30 15 44c24 37 81 80 120 99c14 6 18 2 13 -7s-16 -21 -26 -27c-23 -14 -56 -42 -56 -70c0 -60 70 -83 131 -83c52 0 96 24 114 39c15 12 27 28 27 48s-10 43 -62 67
c-37 17 -105 39 -125 47c-17 7 -29 25 -29 44c0 11 14 24 29 38c10 9 18 14 23 20c5 5 0 7 -11 8c-47 2 -92 38 -92 106c0 56 33 112 84 142c17 10 25 4 14 -9c-10 -13 -31 -39 -31 -91c0 -53 32 -104 78 -104c20 0 40 14 53 30c17 20 29 54 29 96c0 55 -25 95 -62 95
c-16 0 -32 -7 -38 -10c-7 -4 -10 3 -2 14c16 21 51 45 77 45z" />
    <glyph glyph-name="h" unicode="h" horiz-adv-x="478" 
d="M333 383h1c7 0 14 -2 22 -6c33 -19 41 -69 40 -128c-1 -31 -6 -109 -8 -145c-2 -30 0 -66 30 -66c13 0 35 6 56 17c9 5 7 -12 -5 -23c-37 -31 -99 -52 -114 -52c-11 0 -21 6 -31 17c-11 13 -13 31 -11 55c4 35 6 74 10 128c5 59 1 101 -10 121c-6 13 -18 21 -31 21
c-32 0 -82 -56 -113 -112c-24 -42 -29 -72 -38 -146c-6 -41 -59 -76 -76 -76c-4 0 -5 6 -2 16c13 61 22 163 35 351c11 170 6 235 -11 253c-2 2 -6 4 4 13c19 18 55 36 62 36c26 0 23 -100 21 -141c-2 -67 -8 -188 -14 -262c-1 -13 2 -14 11 -3c13 17 49 61 75 82
c21 17 66 50 97 50z" />
    <glyph glyph-name="i" unicode="i" horiz-adv-x="233" 
d="M82 514v1c0 11 57 40 70 40c7 0 7 -4 7 -15c-2 -17 3 -35 12 -45c7 -9 4 -12 -3 -18c-10 -8 -37 -25 -47 -25c-11 0 -39 21 -39 62zM144 383h1c15 0 11 -65 8 -92c-5 -49 -13 -148 -13 -190c-1 -50 16 -62 32 -62c14 0 33 5 52 15c10 5 6 -13 -6 -24
c-38 -30 -88 -45 -108 -45c-31 0 -45 39 -42 90c2 42 8 123 13 184c4 49 -2 71 -7 79c-2 3 -2 6 5 11c19 16 54 34 65 34z" />
    <glyph glyph-name="j" unicode="j" horiz-adv-x="216" 
d="M71 515v1c0 11 53 40 71 40c5 0 6 -4 6 -15c-2 -17 3 -34 12 -46c7 -9 4 -12 -4 -18c-9 -7 -36 -24 -46 -24c-11 0 -39 21 -39 62zM136 384h1c15 0 18 -67 16 -146c-1 -68 -4 -156 -11 -219c-11 -90 -38 -162 -83 -214c-34 -38 -88 -77 -137 -77c-33 0 -55 29 -57 59
c-1 12 4 15 8 11c15 -11 52 -21 76 -21c38 0 64 17 82 46c23 38 34 105 40 184c5 63 7 162 8 233c1 59 -8 87 -16 94c-5 4 -3 7 4 14c12 12 59 36 69 36z" />
    <glyph glyph-name="k" unicode="k" horiz-adv-x="441" 
d="M360 -12h-1c-27 0 -49 13 -73 38c-32 33 -78 99 -98 130c-12 19 -22 28 -30 28c-15 0 -19 -20 -20 -41c-3 -39 -7 -81 -9 -99c-1 -11 -8 -22 -17 -30c-15 -14 -40 -27 -51 -27c-6 0 -7 3 -5 13c16 91 29 352 30 506c0 42 -4 91 -17 101c-3 4 -3 6 4 12c12 12 62 38 72 38
c15 0 14 -80 14 -104c-2 -95 -11 -238 -16 -331c-1 -11 4 -12 13 -3c75 71 114 110 153 137c23 18 45 28 59 28c18 0 35 -11 47 -32c5 -7 -1 -13 -11 -12c-56 10 -148 -58 -174 -89c-6 -8 -6 -16 3 -28c19 -27 56 -85 82 -119c32 -43 63 -68 94 -68c19 0 38 6 53 15
c6 3 9 -10 -5 -23c-25 -23 -66 -40 -97 -40z" />
    <glyph glyph-name="l" unicode="l" horiz-adv-x="228" 
d="M120 -10h-1c-14 0 -29 10 -39 25c-12 18 -17 56 -14 111c8 126 21 298 25 394c2 50 0 79 -13 92c-3 4 -4 7 3 12c16 11 60 35 68 35c21 0 15 -72 13 -121c-7 -114 -19 -272 -23 -378c-2 -55 1 -83 10 -97c7 -13 19 -18 31 -18c15 0 38 7 53 14c7 3 10 -9 -5 -22
c-24 -21 -77 -47 -108 -47z" />
    <glyph glyph-name="m" unicode="m" horiz-adv-x="702" 
d="M329 383h1c47 0 51 -105 51 -134c0 -11 4 -11 12 -3c43 47 90 92 145 126c17 10 29 14 37 14c32 0 47 -44 44 -87l-6 -125c-4 -73 -1 -131 40 -131c10 0 31 5 51 17c10 6 8 -11 -3 -21c-38 -33 -92 -50 -111 -50c-17 0 -55 4 -49 104c3 47 8 100 7 126c0 24 6 95 -31 95
c-28 0 -72 -45 -107 -88c-27 -34 -31 -71 -33 -100c-1 -21 -4 -53 -6 -73c-2 -22 -11 -29 -42 -47c-10 -6 -23 -10 -29 -10c-7 0 -11 3 -6 16c7 20 14 84 17 154c2 41 1 87 -5 115c-5 22 -15 34 -29 34c-23 0 -67 -39 -92 -71c-27 -36 -30 -51 -37 -73
c-8 -25 -13 -85 -19 -128c-4 -27 -58 -54 -69 -54c-6 0 -9 3 -4 14c10 28 22 147 26 247c3 51 -7 80 -19 92c-3 3 -4 6 3 11c17 15 50 32 60 32c26 0 26 -65 25 -127c0 -9 5 -8 11 0c20 22 90 88 128 111c17 10 28 14 39 14z" />
    <glyph glyph-name="n" unicode="n" horiz-adv-x="473" 
d="M343 384h1c42 0 50 -68 48 -125c-2 -43 -7 -106 -9 -154c-2 -54 13 -72 32 -72c16 0 38 7 53 15c8 4 7 -12 -6 -24c-33 -27 -78 -44 -104 -44c-17 0 -30 8 -40 21c-9 11 -12 32 -9 66c3 35 11 105 13 149c3 39 4 104 -39 104c-34 0 -82 -46 -105 -73
c-35 -44 -38 -98 -44 -166c-2 -20 -4 -36 -12 -49c-9 -18 -48 -45 -62 -45c-5 0 -8 2 -3 17c9 39 20 152 20 221c0 62 -4 98 -19 114c-4 3 -4 6 1 12c13 14 56 42 64 42c20 0 24 -83 25 -123c0 -11 6 -11 13 -3c36 37 86 79 130 102c22 11 38 15 52 15z" />
    <glyph glyph-name="o" unicode="o" horiz-adv-x="435" 
d="M291 383h1c38 0 113 -25 113 -142c0 -81 -39 -131 -81 -169c-43 -39 -113 -81 -176 -81c-71 0 -117 48 -117 141c0 73 32 128 84 168c12 9 27 16 38 20c18 8 18 -5 6 -17c-41 -35 -56 -79 -56 -131c0 -79 32 -129 98 -129c28 0 61 12 85 36c21 22 43 65 43 127
c0 72 -31 126 -86 126c-14 0 -30 -3 -41 -8c-8 -4 -9 8 1 18c21 20 57 41 88 41z" />
    <glyph glyph-name="p" unicode="p" horiz-adv-x="463" 
d="M328 383h1c50 0 104 -49 104 -140c0 -103 -82 -192 -168 -236c-48 -24 -82 -31 -120 -31c-7 0 -10 -4 -10 -14c-4 -46 -8 -122 -9 -148c0 -15 7 -32 15 -38c5 -2 5 -5 -4 -13c-13 -13 -55 -42 -67 -42s-18 24 -16 76c5 76 23 305 26 428c1 58 -3 107 -21 122
c-3 2 -4 3 0 9c11 16 61 50 68 50c24 0 25 -74 26 -96c0 -13 2 -16 12 -10c11 8 60 40 82 52c25 16 51 31 81 31zM358 203v1c0 54 -21 122 -82 122c-28 0 -63 -22 -84 -42c-30 -29 -36 -53 -41 -98s-8 -110 -11 -159c0 -9 1 -10 6 -8c4 2 12 4 22 4c51 -4 91 5 130 39
c36 30 60 86 60 141z" />
    <glyph glyph-name="q" unicode="q" horiz-adv-x="455" 
d="M30 117v1c0 67 20 120 82 178c51 47 124 85 208 85c12 0 22 1 35 9c16 9 29 15 35 15c9 0 7 -35 5 -68c-10 -128 -20 -308 -25 -442c-3 -72 6 -101 22 -108c4 -2 5 -6 -2 -12c-15 -14 -53 -44 -69 -44c-19 0 -24 36 -23 86c3 99 11 230 12 250c0 11 -4 11 -14 3
c-17 -13 -56 -41 -84 -57c-28 -15 -51 -23 -72 -23c-39 0 -109 36 -110 127zM103 159v-1c0 -49 26 -109 85 -109c21 0 46 8 68 22c41 30 55 54 60 101c6 60 8 121 4 149c-2 12 -3 13 -8 12c-5 0 -12 0 -18 1c-10 1 -22 2 -33 2c-37 0 -76 -15 -108 -46
c-29 -29 -50 -77 -50 -131z" />
    <glyph glyph-name="r" unicode="r" horiz-adv-x="328" 
d="M113 390h1c28 0 32 -54 33 -100c0 -10 4 -12 11 -5c18 21 48 55 70 72c20 16 37 29 54 29c28 0 49 -24 49 -43c0 -17 -13 -32 -34 -50c-11 -9 -15 -7 -19 -1c-9 11 -26 23 -43 23c-23 0 -48 -31 -65 -59c-20 -33 -23 -102 -27 -168c-2 -28 -5 -47 -14 -59
c-15 -25 -52 -41 -61 -41c-5 0 -7 1 -5 12c5 29 14 115 17 204c1 52 1 113 -30 128c-5 3 -8 4 -8 8c0 5 6 11 18 19c15 12 43 31 53 31z" />
    <glyph glyph-name="s" unicode="s" horiz-adv-x="306" 
d="M51 238c-1 58 60 106 107 130c25 14 49 18 61 18c22 0 45 -10 45 -28c0 -11 -19 -30 -29 -37c-6 -3 -9 -4 -12 -1c-9 9 -28 18 -51 18c-28 0 -58 -27 -58 -58c0 -39 50 -53 111 -81c32 -14 49 -34 49 -60c0 -64 -71 -111 -113 -130c-27 -13 -55 -20 -78 -20
c-21 0 -61 10 -61 34c0 10 25 30 36 37c8 6 11 4 14 1c9 -14 38 -26 64 -26c34 0 71 25 71 60c0 19 -14 36 -50 52c-20 8 -46 18 -65 29c-27 15 -40 37 -41 62z" />
    <glyph glyph-name="t" unicode="t" horiz-adv-x="304" 
d="M148 -17h-1c-21 0 -52 12 -64 53c-8 25 -7 61 -5 99c3 45 8 133 11 169c1 10 0 12 -7 13c-17 1 -42 1 -52 -2c-5 -1 -8 2 -1 11c11 15 32 29 57 34c6 2 9 3 10 11c2 28 4 65 -2 75c-2 6 -3 9 2 14c13 11 52 38 62 38c12 0 12 -34 11 -53s-3 -51 -6 -74c-1 -7 0 -9 6 -10
c31 -2 65 -5 96 -5c26 0 46 2 54 3c7 2 9 -3 -1 -14c-23 -23 -65 -32 -102 -32c-21 0 -40 1 -50 2c-7 0 -9 -2 -10 -10c-2 -31 -6 -84 -8 -143c-2 -72 0 -124 60 -124c24 0 59 17 81 35c8 8 10 -10 -2 -24c-40 -43 -98 -66 -139 -66z" />
    <glyph glyph-name="u" unicode="u" horiz-adv-x="479" 
d="M146 -9h-1c-44 0 -77 45 -76 105c0 29 3 54 4 85c4 47 7 80 7 102s-4 45 -14 55c-4 3 -2 7 8 15c29 21 56 34 65 34c20 0 15 -78 12 -112c-4 -36 -9 -95 -10 -137c-2 -63 22 -85 59 -85c44 0 89 49 107 80c11 17 14 30 17 50c3 24 7 78 8 109c1 19 -2 36 -6 45
c-2 5 -1 7 6 11c11 10 50 36 64 36c9 0 10 -12 9 -34c-3 -40 -16 -175 -17 -214c-1 -33 -4 -98 42 -98c13 0 31 4 43 11c10 6 13 -7 -1 -20c-27 -26 -67 -45 -97 -45c-46 0 -56 58 -59 93c0 11 -4 13 -14 4c-13 -11 -71 -59 -100 -74c-20 -11 -35 -16 -56 -16z" />
    <glyph glyph-name="v" unicode="v" horiz-adv-x="405" 
d="M89 386h1c27 0 45 -26 63 -64c24 -51 50 -163 59 -197c3 -15 8 -15 15 -2c13 19 27 44 44 70c19 29 49 80 57 108c5 16 4 32 0 38c-3 5 -8 10 -9 14c0 4 3 7 9 11c9 7 34 22 45 22s20 -12 21 -29c1 -31 -28 -81 -93 -179c-36 -55 -56 -99 -63 -114
c-7 -14 -10 -23 -10 -30c-1 -6 -5 -13 -12 -20c-9 -7 -38 -26 -47 -26c-7 0 -10 9 -12 26c-8 80 -31 184 -62 259c-15 37 -35 63 -56 63c-6 0 -13 -1 -18 -2c-4 -1 -11 -1 -14 2c-4 3 0 9 9 16c32 24 58 34 73 34z" />
    <glyph glyph-name="w" unicode="w" horiz-adv-x="635" 
d="M96 383h1c35 0 53 -50 67 -106c15 -59 21 -108 25 -136c3 -14 8 -15 15 -4c9 14 30 46 77 131c16 29 23 47 28 59c9 20 47 58 59 58c6 0 5 -7 5 -16c-2 -28 7 -69 16 -98c12 -42 33 -95 53 -151c5 -13 10 -14 16 -4c13 20 39 57 66 102c23 40 32 66 36 82
c3 13 0 26 -4 33c-4 5 -8 9 -9 13c0 3 1 6 8 12c14 14 42 31 49 31c10 0 18 -11 18 -29c1 -37 -21 -83 -68 -155c-38 -60 -62 -100 -81 -142c-7 -16 -11 -29 -13 -37c0 -9 -5 -17 -14 -25c-12 -12 -32 -20 -40 -20c-4 0 -7 9 -9 24c-6 42 -37 143 -71 235
c-6 16 -10 16 -20 2c-26 -40 -67 -113 -90 -160c-11 -21 -16 -37 -16 -47c0 -8 -4 -15 -11 -22c-9 -9 -37 -27 -45 -27c-5 0 -7 10 -8 22c-4 75 -17 190 -50 280c-13 35 -28 44 -39 44c-8 0 -21 -2 -27 -5c-5 -2 -9 -2 -8 3c0 6 6 15 14 22c17 14 49 31 70 31z" />
    <glyph glyph-name="x" unicode="x" horiz-adv-x="461" 
d="M120 384h1c24 0 41 -14 55 -31c16 -19 40 -65 61 -104c6 -10 9 -9 15 -2c23 31 62 81 87 103c27 23 46 33 65 33c13 0 29 -10 37 -25c6 -12 5 -17 -9 -15c-67 3 -132 -83 -165 -126c-7 -9 -7 -14 -1 -24c15 -31 42 -82 64 -111c27 -34 46 -45 65 -45s42 13 60 25
c8 7 12 -7 -2 -23c-27 -30 -72 -57 -107 -57c-28 0 -56 15 -90 73c-11 20 -31 57 -42 79c-5 8 -9 8 -16 -1c-52 -70 -102 -123 -146 -144c-11 -5 -24 -8 -31 -8c-13 0 -24 3 -24 14c0 8 25 41 34 49c6 8 8 11 16 8c37 -11 109 74 139 115c6 9 6 15 1 25
c-10 21 -28 55 -49 87c-25 38 -44 51 -62 51c-13 0 -27 -6 -35 -10s-9 6 -1 17c16 18 54 47 80 47z" />
    <glyph glyph-name="y" unicode="y" horiz-adv-x="407" 
d="M105 385h1c19 0 40 -21 51 -49c16 -35 31 -84 44 -138c13 -55 26 -100 32 -115c4 -13 10 -20 16 -20c4 0 7 5 11 13c31 62 72 189 66 265c-1 8 3 12 10 18c8 8 36 30 47 31c6 2 9 -4 10 -17c1 -28 -18 -99 -32 -143c-40 -121 -108 -276 -209 -395
c-27 -30 -93 -102 -125 -102c-8 0 -10 7 -8 15c7 22 45 92 54 89c11 -4 21 -4 28 1c27 19 73 76 93 121c4 8 1 12 -4 20c-9 16 -18 44 -26 74c-24 93 -45 170 -68 228c-13 28 -29 43 -41 43c-11 0 -28 -3 -39 -9c-9 -6 -10 6 -1 18c19 24 60 52 90 52z" />
    <glyph glyph-name="z" unicode="z" horiz-adv-x="410" 
d="M172 381h1c27 0 81 -10 105 -16c25 -5 36 -5 47 -5c14 0 27 11 40 22c9 8 27 14 38 14c5 0 3 -6 -7 -19c-26 -30 -224 -254 -250 -281c-10 -11 -9 -17 2 -19c16 -4 42 -11 66 -17c32 -8 57 -16 88 -16c46 0 83 34 107 62c9 9 10 -11 0 -26c-46 -61 -106 -94 -157 -94
c-36 0 -79 15 -118 25c-25 6 -38 8 -52 8c-20 0 -43 -14 -55 -26c-8 -8 -17 -5 -16 4c1 8 9 24 26 40c69 67 193 206 226 250c9 13 10 18 -1 19c-14 1 -39 5 -62 9c-18 2 -38 4 -54 4c-46 0 -83 -30 -105 -55c-10 -11 -18 -2 -7 18c26 46 80 99 138 99z" />
    <glyph glyph-name="braceleft" unicode="{" horiz-adv-x="325" 
d="M286 606h1c23 0 18 -9 8 -17c-7 -5 -15 -9 -24 -11c-27 -5 -57 -29 -57 -80c0 -18 2 -43 5 -60c4 -20 8 -45 8 -66c0 -48 -35 -84 -62 -105c-8 -7 -6 -10 3 -15c22 -14 38 -36 38 -67c0 -23 -8 -56 -17 -96c-8 -36 -13 -62 -13 -88c0 -64 39 -81 74 -81c12 0 24 2 38 5
s5 -12 -8 -20c-19 -10 -57 -22 -80 -22c-34 0 -83 25 -83 89c0 16 3 43 9 73c10 46 22 89 22 119c0 19 -3 36 -19 50c-10 10 -34 18 -65 18c-9 0 -14 2 -14 5c1 4 7 11 14 16c6 6 14 10 23 11c49 5 81 24 80 77c0 25 -3 45 -6 64c-6 31 -11 63 -11 88c0 68 58 113 136 113z
" />
    <glyph glyph-name="bar" unicode="|" horiz-adv-x="226" 
d="M85 750h56v-1000h-56v1000z" />
    <glyph glyph-name="braceright" unicode="}" horiz-adv-x="329" 
d="M150 608h1c54 0 73 -44 72 -91c0 -28 -9 -69 -25 -117c-11 -35 -17 -61 -17 -74c-1 -44 42 -55 97 -63c10 -2 9 -8 1 -15c-8 -6 -20 -13 -35 -17c-66 -18 -74 -48 -52 -125c6 -24 13 -44 12 -70c-1 -56 -34 -98 -69 -123c-33 -23 -70 -31 -99 -31c-12 0 -16 3 -16 6
c0 4 4 8 11 14s14 11 22 11c45 1 88 34 88 92c0 14 -3 34 -10 59c-6 23 -12 45 -12 63c0 41 36 85 54 101c8 7 6 11 -1 14c-26 10 -52 25 -51 71c0 14 5 42 15 74c17 50 26 86 25 112c0 20 -4 40 -13 53c-13 17 -40 23 -66 19c-13 -2 -18 0 -17 4c0 4 8 10 27 19
c25 11 42 14 58 14z" />
    <glyph glyph-name="asciitilde" unicode="~" horiz-adv-x="483" 
d="M309 118h-1c-31 0 -61 21 -102 55c-33 28 -50 37 -66 37c-20 0 -46 -14 -65 -71c-4 -11 -15 -21 -24 -25c-7 -3 -7 -1 -6 10c4 40 53 145 120 145c33 0 60 -27 95 -55c30 -24 52 -38 76 -38c33 0 57 31 71 69c3 8 14 20 24 26c8 5 8 2 7 -11c-8 -61 -64 -142 -129 -142z
" />
    <glyph glyph-name="exclamdown" unicode="&#xa1;" horiz-adv-x="213" 
d="M129 218h1c10 0 13 -18 11 -49c-6 -72 -9 -159 -11 -219c-1 -28 4 -44 8 -50c5 -5 4 -6 -2 -11c-8 -8 -64 -34 -75 -34c-18 0 -18 33 -14 62c6 37 27 171 31 205c4 30 -1 44 -8 49c-4 3 -4 5 1 11c10 11 45 36 58 36zM127 382h1c9 0 38 -38 38 -55c0 -18 -34 -45 -51 -55
c-15 -7 -18 -6 -24 6c-4 11 -15 29 -27 44c-9 10 -4 20 20 39c22 16 35 21 43 21z" />
    <glyph glyph-name="cent" unicode="&#xa2;" horiz-adv-x="419" 
d="M53 200v1c0 112 98 183 193 218c8 3 11 5 12 11c1 19 5 50 3 59c-2 6 -2 11 4 16c10 10 28 22 33 22c9 0 2 -32 -4 -89c-1 -7 1 -7 6 -6c8 1 16 2 27 2c23 0 53 -8 53 -32c0 -10 -11 -24 -23 -34c-8 -6 -11 -6 -14 2c-6 13 -28 24 -46 24c-6 0 -8 -4 -9 -11
c-6 -57 -23 -178 -33 -243c-2 -9 1 -11 7 -10c60 5 102 39 118 54c7 5 9 2 9 -4c-1 -5 -8 -22 -18 -32c-18 -18 -58 -46 -114 -61c-9 -2 -11 -5 -13 -15c-9 -52 -10 -68 -3 -77c4 -6 -1 -9 -8 -16c-13 -11 -28 -18 -33 -18c-9 0 -7 21 -4 40c3 17 5 30 11 67
c2 10 1 13 -8 13c-77 0 -146 36 -146 119zM126 236v-1c0 -58 27 -94 81 -102c7 -2 10 0 11 10c11 64 26 167 35 237c0 8 -2 10 -10 8c-65 -19 -117 -82 -117 -152z" />
    <glyph glyph-name="sterling" unicode="&#xa3;" horiz-adv-x="419" 
d="M296 514h1c28 0 54 -17 54 -36c0 -11 -16 -28 -26 -35c-7 -4 -9 -4 -12 1c-10 16 -36 27 -57 27s-42 -16 -55 -52c-12 -29 -16 -91 -18 -128c0 -9 0 -11 6 -11c7 -1 23 -3 45 -5c20 -2 46 -3 66 -3c18 0 34 1 44 4c8 2 8 -5 -3 -15c-19 -16 -47 -27 -88 -27
c-26 0 -54 2 -65 3c-8 0 -9 -3 -10 -9c-7 -69 -22 -113 -73 -155c-7 -6 -4 -10 4 -10c19 0 57 -8 80 -13c25 -7 63 -14 94 -14c44 0 78 26 77 62c0 8 -1 18 -3 26c-2 7 0 15 8 24c8 10 19 19 26 19c8 0 14 -16 14 -35c0 -41 -33 -85 -67 -113c-34 -27 -73 -41 -108 -41
c-31 0 -75 15 -107 25c-29 10 -43 14 -56 14c-17 0 -34 -11 -45 -23c-5 -7 -10 -12 -14 -11c-5 1 -8 10 -3 20c6 20 27 36 42 52c43 45 56 85 56 175c1 7 -1 10 -8 10c-33 2 -71 -2 -85 -11c-6 -4 -11 0 -3 11c19 25 57 39 91 40c7 0 9 3 9 12c7 80 37 130 65 159
c32 33 83 63 124 63z" />
    <glyph glyph-name="fraction" unicode="&#x2044;" horiz-adv-x="125" 
d="M287 555h1c6 0 5 -6 -2 -20c-45 -81 -313 -442 -395 -534c-24 -27 -62 -51 -74 -51c-10 0 -9 6 0 17c99 115 280 356 369 487c18 27 36 54 43 70c4 9 11 12 21 17c12 7 32 14 37 14z" />
    <glyph glyph-name="yen" unicode="&#xa5;" horiz-adv-x="419" 
d="M88 511h1c24 0 54 -9 86 -58c32 -48 44 -104 47 -119c3 -10 6 -9 9 -1c25 54 82 128 130 165c20 14 43 22 52 22c17 0 19 -7 8 -19c-15 -19 -33 -39 -43 -39c-12 -1 -23 -4 -42 -23c-43 -44 -72 -101 -87 -150c-2 -8 -1 -10 7 -11c35 -3 65 -6 97 -2c11 1 8 -6 -1 -13
c-25 -23 -60 -24 -103 -21c-7 1 -9 -1 -10 -7c-2 -12 -4 -27 -6 -52c-1 -9 1 -10 8 -11c48 -2 99 -6 120 2c9 4 9 -3 1 -11c-27 -29 -56 -32 -124 -28c-8 0 -10 -1 -11 -9c-2 -31 -3 -62 -3 -70c0 -7 1 -16 6 -22c3 -6 5 -8 0 -14c-11 -12 -49 -33 -65 -33
c-10 0 -14 9 -13 28c0 15 5 71 9 112c1 9 0 10 -10 11c-49 3 -83 6 -105 0c-10 -3 -9 5 1 12c37 29 64 27 110 25c8 -1 10 1 10 10c2 23 4 41 4 52c0 7 -2 8 -9 9c-38 3 -85 2 -101 -2c-9 -3 -13 1 -2 11c32 28 54 30 105 28c6 0 7 1 6 8c-7 71 -59 172 -125 174
c-15 1 -29 -4 -37 -7s-9 7 0 15c20 18 51 38 80 38z" />
    <glyph glyph-name="florin" unicode="&#x192;" horiz-adv-x="419" 
d="M361 542h1c20 0 40 -10 40 -24c0 -10 -18 -24 -28 -30c-7 -5 -11 -6 -16 -2c-9 9 -23 14 -34 14c-22 0 -39 -15 -51 -47c-13 -35 -20 -75 -30 -156c-1 -9 -1 -12 4 -12c37 -3 88 -4 128 -5c13 0 11 -5 -1 -13c-32 -21 -86 -25 -129 -24c-7 0 -9 -2 -10 -10
c-5 -30 -10 -73 -21 -130c-22 -115 -71 -170 -116 -205c-31 -24 -69 -42 -101 -42c-31 0 -53 33 -56 56c-3 11 1 17 8 11c15 -13 50 -26 84 -26c32 0 61 23 80 75c14 42 31 135 46 262c1 8 0 10 -7 10c-36 1 -59 1 -75 -4c-7 -2 -13 -3 -17 -3c-5 0 -2 7 6 16
c17 15 57 30 91 32c7 0 10 3 11 9c16 100 45 165 117 217c30 23 57 31 76 31z" />
    <glyph glyph-name="section" unicode="&#xa7;" horiz-adv-x="371" 
d="M252 499h1c22 0 41 -14 41 -27c0 -9 -12 -23 -24 -32c-6 -4 -11 -4 -14 -1c-10 11 -28 16 -46 16c-38 0 -66 -29 -66 -69c-1 -43 59 -81 92 -102c48 -32 84 -64 84 -125c0 -59 -34 -99 -43 -113c-6 -7 -6 -11 -4 -17c3 -6 6 -17 6 -33c-1 -62 -61 -109 -90 -127
c-31 -19 -59 -27 -83 -27c-30 0 -77 17 -77 47c0 12 13 27 25 36c9 8 12 6 15 -1c11 -22 44 -39 73 -39c45 0 85 29 85 77c0 34 -20 55 -67 89c-52 38 -114 80 -114 156c0 41 22 78 47 110c5 7 5 10 4 15c-2 5 -2 14 -2 22c1 44 30 85 77 117c22 14 55 28 80 28zM276 112v1
c0 45 -21 76 -76 114c-32 21 -67 48 -83 66c-5 5 -8 6 -12 0c-11 -13 -16 -30 -16 -50c0 -43 37 -82 79 -112c40 -29 66 -49 82 -66c4 -4 8 -5 12 0c9 11 14 33 14 47z" />
    <glyph glyph-name="currency" unicode="&#xa4;" horiz-adv-x="419" 
d="M239 391h1c22 0 50 -11 57 -16c6 -5 11 -6 17 1c21 22 54 48 85 54c17 3 17 -4 6 -16c-12 -13 -52 -59 -63 -76c-4 -7 -3 -13 0 -21c5 -11 12 -34 12 -53c0 -38 -16 -73 -37 -98c-4 -5 -5 -9 0 -15c9 -10 39 -45 46 -56c10 -12 10 -24 5 -34c-5 -7 -11 -16 -19 -23
c-7 -6 -11 -4 -18 8c-8 14 -40 49 -52 60c-10 8 -16 9 -25 5c-19 -9 -41 -18 -61 -18c-18 0 -37 5 -53 11c-11 5 -19 1 -29 -6c-20 -13 -61 -50 -74 -58c-9 -6 -12 -6 -12 1c0 10 3 26 10 36c10 15 33 43 41 51c6 6 5 13 1 19c-10 12 -19 38 -19 65c0 48 22 82 48 111
c6 7 7 12 3 19c-11 15 -43 45 -56 53c-7 4 -10 8 -3 16c5 7 15 15 21 20c7 5 15 5 26 -3c27 -18 49 -45 57 -53c6 -6 13 -5 19 -3c12 7 43 19 66 19zM209 351h-1c-55 0 -96 -59 -96 -113c0 -60 49 -104 100 -104c57 0 86 46 86 102c0 53 -26 115 -89 115z" />
    <glyph glyph-name="quotesingle" unicode="'" horiz-adv-x="139" 
d="M99 616h1c17 0 19 -33 17 -52c-3 -24 -13 -72 -29 -119c-6 -18 -26 -36 -37 -43c-9 -7 -14 -4 -12 12c3 26 7 78 7 112c0 20 -1 40 -6 48c-5 7 -1 14 26 29c15 9 26 13 33 13z" />
    <glyph glyph-name="quotedblleft" unicode="&#x201c;" horiz-adv-x="317" 
d="M81 407h-1c-21 0 -40 27 -40 60c0 69 59 125 115 149c19 8 25 -4 14 -12c-40 -31 -63 -63 -63 -99c0 -28 14 -43 26 -50c7 -4 3 -15 -19 -32c-14 -11 -25 -16 -32 -16zM213 407h-1c-21 0 -40 27 -40 60c0 69 58 125 114 149c17 7 25 -4 13 -13c-39 -30 -61 -62 -61 -98
c0 -28 13 -42 26 -50c6 -4 3 -15 -19 -32c-14 -11 -25 -16 -32 -16z" />
    <glyph glyph-name="guillemotleft" unicode="&#xab;" horiz-adv-x="434" 
d="M110 194v-1c0 -10 10 -25 22 -41c29 -37 55 -61 94 -88c7 -5 6 -10 -1 -16c-6 -6 -12 -10 -20 -15s-20 -5 -30 0c-39 21 -101 85 -124 128c-8 15 -4 26 7 39s55 57 94 89c39 31 79 49 90 49c9 0 7 -16 -17 -33c-34 -27 -64 -50 -99 -83c-9 -8 -16 -18 -16 -28zM265 200
v-1c0 -6 11 -23 29 -39c17 -17 65 -57 91 -74c11 -7 8 -13 0 -19c-5 -4 -10 -9 -17 -14c-9 -6 -18 -4 -25 -2c-28 10 -121 92 -139 123c-6 10 -4 19 4 28c33 39 115 101 152 124c10 7 26 8 30 7c6 -2 -2 -12 -13 -23s-88 -76 -99 -87c-9 -10 -13 -18 -13 -23z" />
    <glyph glyph-name="guilsinglleft" unicode="&#x2039;" horiz-adv-x="289" 
d="M112 194v-1c0 -10 10 -25 22 -40c29 -37 53 -61 92 -87c7 -5 8 -11 1 -17c-6 -6 -13 -11 -21 -15c-8 -5 -19 -5 -29 0c-39 21 -101 84 -124 127c-8 16 -4 26 7 39c11 14 55 58 94 89s78 50 89 50c12 0 4 -19 -16 -34c-29 -22 -72 -57 -99 -83c-9 -8 -16 -18 -16 -28z" />
    <glyph glyph-name="guilsinglright" unicode="&#x203a;" horiz-adv-x="300" 
d="M109 329h1c15 0 51 -30 91 -72c35 -37 46 -54 51 -62c4 -10 3 -17 -6 -27c-25 -29 -121 -109 -153 -132c-18 -12 -37 -12 -46 -9c-8 3 -5 7 6 17c22 19 113 102 125 119c7 9 8 15 4 23c-6 11 -65 79 -100 102c-12 7 -13 10 -9 16c4 10 26 25 36 25z" />
    <glyph glyph-name="endash" unicode="&#x2013;" horiz-adv-x="500" 
d="M140 231h1c88 0 185 -3 275 -3c21 0 34 0 46 1c8 1 9 -3 3 -10c-32 -32 -52 -39 -94 -39c-86 0 -173 1 -259 1c-35 0 -53 -1 -65 -3c-7 0 -10 3 -3 11c26 27 51 42 96 42z" />
    <glyph glyph-name="dagger" unicode="&#x2020;" horiz-adv-x="403" 
d="M225 473h1c16 0 14 -39 13 -66c-1 -32 -6 -99 -7 -114c-1 -6 0 -9 8 -9c42 -2 99 -4 128 -1c13 2 15 -3 1 -15c-36 -31 -69 -30 -134 -30c-8 0 -10 -2 -11 -11c-4 -34 -15 -143 -21 -260c-2 -29 5 -56 13 -66c4 -5 1 -9 -12 -17c-14 -10 -29 -17 -36 -17
c-8 0 -15 5 -13 64c3 73 7 206 14 298c0 8 -1 10 -8 11c-42 3 -101 6 -127 -4c-9 -2 -10 4 0 14c29 31 49 37 131 37c7 -1 9 3 9 12c3 44 6 120 -3 135c-4 6 -5 10 1 15c13 10 44 24 53 24z" />
    <glyph glyph-name="daggerdbl" unicode="&#x2021;" horiz-adv-x="426" 
d="M227 472h1c7 0 8 -4 11 -16c6 -21 1 -93 -1 -129c-1 -7 2 -9 8 -9c41 -3 103 -8 132 -2c10 1 10 -4 1 -14c-24 -27 -46 -32 -139 -29c-6 0 -7 -3 -8 -13c-2 -24 -8 -99 -9 -108c-1 -7 3 -8 10 -9c52 -6 127 -10 161 0c7 1 4 -8 -3 -15c-32 -34 -92 -34 -165 -30
c-6 0 -8 -2 -9 -10c-1 -14 -10 -85 -10 -130c0 -25 7 -48 13 -57c3 -4 2 -7 -4 -12c-10 -10 -31 -22 -39 -22c-6 0 -11 3 -14 13c-4 14 -4 47 -2 101c3 54 5 95 6 111c0 7 -1 9 -8 9c-39 3 -98 5 -126 -10c-7 -3 -11 -2 -10 4c2 6 7 17 27 32c24 18 59 19 109 19
c8 0 10 1 12 10c4 52 6 99 6 111c1 8 -1 10 -8 11c-41 3 -94 6 -124 -3c-9 -2 -10 2 -2 11c29 31 71 38 129 36c7 0 9 2 9 10c3 60 2 96 -5 107c-4 6 -3 8 3 13c10 9 41 20 48 20z" />
    <glyph glyph-name="periodcentered" unicode="&#xb7;" horiz-adv-x="166" 
d="M100 247h1c4 0 9 -8 13 -17c5 -11 17 -32 22 -39c7 -10 4 -16 -4 -24c-9 -8 -48 -40 -60 -40c-14 0 -33 36 -38 48c-6 15 -2 25 19 45s42 27 47 27z" />
    <glyph glyph-name="paragraph" unicode="&#xb6;" horiz-adv-x="452" 
d="M48 219v1c0 119 81 160 133 178c22 8 67 18 81 20c6 1 7 4 8 8c2 11 33 30 44 30c6 0 8 -12 9 -26c0 -7 2 -10 8 -11c24 -3 73 -5 93 1c8 3 10 -2 2 -13c-21 -27 -58 -30 -96 -29c-5 0 -7 -3 -7 -10c0 -11 1 -27 1 -56c0 -39 -3 -126 -5 -180c-1 -5 2 -7 8 -5
c15 5 24 9 31 13c12 7 9 -6 0 -18c-10 -13 -30 -25 -37 -29c-4 -2 -6 -6 -7 -14c-4 -48 -18 -107 -40 -150c-30 -57 -91 -114 -165 -114c-42 0 -73 25 -73 54c0 12 4 27 8 36s8 10 12 2c14 -27 51 -45 85 -45c40 0 88 23 113 109c10 34 15 77 15 99c0 7 -2 7 -9 4
c-15 -4 -43 -8 -66 -8c-88 0 -146 58 -146 153zM254 113h2c9 0 15 -1 17 11c1 15 7 116 4 177l-3 62c0 10 -3 15 -7 16c-6 2 -12 3 -19 3c-48 0 -59 -82 -58 -135c0 -49 10 -134 64 -134z" />
    <glyph glyph-name="bullet" unicode="&#x2022;" horiz-adv-x="304" 
d="M183 302h1c6 0 14 -12 21 -29c11 -25 28 -59 42 -80c12 -18 7 -24 -6 -37c-18 -19 -90 -74 -113 -74c-22 0 -70 77 -73 101c-3 16 1 34 40 68c37 34 75 51 88 51z" />
    <glyph glyph-name="quotesinglbase" unicode="&#x201a;" horiz-adv-x="166" 
d="M98 113h1c21 0 36 -26 36 -62c0 -73 -64 -139 -120 -163c-18 -8 -29 -1 -15 10c38 30 64 73 64 113c0 28 -10 42 -19 49c-9 6 -4 18 19 36c15 12 26 17 34 17z" />
    <glyph glyph-name="quotedblbase" unicode="&#x201e;" horiz-adv-x="310" 
d="M100 113h1c21 0 36 -27 36 -62c0 -74 -64 -139 -120 -164c-18 -7 -29 1 -16 12c35 27 65 72 65 113c0 27 -10 40 -20 48c-8 6 -3 18 20 36c15 12 26 17 34 17zM239 113h1c21 0 36 -27 36 -62c0 -74 -64 -139 -120 -164c-18 -7 -29 1 -16 12c35 27 65 72 65 113
c0 27 -10 41 -20 48c-8 6 -3 18 20 36c15 12 26 17 34 17z" />
    <glyph glyph-name="quotedblright" unicode="&#x201d;" horiz-adv-x="317" 
d="M110 614h1c21 0 40 -27 40 -60c0 -69 -58 -126 -114 -150c-20 -8 -26 4 -12 15c37 27 60 60 60 96c0 29 -16 43 -26 50c-6 5 -3 15 19 32c14 11 25 17 32 17zM242 614h1c21 0 40 -28 40 -61c0 -68 -58 -125 -115 -149c-15 -7 -27 3 -12 15c37 27 61 60 61 96
c0 30 -15 43 -26 51c-6 4 -4 14 19 31c14 11 25 17 32 17z" />
    <glyph glyph-name="guillemotright" unicode="&#xbb;" horiz-adv-x="455" 
d="M110 329h1c16 0 51 -30 92 -72c35 -37 46 -55 51 -63c4 -10 2 -16 -7 -26c-25 -29 -120 -109 -151 -132c-18 -12 -39 -12 -47 -9c-7 3 -5 7 8 18c15 13 110 101 123 118c6 9 8 15 3 23c-6 11 -59 77 -96 100c-14 8 -17 12 -15 16c4 10 28 27 38 27zM288 316h1
c16 0 41 -25 64 -48c23 -24 49 -58 53 -66c5 -8 4 -17 -5 -26c-8 -9 -73 -72 -138 -118c-14 -10 -26 -15 -33 -15s-15 2 -14 7c-1 5 7 14 18 23c12 9 75 63 99 90c11 13 13 20 8 29c-15 25 -47 66 -78 88c-11 7 -16 11 -3 22c9 7 21 14 28 14z" />
    <glyph glyph-name="ellipsis" unicode="&#x2026;" horiz-adv-x="712" 
d="M336 -14h-1c-12 0 -26 23 -31 35c-7 14 -5 28 6 40c10 13 29 25 43 31c12 6 18 4 23 -6c6 -11 15 -26 25 -40c9 -12 0 -25 -21 -41c-20 -15 -35 -19 -44 -19zM106 -14h-1c-16 0 -41 24 -41 54c0 12 5 21 18 32c15 14 35 21 45 21c5 0 9 -5 13 -15c3 -12 12 -33 20 -43
s6 -16 -9 -27c-14 -11 -34 -22 -45 -22zM579 -14h-1c-16 0 -41 24 -41 54c1 11 3 19 16 30c13 13 37 23 48 23c6 0 10 -4 13 -15c4 -13 12 -33 19 -44c7 -10 5 -16 -9 -27c-14 -9 -36 -21 -45 -21z" />
    <glyph glyph-name="perthousand" unicode="&#x2030;" horiz-adv-x="921" 
d="M236 506h1c21 0 32 -11 39 -19c5 -6 11 -10 18 -14c14 -6 34 -10 57 -10c67 0 119 16 138 38c6 7 12 14 12 18c2 10 2 11 13 18c11 8 32 17 41 17c8 0 6 -12 -1 -27c-9 -19 -39 -60 -77 -112c-29 -38 -121 -152 -169 -208c-70 -83 -137 -164 -152 -183
c-10 -14 -21 -31 -18 -40c2 -8 -1 -12 -9 -17c-9 -6 -36 -14 -44 -14c-7 0 -10 4 -10 10c0 7 9 23 17 35c11 17 53 70 118 143c78 89 202 241 245 306c4 7 -1 10 -9 6c-42 -19 -109 -28 -142 -23c-10 1 -13 -1 -12 -8v-17c-1 -89 -59 -146 -93 -170c-26 -19 -58 -30 -79 -30
c-54 0 -79 47 -79 98c0 78 42 138 98 171c15 8 13 -9 6 -16c-32 -32 -45 -69 -45 -121c0 -62 30 -89 58 -89c19 0 42 14 56 38c11 19 22 62 22 96c0 29 -4 85 -42 85c-7 0 -13 -1 -18 -3c-6 -1 -7 7 1 14c13 13 37 28 59 28zM538 293h1c51 0 64 -59 64 -98
c0 -101 -65 -160 -102 -184c-24 -15 -48 -24 -69 -24c-42 0 -84 22 -84 99c0 62 29 110 54 131c17 16 31 24 39 28c14 6 15 -7 6 -16c-22 -20 -38 -62 -38 -112c0 -66 33 -89 58 -89c53 0 77 78 77 135c0 56 -19 87 -43 89c-8 1 -18 0 -23 -2c-7 -3 -12 4 -3 13
c13 13 37 30 63 30zM815 293h1c51 0 64 -59 64 -98c0 -101 -65 -160 -102 -184c-24 -15 -48 -24 -69 -24c-42 0 -84 22 -84 99c0 62 29 110 54 131c17 16 31 24 39 28c14 6 15 -7 6 -16c-22 -20 -38 -62 -38 -112c0 -66 33 -89 58 -89c53 0 77 78 77 135c0 56 -19 87 -43 89
c-8 1 -18 0 -23 -2c-7 -3 -12 4 -3 13c13 13 37 30 63 30z" />
    <glyph glyph-name="questiondown" unicode="&#xbf;" horiz-adv-x="314" 
d="M118 -145h-1c-41 0 -83 33 -83 78c0 50 46 89 83 129c30 33 44 61 44 80c0 14 -8 27 -22 29c-7 1 -13 1 -20 1c-11 -2 -3 12 12 22s34 18 53 18c24 0 44 -18 44 -46c0 -16 -8 -33 -20 -52c-15 -22 -38 -52 -64 -86c-22 -30 -27 -49 -27 -70c0 -23 24 -46 51 -46
c37 0 76 23 108 51c10 9 10 -12 0 -24c-14 -19 -44 -45 -75 -62c-26 -15 -54 -22 -83 -22zM191 380h1c20 0 44 -33 44 -55c0 -18 -47 -56 -72 -56c-5 0 -8 5 -12 16c-4 14 -13 29 -19 37c-6 9 -6 16 7 29c12 12 38 29 51 29z" />
    <glyph glyph-name="grave" unicode="`" horiz-adv-x="300" 
d="M117 572h1c4 0 7 -5 8 -12c2 -7 4 -15 9 -25c11 -28 41 -73 55 -93c9 -9 8 -13 0 -17c-8 -3 -15 -2 -24 3c-27 13 -74 54 -89 79c-6 9 -10 18 -10 26c0 14 16 26 26 32c8 5 18 7 24 7z" />
    <glyph glyph-name="acute" unicode="&#xb4;" horiz-adv-x="300" 
d="M260 572h1c14 0 9 -13 2 -24c-17 -26 -60 -73 -85 -95c-16 -13 -35 -21 -50 -24c-14 -4 -14 4 -4 16s48 72 58 97c5 10 12 14 24 18c16 6 42 12 54 12z" />
    <glyph glyph-name="circumflex" unicode="&#x2c6;" horiz-adv-x="300" 
d="M169 572h1c6 0 13 -7 21 -17c7 -10 21 -31 32 -56c13 -28 17 -38 17 -45c0 -6 -5 -13 -14 -20c-7 -5 -14 -8 -17 -8c-4 0 -6 3 -8 11c-3 9 -13 31 -26 55c-5 8 -9 14 -13 14c-3 0 -7 -4 -13 -11c-9 -11 -40 -45 -51 -54c-9 -7 -20 -11 -26 -11c-3 0 -7 1 -9 4s2 10 11 19
c17 20 64 90 74 103c7 10 13 16 21 16z" />
    <glyph glyph-name="tilde" unicode="&#x2dc;" horiz-adv-x="300" 
d="M125 546h1c18 0 32 -20 45 -35c11 -12 22 -21 30 -21c12 0 24 13 33 30c3 6 7 12 12 17c5 6 7 8 10 8s5 -5 5 -11c-2 -35 -38 -92 -78 -92c-18 0 -33 15 -49 32c-12 14 -20 19 -26 19c-12 0 -29 -25 -35 -34s-13 -13 -17 -13s-7 6 -3 18c9 24 41 82 72 82z" />
    <glyph glyph-name="macron" unicode="&#xaf;" horiz-adv-x="300" 
d="M125 508h1c36 0 79 -2 116 -2c6 0 8 -4 2 -14c-16 -24 -33 -31 -63 -31c-35 1 -90 1 -115 -1c-7 -1 -9 2 -4 12c15 24 34 36 63 36z" />
    <glyph glyph-name="breve" unicode="&#x2d8;" horiz-adv-x="300" 
d="M156 488h1c29 0 49 19 61 46c5 11 17 21 26 21c4 0 6 -6 2 -18c-6 -27 -34 -65 -57 -81c-16 -11 -34 -18 -57 -18c-40 0 -69 30 -69 70c0 20 16 37 33 46c9 4 11 1 11 -7c-1 -40 20 -59 49 -59z" />
    <glyph glyph-name="dotaccent" unicode="&#x2d9;" horiz-adv-x="300" 
d="M178 555h1c6 0 6 -4 6 -15c-2 -17 3 -35 12 -45c7 -9 4 -12 -3 -18c-10 -8 -37 -25 -47 -25c-11 0 -39 21 -39 62c0 12 56 41 70 41z" />
    <glyph glyph-name="dieresis" unicode="&#xa8;" horiz-adv-x="300" 
d="M230 550h1c5 0 10 -4 16 -13c5 -8 14 -24 20 -31c6 -6 7 -12 -1 -21c-10 -11 -35 -27 -48 -27s-35 20 -37 39c-3 14 9 26 23 39c13 11 22 14 26 14zM87 548h1c8 0 14 -6 21 -13c5 -6 10 -11 14 -17c4 -4 6 -10 4 -17c-3 -16 -32 -43 -53 -43c-14 0 -37 26 -37 41
c0 19 39 49 50 49z" />
    <glyph glyph-name="ring" unicode="&#x2da;" horiz-adv-x="300" 
d="M171 590h1c38 0 59 -31 59 -68c0 -50 -50 -93 -97 -93c-22 0 -62 16 -62 65s52 96 99 96zM151 555h-1c-23 0 -39 -19 -39 -45c0 -28 19 -45 41 -45c27 0 39 17 39 44c0 20 -11 46 -40 46z" />
    <glyph glyph-name="cedilla" unicode="&#xb8;" horiz-adv-x="300" 
d="M207 -134v-1c0 -54 -92 -95 -122 -95c-9 0 -17 5 -15 10c1 6 8 13 16 16c26 8 64 23 64 50c0 15 -20 31 -43 50c-9 8 -14 17 -14 25s3 15 11 25c22 29 48 54 65 66c11 9 19 13 29 13c5 0 5 -5 1 -9c-16 -15 -48 -50 -48 -63c1 -9 4 -15 14 -24c24 -20 42 -35 42 -63z" />
    <glyph glyph-name="hungarumlaut" unicode="&#x2dd;" horiz-adv-x="300" 
d="M312 566h1c10 0 8 -8 1 -21c-17 -28 -53 -72 -80 -96c-15 -14 -35 -23 -45 -24s-14 3 -3 16c9 11 51 76 56 97c3 8 9 13 21 16c16 5 39 12 49 12zM189 566h1c10 0 7 -10 0 -21c-16 -27 -53 -72 -79 -96c-16 -14 -35 -23 -46 -24c-10 -1 -12 4 -2 15c9 12 50 77 56 97
c3 8 12 14 22 16c13 4 39 13 48 13z" />
    <glyph glyph-name="ogonek" unicode="&#x2db;" horiz-adv-x="300" 
d="M109 -251h-1c-35 0 -67 27 -67 72c0 75 96 159 152 197c15 11 36 10 25 0c-64 -55 -108 -116 -108 -162c0 -33 26 -46 45 -46c30 0 63 12 88 33c8 7 12 -6 1 -21c-30 -46 -84 -73 -135 -73z" />
    <glyph glyph-name="caron" unicode="&#x2c7;" horiz-adv-x="300" 
d="M137 428h-1c-4 0 -7 6 -9 13c-10 31 -36 75 -54 95c-7 7 -7 11 -3 16c4 6 11 13 16 16c7 4 14 4 20 -2c15 -13 37 -44 43 -55c4 -8 8 -9 15 -1c16 17 47 46 67 59c11 8 21 7 21 2c0 -7 -4 -16 -12 -25c-29 -34 -62 -75 -83 -107c-6 -7 -12 -11 -20 -11z" />
    <glyph glyph-name="emdash" unicode="&#x2014;" horiz-adv-x="870" 
d="M139 231h1c89 0 550 -3 640 -3c22 0 35 1 46 1c7 0 9 -4 4 -9c-29 -29 -52 -40 -92 -40c-86 0 -538 1 -624 1c-35 0 -53 -1 -65 -3c-7 0 -10 3 -3 11c27 26 54 42 93 42z" />
    <glyph glyph-name="AE" unicode="&#xc6;" horiz-adv-x="722" 
d="M564 509h1c35 0 66 0 85 5c14 3 11 -7 -4 -18c-33 -23 -76 -30 -118 -30c-28 0 -57 1 -76 2c-8 0 -11 -2 -10 -9c2 -37 -3 -121 -7 -175c-1 -9 2 -11 11 -12c53 -5 97 -8 147 -6c40 2 64 7 79 11c8 3 12 -1 1 -11c-12 -13 -43 -34 -96 -41c-41 -5 -78 -3 -139 -2
c-8 0 -10 -3 -11 -13c-1 -24 -4 -42 -4 -83c0 -76 31 -89 128 -89c84 0 123 11 149 21c13 5 9 -6 -4 -18c-32 -26 -85 -49 -192 -49c-61 0 -94 6 -111 11c-16 6 -26 12 -32 26c-19 35 -8 113 -3 182c1 12 -1 15 -9 16c-10 2 -43 3 -69 3c-52 0 -81 -11 -105 -40
c-20 -23 -49 -65 -65 -100c-13 -29 -19 -54 -12 -65c4 -7 2 -9 -6 -15c-11 -8 -43 -21 -54 -21c-10 0 -14 6 -14 17c0 19 27 71 65 127c44 65 166 224 203 278c20 29 28 45 30 57c1 7 2 12 8 18c8 9 29 30 38 30c4 0 5 -3 8 -10c2 -4 5 -3 12 2c5 6 13 10 21 10
c11 0 22 -1 39 -3c26 -3 73 -6 116 -6zM354 274h1c8 0 9 3 11 14c4 36 8 122 6 158c0 7 -4 7 -10 -1c-33 -45 -98 -134 -124 -169c-7 -9 -5 -13 5 -11c16 5 62 9 111 9z" />
    <glyph glyph-name="ordfeminine" unicode="&#xaa;" horiz-adv-x="317" 
d="M204 453h1c29 0 48 -24 45 -72c-3 -29 -6 -77 -7 -106c-1 -25 5 -53 32 -53c8 0 20 3 28 8s13 -6 2 -16c-14 -14 -44 -31 -74 -31c-20 0 -37 16 -45 33c-2 5 -6 6 -11 2c-21 -12 -60 -30 -76 -30c-30 0 -60 17 -61 50c-1 25 26 45 46 56c29 17 60 25 93 35
c7 2 10 4 11 10c1 11 2 22 2 32c0 19 -6 42 -28 42c-25 0 -68 -27 -90 -36c-8 -3 -14 1 -9 9c6 12 13 23 26 29c23 11 88 38 115 38zM133 227h1c10 0 28 5 36 11s10 12 11 17c2 14 2 26 3 38c0 7 -3 8 -9 7c-17 -2 -41 -8 -56 -14s-24 -14 -24 -28c0 -19 18 -31 38 -31z" />
    <glyph glyph-name="Lslash" unicode="&#x141;" horiz-adv-x="452" 
d="M311 42h1c46 0 96 7 129 22c12 5 11 -6 -4 -19c-51 -43 -131 -51 -197 -51c-37 0 -61 2 -80 3c-8 1 -18 1 -27 -2c-8 -3 -20 -6 -27 -6c-5 0 -9 3 -13 13c-5 11 -6 25 -6 41c0 36 6 102 11 162c-28 -15 -53 -30 -75 -41c-11 -7 -13 -4 -8 9c8 17 17 34 29 42
c14 8 34 19 57 33c3 46 5 98 6 139c0 40 -1 83 -13 97c-4 5 -4 7 6 14c19 12 55 28 62 28c24 0 22 -60 22 -95c-1 -40 -4 -88 -7 -140c39 22 75 43 92 54c11 6 17 6 25 2c9 -4 19 -13 19 -17s-10 -11 -22 -17c-33 -19 -75 -43 -117 -66c-4 -54 -8 -111 -8 -139
c0 -42 16 -55 47 -60c26 -4 55 -6 98 -6z" />
    <glyph glyph-name="Oslash" unicode="&#xd8;" horiz-adv-x="599" 
d="M387 526h1c31 0 60 -8 78 -18c7 -4 8 -3 14 3c9 11 22 31 26 39c4 6 7 9 15 14c18 11 39 17 45 17c8 0 8 -5 3 -15c-8 -17 -36 -50 -55 -76c-5 -6 -5 -9 0 -15c40 -42 49 -91 49 -151c0 -91 -47 -168 -86 -212c-58 -68 -146 -126 -242 -126c-38 0 -75 7 -104 25
c-9 4 -10 4 -16 -3c-13 -15 -27 -31 -39 -41c-12 -12 -38 -25 -55 -25c-7 0 -8 6 4 21c15 17 17 18 57 65c7 8 6 11 0 17c-25 26 -46 77 -46 139c0 114 63 220 178 282c14 9 24 5 20 -3c-3 -6 -8 -11 -16 -18c-41 -34 -105 -100 -105 -232c0 -43 9 -79 26 -103
c4 -7 8 -5 15 3c88 105 187 224 270 327c5 6 5 10 -1 15c-20 17 -49 24 -83 24c-25 0 -54 -7 -71 -15c-9 -5 -12 6 0 17c31 28 76 45 118 45zM283 35h1c37 0 78 13 120 50c42 39 82 111 82 206c0 43 -7 90 -25 117c-4 7 -7 8 -12 3c-90 -110 -180 -219 -272 -328
c-6 -7 -6 -12 0 -17c34 -28 71 -31 106 -31z" />
    <glyph glyph-name="OE" unicode="&#x152;" horiz-adv-x="795" 
d="M376 526h1c45 0 69 -12 76 -16c5 -3 7 -3 11 1c6 7 13 9 21 9c10 0 73 -8 154 -8c64 0 81 -1 92 -3c9 -2 11 -7 -6 -17c-26 -16 -63 -24 -112 -24h-83c-6 0 -8 -3 -9 -13c-2 -36 -5 -104 -8 -151c-1 -8 2 -9 10 -10c48 -4 86 -7 129 -7c29 0 53 2 69 5c8 2 13 2 13 -2
c0 -9 -20 -23 -40 -32c-26 -12 -56 -16 -89 -16c-26 0 -63 1 -86 2c-6 0 -10 -2 -10 -12c-4 -53 -6 -109 -1 -143c3 -28 19 -39 47 -45c25 -5 57 -7 110 -7c46 0 91 7 120 18c11 4 14 -6 -4 -18c-23 -15 -78 -46 -163 -46c-39 0 -101 2 -131 7c-7 1 -11 1 -14 -2
c-7 -5 -11 -8 -15 -8c-9 0 -21 21 -25 41c-3 10 -8 10 -15 6c-50 -27 -98 -49 -161 -49c-134 0 -220 76 -220 212c0 155 112 252 212 298c36 16 83 30 127 30zM338 485h-1c-51 0 -97 -20 -126 -43c-40 -31 -94 -98 -94 -209c0 -151 111 -200 182 -200c41 0 85 9 116 30
c7 6 13 14 13 22c4 44 8 115 10 152c0 7 -1 10 -9 11c-9 2 -13 5 -5 15c13 18 17 30 18 41c3 37 8 128 5 157c-1 6 -3 7 -8 3s-10 -3 -15 1c-11 7 -37 20 -86 20z" />
    <glyph glyph-name="ordmasculine" unicode="&#xba;" horiz-adv-x="342" 
d="M226 452h1c57 0 85 -42 85 -100c-1 -69 -57 -120 -121 -148c-16 -7 -47 -16 -69 -16c-64 0 -93 44 -93 94c0 63 46 112 92 126c14 4 17 -4 7 -14c-26 -22 -36 -54 -36 -84c0 -43 24 -81 70 -81c55 0 86 47 86 102c0 39 -22 83 -68 83c-9 0 -17 -2 -25 -4c-8 -3 -8 7 4 16
c16 14 44 26 67 26z" />
    <glyph glyph-name="ae" unicode="&#xe6;" horiz-adv-x="546" 
d="M353 -13h-1c-38 0 -74 16 -102 62c-6 10 -11 10 -19 4c-33 -24 -93 -63 -130 -63c-41 0 -70 34 -71 69c0 24 13 47 25 58c35 34 114 63 160 76c16 4 21 8 22 20c1 17 3 41 2 61c-1 35 -12 62 -40 62c-34 0 -96 -42 -126 -58c-10 -5 -16 -4 -11 5c8 18 16 36 34 46
c24 13 116 59 148 59c38 0 52 -40 56 -72c0 -10 5 -10 11 -4c30 27 89 69 134 69c42 0 67 -35 67 -63c1 -42 -29 -68 -54 -87c-34 -26 -100 -53 -144 -66c-12 -3 -14 -8 -14 -29c1 -57 41 -94 98 -94c37 0 78 17 102 40c14 13 28 19 37 20c12 0 8 -7 -2 -21
c-31 -43 -116 -94 -182 -94zM403 335h-1c-52 0 -99 -80 -99 -126c0 -9 3 -11 11 -9c45 9 124 37 123 100c0 19 -12 35 -34 35zM141 42h1c21 0 46 12 70 32c17 14 21 24 21 35c-1 12 0 28 0 40c0 9 -2 12 -13 11c-18 -1 -52 -10 -75 -21c-34 -15 -43 -38 -43 -57
c0 -22 20 -40 39 -40z" />
    <glyph glyph-name="dotlessi" unicode="&#x131;" horiz-adv-x="233" 
d="M144 383h1c15 0 11 -65 8 -92c-4 -48 -13 -148 -13 -190c-1 -50 16 -62 32 -62c14 0 32 4 50 14c12 7 12 -12 -3 -23c-43 -32 -89 -45 -109 -45c-31 0 -45 39 -42 90c2 42 8 123 13 183c4 47 -1 68 -6 76c-3 4 -4 8 4 15c21 17 53 34 65 34z" />
    <glyph glyph-name="lslash" unicode="&#x142;" horiz-adv-x="238" 
d="M130 -10h-1c-14 0 -29 10 -39 25c-12 18 -17 55 -14 111c3 40 6 85 9 131c-21 -11 -42 -22 -56 -28c-9 -5 -11 -1 -6 12c7 19 15 33 26 40c12 6 25 13 39 21c6 82 11 162 13 218c2 49 0 75 -13 88c-5 5 -4 10 5 18c17 12 54 33 67 33c18 0 14 -79 12 -121
c-3 -59 -9 -129 -13 -198c27 16 56 31 75 44c7 5 9 3 9 -3c-1 -11 -16 -37 -33 -49c-13 -10 -32 -22 -54 -35c-3 -50 -6 -97 -7 -137c-2 -55 1 -83 10 -97c7 -13 19 -18 31 -18c15 0 36 6 51 12c8 4 12 -7 -3 -21c-24 -20 -77 -46 -108 -46z" />
    <glyph glyph-name="oslash" unicode="&#xf8;" horiz-adv-x="439" 
d="M408 241v-1c0 -76 -37 -129 -74 -166c-42 -42 -113 -84 -176 -84c-16 0 -33 4 -47 10c-7 2 -10 2 -15 -4c-8 -12 -23 -29 -31 -39c-11 -11 -31 -23 -48 -27c-11 -3 -9 4 0 15c17 23 22 30 53 69c3 6 3 9 -3 15c-18 16 -36 53 -36 102c0 71 33 130 80 168
c16 14 34 23 44 26c16 5 21 -5 10 -15c-38 -32 -65 -83 -65 -150c0 -30 6 -53 17 -69c3 -6 6 -6 12 2c55 74 108 146 162 221c5 6 3 9 -1 13c-9 6 -25 11 -41 11c-14 0 -31 -5 -43 -13c-12 -6 -14 5 -3 16c26 26 57 42 88 42c14 0 26 -2 35 -6c5 -3 8 -3 12 4
c14 21 20 32 28 41c8 8 33 16 43 16c6 0 7 -3 4 -8c-7 -13 -26 -41 -44 -67c-4 -6 -4 -10 1 -14c26 -25 38 -65 38 -108zM206 39h1c28 0 56 12 80 35c18 20 50 59 50 137c0 39 -8 64 -14 75c-3 7 -7 8 -11 1c-54 -74 -108 -145 -162 -219c-5 -7 -5 -11 0 -14
c13 -11 34 -15 56 -15z" />
    <glyph glyph-name="oe" unicode="&#x153;" horiz-adv-x="638" 
d="M287 383h1c58 0 85 -51 92 -68c4 -9 8 -11 14 -5c38 36 100 77 148 77c40 0 70 -23 70 -62c0 -86 -135 -132 -209 -152c-9 -3 -14 -8 -15 -39c0 -54 46 -94 107 -94c41 0 79 21 98 37c13 11 30 25 37 29c10 4 6 -14 -2 -26c-29 -46 -109 -95 -178 -95
c-52 0 -89 21 -115 67c-6 8 -10 9 -17 4c-21 -13 -96 -68 -155 -68c-30 0 -68 7 -96 36c-24 23 -37 62 -37 107c0 62 26 123 70 163c19 19 40 29 53 33c17 4 19 -7 5 -17c-24 -19 -56 -71 -56 -143c0 -41 10 -77 33 -102c23 -23 57 -29 75 -29c42 0 77 28 96 70
c13 26 21 66 21 107c-1 79 -36 123 -84 123c-15 0 -33 -5 -41 -8c-10 -5 -12 7 0 18c17 17 52 37 85 37zM502 343h-1c-55 0 -100 -72 -104 -124c-1 -11 1 -12 11 -10c47 7 133 44 133 99c0 19 -13 35 -39 35z" />
    <glyph glyph-name="germandbls" unicode="&#xdf;" horiz-adv-x="460" 
d="M337 640h1c50 0 84 -35 84 -78c0 -56 -42 -95 -85 -139c-29 -30 -40 -49 -40 -68c0 -25 24 -49 59 -74c49 -35 74 -70 74 -116c0 -57 -51 -110 -86 -131c-30 -22 -78 -48 -115 -48c-16 0 -39 5 -39 19c0 8 15 22 23 30c10 10 17 14 22 12c9 -5 24 -10 39 -10
c45 0 91 35 91 83c0 29 -11 51 -36 75c-23 22 -42 36 -66 54c-26 21 -36 42 -36 61c0 46 56 94 85 128c33 37 44 68 44 95c0 35 -27 64 -62 64c-46 0 -82 -37 -101 -78c-26 -54 -40 -150 -45 -353c-1 -54 -3 -108 10 -123c5 -5 2 -9 -4 -16c-14 -14 -51 -40 -64 -40
c-11 0 -18 17 -18 63c0 69 6 173 11 241c0 11 -3 17 -30 26c-7 2 -9 4 -3 11l28 28c7 7 12 13 13 25c8 70 40 151 123 211c50 37 94 48 123 48z" />
    <glyph glyph-name="onesuperior" unicode="&#xb9;" 
d="M150 302h-1c-10 0 -20 10 -21 32c-1 26 8 107 11 151c4 38 5 60 4 72c0 8 -2 9 -10 6c-23 -10 -59 -18 -70 -18c-6 0 -13 0 -20 2c-6 2 -7 5 -2 10c5 4 14 9 23 12c36 11 89 33 118 48c13 6 19 9 25 9c4 0 8 -1 8 -5s-3 -7 -5 -10c-3 -4 -3 -11 -3 -17
c0 -34 -6 -102 -11 -152c-2 -35 -4 -67 -3 -79c1 -13 6 -19 13 -19c4 -1 7 -3 7 -7c-1 -14 -48 -35 -63 -35z" />
    <glyph glyph-name="logicalnot" unicode="&#xac;" horiz-adv-x="529" 
d="M387 281h27c25 0 31 -27 30 -66c0 -18 -8 -108 -11 -132c-3 -22 -9 -33 -17 -39c-8 -4 -17 -8 -27 -11c-14 -4 -19 -4 -15 10c9 31 15 110 16 145c1 22 -2 31 -7 35c-5 7 -20 9 -38 10c-22 1 -91 3 -165 3c-59 0 -84 -4 -102 -8c-10 -3 -13 0 -5 10c7 12 26 35 46 40
c15 5 43 6 93 6c66 0 130 -3 175 -3z" />
    <glyph glyph-name="mu" unicode="&#xb5;" horiz-adv-x="493" 
d="M173 -12h-1c-12 0 -27 6 -35 18c-7 8 -13 6 -14 -6c-11 -99 -8 -152 -6 -180c1 -23 8 -30 13 -34c4 -4 4 -11 -3 -18c-12 -10 -49 -36 -63 -36c-16 0 -16 34 -13 87c6 85 25 289 29 397c3 70 4 94 3 105c0 9 4 18 18 31c30 19 49 29 58 29c11 0 6 -27 -4 -88
c-5 -34 -9 -93 -9 -148c0 -54 16 -97 57 -97c39 0 90 51 111 86c11 19 15 37 18 57c6 38 11 105 9 130c-2 19 8 28 21 38c19 13 44 23 53 23c6 0 8 -8 5 -22c-8 -33 -24 -175 -24 -242c0 -51 13 -80 37 -80c20 0 37 9 57 27c11 10 13 -5 4 -19c-14 -22 -70 -68 -122 -68
c-20 0 -38 24 -42 47c-3 17 -4 38 -5 54c-1 12 -5 12 -16 2c-44 -45 -112 -93 -136 -93z" />
    <glyph glyph-name="trademark" unicode="&#x2122;" horiz-adv-x="450" 
d="M78 344h-1c-4 0 -7 8 -7 18c0 29 10 87 12 120c1 6 0 7 -6 7c-26 0 -45 -6 -53 -13c-9 -7 -12 2 -2 11c16 17 34 27 73 27c16 0 34 -3 54 -5c17 -2 33 -3 47 -1c5 1 5 -5 -1 -10c-18 -13 -38 -16 -70 -12c-4 0 -5 0 -6 -3c-4 -24 -10 -69 -10 -94c0 -12 1 -18 3 -23
c2 -4 1 -7 -6 -12c-8 -5 -22 -10 -27 -10zM394 338h-1c-12 0 -27 15 -29 26c-2 9 -3 30 -2 46c1 19 1 24 1 40c0 8 -2 8 -7 3c-8 -10 -45 -62 -52 -73c-5 -8 -8 -14 -10 -18c-1 -4 -4 -10 -11 -14c-4 -4 -8 -5 -10 -5c-5 0 -9 11 -14 29c-7 24 -26 65 -28 73c-3 7 -6 7 -8 1
c-5 -12 -10 -30 -15 -46c-3 -12 -5 -26 -4 -31c0 -4 -1 -8 -6 -13c-7 -6 -21 -12 -25 -12c-5 0 -7 5 -3 17c7 18 20 48 27 69c8 20 12 34 15 46c2 12 4 18 8 22c4 5 26 17 30 17s4 -4 4 -9c-1 -9 0 -19 9 -46c13 -32 21 -46 25 -53c3 -6 6 -5 11 0c8 8 52 69 59 78
c7 10 30 26 41 29c5 2 7 -2 3 -8c-1 -3 -3 -8 -4 -23c-1 -13 -2 -39 -2 -69c-1 -41 14 -45 24 -45c14 0 30 9 39 16c6 4 7 -5 1 -12c-10 -12 -48 -35 -66 -35z" />
    <glyph glyph-name="Eth" unicode="&#xd0;" horiz-adv-x="608" 
d="M330 523h1c84 0 145 -25 185 -63c37 -36 57 -91 57 -148c0 -126 -65 -198 -126 -240c-77 -52 -162 -85 -242 -85c-30 0 -61 11 -82 50c-23 40 -16 118 -10 192c1 10 0 12 -8 13c-24 2 -65 3 -86 -4c-8 -3 -9 3 0 12c25 26 49 34 88 34c8 0 10 2 11 7c6 55 8 125 6 150
c0 8 -4 9 -12 6c-21 -6 -72 -33 -84 -40c-7 -3 -8 0 -4 9c3 7 10 17 19 25c8 7 27 19 65 34c6 3 9 4 12 7c3 2 7 5 10 8c8 11 42 28 50 28c5 0 9 -5 13 -11c2 -3 4 -4 11 -2c36 10 82 18 126 18zM289 482h-1c-34 0 -65 -6 -80 -11c-7 -2 -8 -4 -8 -10c0 -38 -4 -109 -8 -168
c-1 -9 0 -12 8 -12c23 -2 51 -4 78 -4c32 0 60 1 75 4c8 1 3 -8 -6 -16c-32 -26 -77 -31 -147 -28c-11 1 -13 -1 -14 -9c-5 -52 -11 -128 15 -159c17 -21 42 -31 77 -31c28 0 60 4 92 21c35 18 124 80 124 220c0 132 -88 203 -205 203z" />
    <glyph glyph-name="onehalf" unicode="&#xbd;" horiz-adv-x="722" 
d="M154 188h-1c-10 0 -20 10 -21 32c-1 26 8 108 11 151c4 38 5 60 4 72c0 8 -2 9 -10 6c-23 -10 -59 -18 -70 -18c-6 0 -13 0 -20 2c-6 2 -7 5 -2 10c5 4 14 9 23 12c36 11 89 33 118 48c13 6 19 9 25 9c4 0 8 -1 8 -5s-3 -7 -5 -10c-3 -4 -3 -11 -3 -17
c0 -34 -6 -102 -11 -152c-2 -35 -4 -66 -3 -79s6 -19 13 -19c4 -1 7 -3 7 -7c-1 -14 -48 -35 -63 -35zM568 555h1c5 0 4 -6 -2 -20c-46 -81 -314 -442 -396 -534c-24 -27 -62 -51 -74 -51c-9 0 -8 6 1 17c98 115 279 356 368 487c18 27 36 54 43 70c4 9 11 12 21 17
c12 7 32 14 38 14zM559 311h1c60 0 85 -41 85 -80c0 -64 -91 -116 -133 -156c-9 -7 -9 -13 -1 -14c7 -1 22 -5 36 -8c19 -5 47 -10 68 -10c20 0 42 9 58 25c6 6 11 8 15 6c4 -4 0 -15 -10 -27c-28 -33 -64 -56 -102 -56c-30 0 -87 18 -103 22c-11 2 -15 2 -19 2
c-23 0 -38 -21 -54 -21c-7 0 -7 11 1 21s49 45 63 56c47 38 107 93 107 141c0 28 -20 50 -53 50c-27 0 -64 -23 -78 -40c-7 -6 -13 -10 -16 -10s-5 3 -5 9c0 7 14 26 37 47c21 18 62 43 103 43z" />
    <glyph glyph-name="plusminus" unicode="&#xb1;" horiz-adv-x="550" 
d="M311 486h1c7 0 8 -23 8 -41c0 -21 -7 -88 -9 -118c-1 -8 2 -9 11 -9c58 -2 134 -7 173 1c9 2 10 -2 4 -11c-21 -29 -66 -38 -103 -38c-25 0 -66 1 -82 2c-8 0 -10 -3 -11 -11c-9 -76 -7 -126 2 -138c3 -5 1 -7 -7 -14c-12 -10 -29 -18 -38 -18c-10 0 -15 23 -14 54
c1 35 5 89 8 116c0 10 0 12 -8 12c-49 1 -133 6 -169 -5c-9 -3 -11 4 -3 13c29 31 63 41 121 40l51 -1c11 0 14 1 15 10c7 61 6 103 3 116c-2 8 0 10 14 21c12 10 26 19 33 19zM132 53h1c38 0 90 -2 160 -5c61 -2 120 -2 149 -2c30 0 48 2 59 3c11 2 12 -3 6 -11
c-23 -35 -65 -38 -121 -38c-68 0 -146 2 -209 4c-51 2 -107 3 -131 -2c-10 -2 -9 5 -2 15c20 26 50 36 88 36z" />
    <glyph glyph-name="Thorn" unicode="&#xde;" horiz-adv-x="429" 
d="M252 416h1c84 0 148 -35 149 -117c1 -86 -72 -134 -139 -166c-43 -21 -89 -30 -101 -31c-10 -1 -12 -3 -12 -10c-1 -30 -2 -63 15 -79c5 -4 4 -7 -5 -13c-12 -8 -43 -21 -58 -21c-29 0 -27 41 -27 76c1 51 6 120 13 208c8 116 9 198 -8 222c-4 5 -2 9 8 16
c17 14 51 33 59 33c25 0 22 -93 21 -119c0 -9 3 -8 9 -7c12 2 49 8 75 8zM325 272c-1 66 -49 107 -112 107c-15 0 -28 -2 -37 -4c-7 -2 -11 -5 -12 -15c-2 -53 -8 -154 -11 -200c-1 -9 3 -12 17 -13c94 -4 156 48 155 125z" />
    <glyph glyph-name="onequarter" unicode="&#xbc;" horiz-adv-x="722" 
d="M158 188h-1c-10 0 -20 10 -21 33c-1 25 8 107 11 150c4 38 5 60 4 72c0 8 -2 9 -10 6c-23 -10 -59 -18 -70 -18c-6 0 -13 0 -20 2c-6 2 -7 5 -2 10c5 4 14 9 23 12c36 11 89 33 118 48c13 6 19 9 25 9c4 0 8 -1 8 -5s-3 -7 -5 -10c-3 -4 -3 -11 -3 -17
c0 -34 -6 -102 -11 -152c-2 -35 -4 -66 -3 -78c1 -13 6 -19 13 -20c4 -1 7 -2 7 -7c-1 -14 -48 -35 -63 -35zM570 555h1c6 0 5 -6 -2 -20c-45 -81 -313 -442 -395 -534c-24 -27 -63 -51 -75 -51c-9 0 -8 6 1 16c99 116 280 357 369 488c18 27 36 54 43 70c4 9 11 12 21 17
c12 7 32 14 37 14zM583 225h1c13 0 11 -21 11 -37c0 -14 -3 -46 -6 -63c-1 -6 0 -8 4 -8c20 -1 48 -1 64 8c7 5 12 4 12 0c0 -5 -5 -10 -10 -16c-18 -17 -45 -25 -66 -26c-7 -1 -10 -2 -11 -8c-1 -5 -5 -26 -5 -41c0 -16 5 -21 12 -25c8 -5 6 -10 -1 -15
c-8 -7 -41 -22 -56 -22c-16 0 -20 17 -10 101c1 7 -2 8 -9 9s-54 7 -92 7c-19 0 -33 -3 -38 -8c-4 -3 -8 -4 -13 -4c-3 0 -6 2 -6 9s8 22 18 33c44 50 110 124 137 170c9 15 16 28 16 32c0 5 7 12 21 21c8 5 18 9 22 9c5 0 6 -3 6 -12c0 -15 -24 -50 -46 -78
c-32 -41 -87 -106 -103 -125c-5 -6 -6 -10 0 -10c27 0 60 -2 83 -5c6 0 9 1 11 8c1 10 4 24 4 36c0 13 -2 19 -4 24c-1 4 -1 8 4 12c8 7 38 24 50 24z" />
    <glyph glyph-name="divide" unicode="&#xf7;" horiz-adv-x="529" 
d="M275 372h1c6 0 13 -8 19 -14c13 -12 24 -19 24 -29c0 -18 -42 -48 -54 -48s-38 28 -38 43c0 8 6 16 17 27c16 16 27 21 31 21zM128 222h1c43 0 158 -5 206 -5c51 0 120 1 134 3c10 1 12 -3 3 -14c-27 -32 -77 -38 -147 -38c-86 0 -194 6 -267 4c-8 0 -10 4 -2 14
c19 23 39 36 72 36zM253 101h1c4 0 8 -6 13 -13c7 -10 17 -22 26 -31c4 -4 4 -10 -2 -18c-6 -11 -35 -29 -47 -29c-11 0 -28 15 -35 38c-4 14 4 24 19 38c13 12 22 15 25 15z" />
    <glyph glyph-name="brokenbar" unicode="&#xa6;" horiz-adv-x="226" 
d="M85 675h56v-350h-56v350zM85 -175v350h56v-350h-56z" />
    <glyph glyph-name="degree" unicode="&#xb0;" horiz-adv-x="289" 
d="M171 529h1c57 0 87 -46 87 -101c0 -56 -35 -92 -74 -116c-23 -14 -45 -19 -63 -19c-33 0 -90 25 -90 97c0 54 40 98 76 119c21 13 43 20 63 20zM150 487h-1c-43 0 -74 -39 -74 -81c0 -43 33 -70 72 -70c42 0 67 33 67 74c0 36 -14 77 -64 77z" />
    <glyph glyph-name="thorn" unicode="&#xfe;" horiz-adv-x="463" 
d="M338 383h1c44 0 95 -50 95 -132c0 -83 -42 -141 -94 -187c-53 -48 -126 -78 -198 -81c-9 -1 -11 -3 -13 -14c-2 -21 -5 -99 -6 -138c-1 -42 7 -60 17 -69c4 -3 5 -6 -6 -16c-13 -11 -49 -32 -65 -32c-23 0 -20 71 -14 135c3 41 14 246 21 356c7 125 10 279 6 331
c-3 41 -13 64 -21 70c-5 3 1 12 44 36c9 6 19 9 23 9c25 0 27 -99 26 -146c-2 -74 -5 -190 -5 -205c0 -10 4 -12 13 -5c15 10 69 46 104 65c30 16 52 23 72 23zM280 325h-1c-38 0 -89 -43 -114 -70c-12 -13 -18 -26 -20 -52c-2 -21 -8 -137 -8 -151c0 -11 3 -15 12 -18
c10 -2 24 -3 37 -3c51 0 100 19 130 55c20 24 42 65 42 129c0 57 -27 110 -78 110z" />
    <glyph glyph-name="threequarters" unicode="&#xbe;" horiz-adv-x="722" 
d="M203 506h1c32 0 66 -18 66 -56c0 -25 -24 -48 -51 -66c-7 -4 -12 -10 -12 -14s7 -7 18 -11c33 -13 66 -32 66 -70c0 -37 -36 -69 -86 -94c-32 -16 -73 -31 -105 -31c-24 0 -64 10 -65 36c0 14 26 34 38 34c4 0 6 -1 8 -6c10 -16 33 -27 57 -27c37 0 81 21 81 64
c0 22 -13 37 -31 48c-18 10 -34 11 -48 11c-10 0 -23 -2 -31 -3c-7 -1 -12 1 -12 6s9 17 23 24c31 15 78 33 78 79c0 17 -13 39 -42 39c-20 0 -37 -15 -38 -23c-1 -10 -15 -19 -28 -25c-9 -5 -19 -8 -25 -8c-10 0 -8 18 5 31c28 27 89 62 133 62zM601 555h1c5 0 4 -6 -2 -20
c-46 -81 -315 -442 -396 -534c-25 -27 -63 -51 -75 -51c-9 0 -8 6 1 16c99 116 280 357 369 488c18 26 36 54 43 70c4 9 11 12 21 17c12 7 32 14 38 14zM605 225h1c13 0 11 -21 11 -36s-3 -47 -6 -64c-1 -6 0 -8 4 -8c20 -1 48 -1 64 8c7 5 12 4 12 0c0 -5 -5 -10 -10 -16
c-18 -17 -45 -25 -66 -26c-7 -1 -10 -2 -11 -8c-1 -5 -5 -26 -5 -41c0 -16 5 -21 12 -25c8 -5 6 -10 -1 -15c-8 -7 -41 -22 -56 -22c-16 0 -20 17 -10 101c1 7 -2 8 -9 9s-54 7 -92 7c-19 0 -33 -3 -38 -8c-4 -3 -8 -4 -13 -4c-3 0 -6 2 -6 9s8 22 18 33
c44 51 110 124 137 170c9 15 16 28 16 32c0 6 7 12 21 21c8 5 18 9 22 9c5 0 6 -3 6 -12c0 -14 -24 -50 -46 -78c-32 -41 -87 -105 -103 -124c-5 -7 -6 -11 0 -11c27 0 60 -2 83 -5c6 0 9 1 11 8c1 11 4 24 4 37s-2 19 -4 23c-1 4 -1 8 4 12c8 7 38 24 50 24z" />
    <glyph glyph-name="twosuperior" unicode="&#xb2;" 
d="M174 620h1c60 0 85 -41 85 -80c0 -64 -91 -116 -133 -157c-9 -7 -9 -13 -1 -14c7 -1 22 -5 36 -8c19 -5 47 -10 68 -10c20 0 42 9 58 26c6 5 11 8 15 5c4 -4 0 -15 -10 -27c-28 -33 -64 -56 -102 -56c-30 0 -87 18 -103 22c-11 2 -15 2 -19 2c-23 0 -39 -21 -54 -21
c-8 0 -8 11 0 21c9 11 50 45 64 57c47 38 107 93 107 141c0 28 -20 50 -53 50c-27 0 -64 -23 -78 -40c-7 -6 -13 -10 -16 -10s-5 3 -5 9c0 7 13 26 37 47c21 18 62 43 103 43z" />
    <glyph glyph-name="registered" unicode="&#xae;" horiz-adv-x="280" 
d="M170 526h1c37 0 86 -26 86 -93c0 -28 -10 -71 -58 -106c-23 -16 -53 -27 -76 -27c-50 0 -96 34 -96 95c0 55 42 97 86 117c22 10 41 14 57 14zM155 505h-1c-53 0 -102 -45 -102 -100c-1 -49 33 -82 80 -82c59 0 99 41 99 104c0 49 -29 78 -76 78zM148 472h1
c27 0 33 -17 33 -26c0 -11 -7 -20 -18 -27c-4 -2 -4 -4 -2 -8c4 -8 11 -19 18 -28c7 -7 16 -10 21 -10c5 1 5 -3 0 -6c-2 -1 -13 -6 -21 -6c-15 0 -26 12 -38 34c-5 7 -8 10 -12 10s-5 -3 -6 -7c-2 -10 -2 -19 -1 -25c2 -4 -3 -7 -7 -10c-5 -4 -12 -7 -16 -7
c-3 0 -5 4 -4 11c1 17 6 49 8 68c1 12 -1 16 -3 16c-4 0 -8 -1 -12 -3c-5 -2 -5 2 -2 5s8 7 16 10c13 5 30 9 45 9zM157 439v1c0 14 -11 19 -21 19c-3 0 -6 0 -6 -1c-2 -1 -2 -2 -2 -5c1 -9 -1 -24 -2 -34c0 -4 0 -4 3 -4c4 0 12 1 18 5c5 4 10 9 10 19z" />
    <glyph glyph-name="minus" unicode="&#x2212;" horiz-adv-x="529" 
d="M157 230h1c51 0 95 -2 156 -4c48 -2 130 -5 165 -1c9 1 7 -6 -1 -15c-38 -35 -81 -36 -188 -32c-74 2 -127 4 -165 4c-37 0 -56 -2 -65 -4c-10 -2 -13 4 -4 13c26 32 53 39 101 39z" />
    <glyph glyph-name="eth" unicode="&#xf0;" horiz-adv-x="429" 
d="M173 634h1c56 0 103 -29 136 -66c5 -5 9 -5 16 -1c28 20 56 38 66 45c11 6 24 6 30 2c2 -4 -4 -14 -16 -27c-10 -10 -29 -26 -62 -48c-6 -5 -7 -8 -3 -14c29 -48 55 -122 55 -206c0 -152 -44 -245 -159 -307c-30 -16 -60 -24 -80 -24c-74 0 -124 66 -124 144
c0 104 67 173 157 214c44 20 75 25 92 25c14 0 25 -1 33 -4c7 -2 10 0 9 6c-3 40 -20 84 -36 114c-4 7 -8 8 -16 3c-35 -24 -70 -45 -81 -50c-13 -6 -34 -5 -43 -1c-8 4 -6 6 6 15c24 18 66 43 100 67c8 4 8 8 3 14c-36 44 -80 58 -118 58c-25 0 -49 -8 -62 -14
c-8 -4 -8 10 4 19c22 17 59 36 92 36zM201 38h1c21 0 40 7 56 21c58 52 69 172 69 252c0 11 -3 14 -7 12c-11 -4 -17 -3 -29 1c-10 3 -23 6 -45 6c-28 0 -55 -8 -75 -24c-22 -16 -64 -56 -64 -137c0 -79 43 -131 94 -131z" />
    <glyph glyph-name="multiply" unicode="&#xd7;" horiz-adv-x="550" 
d="M432 11h-1c-17 0 -46 32 -80 70c-24 26 -53 61 -72 80c-6 8 -9 8 -18 0c-38 -34 -110 -101 -137 -140c-6 -8 -35 -15 -51 -15c-11 0 -16 1 -16 7s20 29 37 46c53 53 126 124 143 139c5 5 5 10 -1 18c-25 33 -104 119 -134 133c-7 4 -11 7 -6 13c6 8 25 25 37 25
c8 0 16 -7 26 -15c20 -16 88 -89 114 -120c7 -7 11 -8 17 -1c20 22 119 118 143 130c10 6 28 3 39 -4c11 -6 6 -12 -8 -23c-36 -26 -127 -115 -146 -136c-6 -6 -7 -10 0 -19c37 -46 106 -129 150 -156c7 -4 9 -8 0 -15c-11 -9 -26 -17 -36 -17z" />
    <glyph glyph-name="threesuperior" unicode="&#xb3;" 
d="M194 620h1c32 0 66 -18 66 -56c0 -25 -24 -48 -51 -66c-7 -4 -12 -10 -12 -14s7 -7 19 -11c33 -13 66 -32 66 -70c0 -37 -36 -69 -86 -94c-32 -16 -73 -31 -105 -31c-24 0 -64 10 -65 36c0 14 26 34 38 34c4 0 6 -1 8 -6c10 -16 33 -27 57 -27c37 0 81 21 81 64
c0 22 -13 37 -31 48c-18 10 -34 11 -48 11c-10 0 -23 -2 -32 -3c-7 -1 -12 1 -12 6s9 17 23 24c31 15 78 33 78 79c0 17 -13 39 -42 39c-20 0 -37 -15 -38 -23c-1 -10 -15 -19 -28 -25c-9 -5 -19 -8 -25 -8c-10 0 -8 18 5 31c28 27 89 62 133 62z" />
    <glyph glyph-name="copyright" unicode="&#xa9;" horiz-adv-x="591" 
d="M363 510h1c70 0 187 -45 187 -213c0 -104 -70 -199 -133 -243c-37 -25 -99 -54 -167 -54c-122 0 -209 85 -209 214c0 122 76 200 148 246c45 29 113 50 173 50zM325 472h-1c-127 0 -237 -103 -237 -240c0 -123 81 -192 198 -192c99 0 219 84 219 237
c0 116 -55 195 -179 195zM341 388h1c32 0 52 -16 52 -27c0 -10 -21 -24 -30 -26c-6 -2 -7 0 -11 4c-13 10 -31 13 -45 13c-49 0 -82 -47 -82 -102c0 -46 26 -86 85 -86c47 0 87 32 99 40c8 7 8 -8 0 -18c-35 -38 -89 -63 -138 -63c-50 0 -100 35 -100 100
c0 74 56 122 99 144c27 14 57 21 70 21z" />
    <glyph glyph-name="Aacute" unicode="&#xc1;" horiz-adv-x="587" 
d="M477 -19h-1c-34 0 -58 10 -87 63c-18 36 -35 80 -53 136c-4 12 -6 13 -24 13c-62 0 -119 -4 -143 -13c-13 -4 -22 -12 -29 -21c-26 -40 -48 -96 -48 -134c0 -6 -4 -11 -20 -21c-19 -11 -37 -18 -43 -18c-7 0 -11 5 -11 17c0 17 14 51 33 84c22 39 54 92 92 152
c41 64 101 166 117 211c4 13 11 25 20 36c9 10 22 22 31 34c7 8 16 12 21 12c4 0 4 -5 3 -14c-1 -10 -2 -26 -1 -41c2 -62 36 -172 59 -233c2 -8 5 -9 12 -9c24 0 67 -4 95 -9c18 -4 17 -8 8 -15c-18 -13 -62 -17 -87 -18c-10 0 -10 -1 -7 -12c13 -38 24 -61 40 -90
c25 -45 52 -66 82 -66c16 0 36 3 50 9c8 3 12 3 12 -1s-7 -15 -15 -20c-18 -11 -65 -32 -106 -32zM309 233h1c9 0 11 1 8 11c-22 72 -33 114 -37 132c-3 12 -8 13 -14 1c-22 -39 -60 -107 -84 -147c-4 -7 -2 -11 8 -8c23 5 86 11 118 11zM439 674h1c15 0 11 -11 -5 -28
c-22 -24 -61 -53 -91 -71c-20 -12 -45 -18 -57 -18s-12 7 -3 16c13 12 56 58 65 70c8 11 16 17 26 20c18 6 52 11 64 11z" />
    <glyph glyph-name="Acircumflex" unicode="&#xc2;" horiz-adv-x="587" 
d="M477 -19h-1c-34 0 -58 10 -87 63c-18 36 -35 80 -53 136c-4 12 -6 13 -24 13c-62 0 -119 -4 -143 -13c-13 -4 -22 -12 -29 -21c-26 -40 -48 -96 -48 -134c0 -6 -4 -11 -20 -21c-19 -11 -37 -18 -43 -18c-7 0 -11 5 -11 17c0 17 14 51 33 84c22 39 54 92 92 152
c41 64 101 166 117 211c4 13 11 25 20 36c9 10 22 22 31 34c7 8 16 12 21 12c4 0 4 -5 3 -14c-1 -10 -2 -26 -1 -41c2 -62 36 -172 59 -233c2 -8 5 -9 12 -9c24 0 67 -4 95 -9c18 -4 17 -8 8 -15c-18 -13 -62 -17 -87 -18c-10 0 -10 -1 -7 -12c13 -38 24 -61 40 -90
c25 -45 52 -66 82 -66c16 0 36 3 50 9c8 3 12 3 12 -1s-7 -15 -15 -20c-18 -11 -65 -32 -106 -32zM309 233h1c9 0 11 1 8 11c-22 72 -33 114 -37 132c-3 12 -8 13 -14 1c-22 -39 -60 -107 -84 -147c-4 -7 -2 -11 8 -8c23 5 86 11 118 11zM337 671h1c6 0 14 -7 22 -15
c8 -9 24 -29 40 -50c14 -19 18 -27 18 -31c0 -6 -4 -11 -15 -18c-8 -5 -16 -7 -20 -7c-3 0 -7 2 -11 9c-3 6 -16 24 -30 40c-7 7 -12 11 -16 11s-9 -3 -17 -9c-8 -7 -40 -31 -54 -39c-13 -7 -23 -10 -30 -10c-4 0 -10 1 -13 4c-4 3 -3 7 8 15c21 17 73 69 90 85
c9 9 19 15 27 15z" />
    <glyph glyph-name="Adieresis" unicode="&#xc4;" horiz-adv-x="587" 
d="M477 -19h-1c-34 0 -58 10 -87 63c-18 36 -35 80 -53 136c-4 12 -6 13 -24 13c-62 0 -119 -4 -143 -13c-13 -4 -22 -12 -29 -21c-26 -40 -48 -96 -48 -134c0 -6 -4 -11 -20 -21c-19 -11 -37 -18 -43 -18c-7 0 -11 5 -11 17c0 17 14 51 33 84c22 39 54 92 92 152
c41 64 101 166 117 211c4 13 11 25 20 36c9 10 22 22 31 34c7 8 16 12 21 12c4 0 4 -5 3 -14c-1 -10 -2 -26 -1 -41c2 -62 36 -172 59 -233c2 -8 5 -9 12 -9c24 0 67 -4 95 -9c18 -4 17 -8 8 -15c-18 -13 -62 -17 -87 -18c-10 0 -10 -1 -7 -12c13 -38 24 -61 40 -90
c25 -45 52 -66 82 -66c16 0 36 3 50 9c8 3 12 3 12 -1s-7 -15 -15 -20c-18 -11 -65 -32 -106 -32zM309 233h1c9 0 11 1 8 11c-22 72 -33 114 -37 132c-3 12 -8 13 -14 1c-22 -39 -60 -107 -84 -147c-4 -7 -2 -11 8 -8c23 5 86 11 118 11zM393 648h1c6 0 10 -4 16 -12
c6 -9 16 -24 24 -31c4 -6 4 -13 -4 -22c-9 -9 -35 -28 -48 -28c-15 0 -36 19 -38 40c-2 15 8 26 22 38s22 15 27 15zM243 646h1c8 0 16 -10 24 -17c6 -5 11 -10 15 -13c4 -4 6 -8 5 -15c-3 -18 -39 -46 -58 -46c-13 0 -37 25 -37 42c0 16 37 49 50 49z" />
    <glyph glyph-name="Agrave" unicode="&#xc0;" horiz-adv-x="587" 
d="M477 -19h-1c-34 0 -58 10 -87 63c-18 36 -35 80 -53 136c-4 12 -6 13 -24 13c-62 0 -119 -4 -143 -13c-13 -4 -22 -12 -29 -21c-26 -40 -48 -96 -48 -134c0 -6 -4 -11 -20 -21c-19 -11 -37 -18 -43 -18c-7 0 -11 5 -11 17c0 17 14 51 33 84c22 39 54 92 92 152
c41 64 101 166 117 211c4 13 11 25 20 36c9 10 22 22 31 34c7 8 16 12 21 12c4 0 4 -5 3 -14c-1 -10 -2 -26 -1 -41c2 -62 36 -172 59 -233c2 -8 5 -9 12 -9c24 0 67 -4 95 -9c18 -4 17 -8 8 -15c-18 -13 -62 -17 -87 -18c-10 0 -10 -1 -7 -12c13 -38 24 -61 40 -90
c25 -45 52 -66 82 -66c16 0 36 3 50 9c8 3 12 3 12 -1s-7 -15 -15 -20c-18 -11 -65 -32 -106 -32zM309 233h1c9 0 11 1 8 11c-22 72 -33 114 -37 132c-3 12 -8 13 -14 1c-22 -39 -60 -107 -84 -147c-4 -7 -2 -11 8 -8c23 5 86 11 118 11zM341 557h-1c-24 0 -88 32 -113 51
c-12 10 -19 18 -19 25c-2 16 24 34 39 40c7 3 12 2 15 -4c16 -30 70 -75 95 -90c8 -5 12 -9 6 -14c-5 -4 -15 -8 -22 -8z" />
    <glyph glyph-name="Aring" unicode="&#xc5;" horiz-adv-x="587" 
d="M477 -19h-1c-34 0 -58 10 -87 63c-18 36 -35 80 -53 136c-4 12 -6 13 -24 13c-62 0 -119 -4 -143 -13c-13 -4 -22 -12 -29 -21c-26 -40 -48 -96 -48 -134c0 -6 -4 -11 -20 -21c-19 -11 -37 -18 -43 -18c-7 0 -11 5 -11 17c0 17 14 51 33 84c22 39 54 92 92 152
c41 64 101 166 117 211c4 13 11 25 20 36c9 10 22 22 31 34c7 8 16 12 21 12c4 0 4 -5 3 -14c-1 -10 -2 -26 -1 -41c2 -62 36 -172 59 -233c2 -8 5 -9 12 -9c24 0 67 -4 95 -9c18 -4 17 -8 8 -15c-18 -13 -62 -17 -87 -18c-10 0 -10 -1 -7 -12c13 -38 24 -61 40 -90
c25 -45 52 -66 82 -66c16 0 36 3 50 9c8 3 12 3 12 -1s-7 -15 -15 -20c-18 -11 -65 -32 -106 -32zM309 233h1c9 0 11 1 8 11c-22 72 -33 114 -37 132c-3 12 -8 13 -14 1c-22 -39 -60 -107 -84 -147c-4 -7 -2 -11 8 -8c23 5 86 11 118 11zM340 706h1c38 0 59 -31 59 -68
c0 -50 -50 -93 -97 -93c-23 0 -63 17 -63 66c1 49 52 95 100 95zM320 671h-1c-22 0 -39 -17 -39 -45c0 -27 19 -45 40 -45c26 0 39 20 39 45c0 20 -10 45 -39 45z" />
    <glyph glyph-name="Atilde" unicode="&#xc3;" horiz-adv-x="587" 
d="M477 -19h-1c-34 0 -58 10 -87 63c-18 36 -35 80 -53 136c-4 12 -6 13 -24 13c-62 0 -119 -4 -143 -13c-13 -4 -22 -12 -29 -21c-26 -40 -48 -96 -48 -134c0 -6 -4 -11 -20 -21c-19 -11 -37 -18 -43 -18c-7 0 -11 5 -11 17c0 17 14 51 33 84c22 39 54 92 92 152
c41 64 101 166 117 211c4 13 11 25 20 36c9 10 22 22 31 34c7 8 16 12 21 12c4 0 4 -5 3 -14c-1 -10 -2 -26 -1 -41c2 -62 36 -172 59 -233c2 -8 5 -9 12 -9c24 0 67 -4 95 -9c18 -4 17 -8 8 -15c-18 -13 -62 -17 -87 -18c-10 0 -10 -1 -7 -12c13 -38 24 -61 40 -90
c25 -45 52 -66 82 -66c16 0 36 3 50 9c8 3 12 3 12 -1s-7 -15 -15 -20c-18 -11 -65 -32 -106 -32zM309 233h1c9 0 11 1 8 11c-22 72 -33 114 -37 132c-3 12 -8 13 -14 1c-22 -39 -60 -107 -84 -147c-4 -7 -2 -11 8 -8c23 5 86 11 118 11zM292 661h1c17 0 31 -20 44 -34
c12 -13 22 -22 31 -22c11 0 23 13 31 30c3 7 7 12 12 17c5 6 9 8 11 8c4 0 5 -4 5 -11c-2 -35 -39 -92 -77 -92c-19 0 -34 15 -50 32c-12 14 -19 19 -26 19c-11 0 -28 -27 -33 -35c-6 -8 -13 -12 -17 -12c-5 0 -9 6 -5 18c9 24 41 82 73 82z" />
    <glyph glyph-name="Ccedilla" unicode="&#xc7;" horiz-adv-x="484" 
d="M326 -134v-1c0 -54 -92 -95 -122 -95c-9 0 -18 5 -16 10c1 6 8 11 14 14c26 7 67 25 67 51c0 16 -20 32 -42 51c-9 7 -14 17 -14 25c0 7 3 15 11 25c13 16 27 30 40 42c-12 -1 -26 -2 -38 -2c-52 0 -110 21 -141 54c-27 30 -49 69 -49 146c0 114 70 213 175 279
c60 40 121 61 164 61c28 0 43 -8 50 -17c7 -8 5 -18 -4 -26c-9 -9 -22 -18 -32 -25c-13 -8 -18 -9 -22 -5c-12 13 -40 19 -61 19c-45 0 -93 -32 -120 -61c-37 -40 -68 -99 -68 -182c0 -113 53 -188 173 -188c90 0 161 51 183 69c7 6 10 3 8 -4c-2 -11 -20 -31 -31 -39
c-20 -16 -59 -38 -107 -57c-15 -6 -30 -11 -46 -15c-15 -16 -28 -34 -28 -43c1 -8 4 -15 14 -23c24 -20 42 -36 42 -63z" />
    <glyph glyph-name="Eacute" unicode="&#xc9;" horiz-adv-x="445" 
d="M215 -9h-1c-44 0 -77 7 -91 11c-8 3 -17 0 -24 -3c-5 -3 -11 1 -16 17c-5 18 -4 47 -2 73c2 34 8 119 9 138c0 8 -2 12 -7 17c-6 6 -8 9 -4 14c10 16 16 25 17 34s3 35 3 84c0 39 -4 82 -17 97c-4 5 -5 7 0 12c11 10 49 37 59 37c4 0 8 -4 11 -7c3 -4 7 -4 14 0
c3 2 10 3 19 3c13 0 63 -5 113 -4c31 0 63 2 74 2c9 0 8 -5 0 -13c-27 -28 -91 -33 -144 -33c-24 0 -37 0 -51 1c-7 1 -7 -3 -6 -13c4 -25 -2 -124 -3 -161c0 -10 1 -13 11 -14c37 -4 80 -4 112 -4c43 0 86 6 100 8c10 2 9 -5 -4 -16c-35 -30 -107 -39 -163 -39
c-25 0 -41 1 -52 1c-8 1 -10 -2 -11 -10c-1 -14 -4 -85 -5 -118c-1 -38 7 -50 26 -56c13 -4 41 -9 86 -9c51 0 120 3 163 30c10 6 9 -6 -1 -16c-47 -52 -139 -63 -215 -63zM364 671h1c15 0 11 -11 -5 -28c-22 -24 -61 -53 -91 -71c-20 -12 -45 -18 -57 -18s-12 7 -3 16
c13 12 56 58 65 70c8 11 16 17 26 20c18 6 52 11 64 11z" />
    <glyph glyph-name="Ecircumflex" unicode="&#xca;" horiz-adv-x="445" 
d="M215 -9h-1c-44 0 -77 7 -91 11c-8 3 -17 0 -24 -3c-5 -3 -11 1 -16 17c-5 18 -4 47 -2 73c2 34 8 119 9 138c0 8 -2 12 -7 17c-6 6 -8 9 -4 14c10 16 16 25 17 34s3 35 3 84c0 39 -4 82 -17 97c-4 5 -5 7 0 12c11 10 49 37 59 37c4 0 8 -4 11 -7c3 -4 7 -4 14 0
c3 2 10 3 19 3c13 0 63 -5 113 -4c31 0 63 2 74 2c9 0 8 -5 0 -13c-27 -28 -91 -33 -144 -33c-24 0 -37 0 -51 1c-7 1 -7 -3 -6 -13c4 -25 -2 -124 -3 -161c0 -10 1 -13 11 -14c37 -4 80 -4 112 -4c43 0 86 6 100 8c10 2 9 -5 -4 -16c-35 -30 -107 -39 -163 -39
c-25 0 -41 1 -52 1c-8 1 -10 -2 -11 -10c-1 -14 -4 -85 -5 -118c-1 -38 7 -50 26 -56c13 -4 41 -9 86 -9c51 0 120 3 163 30c10 6 9 -6 -1 -16c-47 -52 -139 -63 -215 -63zM257 672h1c6 0 14 -7 22 -15c8 -9 24 -29 40 -50c14 -19 18 -27 18 -31c0 -6 -4 -11 -15 -18
c-8 -5 -16 -7 -20 -7c-3 0 -7 2 -11 9c-3 6 -16 24 -30 40c-7 7 -12 11 -16 11s-9 -3 -17 -9c-8 -7 -40 -31 -54 -39c-13 -7 -23 -10 -30 -10c-4 0 -10 1 -13 4c-4 3 -3 7 8 15c21 17 73 69 90 85c9 9 19 15 27 15z" />
    <glyph glyph-name="Edieresis" unicode="&#xcb;" horiz-adv-x="445" 
d="M215 -9h-1c-44 0 -77 7 -91 11c-8 3 -17 0 -24 -3c-5 -3 -11 1 -16 17c-5 18 -4 47 -2 73c2 34 8 119 9 138c0 8 -2 12 -7 17c-6 6 -8 9 -4 14c10 16 16 25 17 34s3 35 3 84c0 39 -4 82 -17 97c-4 5 -5 7 0 12c11 10 49 37 59 37c4 0 8 -4 11 -7c3 -4 7 -4 14 0
c3 2 10 3 19 3c13 0 63 -5 113 -4c31 0 63 2 74 2c9 0 8 -5 0 -13c-27 -28 -91 -33 -144 -33c-24 0 -37 0 -51 1c-7 1 -7 -3 -6 -13c4 -25 -2 -124 -3 -161c0 -10 1 -13 11 -14c37 -4 80 -4 112 -4c43 0 86 6 100 8c10 2 9 -5 -4 -16c-35 -30 -107 -39 -163 -39
c-25 0 -41 1 -52 1c-8 1 -10 -2 -11 -10c-1 -14 -4 -85 -5 -118c-1 -38 7 -50 26 -56c13 -4 41 -9 86 -9c51 0 120 3 163 30c10 6 9 -6 -1 -16c-47 -52 -139 -63 -215 -63zM320 651h1c6 0 10 -4 16 -12c6 -9 16 -24 24 -31c4 -6 4 -13 -4 -22c-9 -9 -35 -28 -48 -28
c-15 0 -36 19 -38 40c-2 15 8 26 22 38s22 15 27 15zM170 649h1c8 0 16 -10 24 -17c6 -5 11 -10 15 -13c4 -4 6 -8 5 -15c-3 -18 -39 -46 -58 -46c-13 0 -37 25 -37 42c0 16 37 49 50 49z" />
    <glyph glyph-name="Egrave" unicode="&#xc8;" horiz-adv-x="445" 
d="M215 -9h-1c-44 0 -77 7 -91 11c-8 3 -17 0 -24 -3c-5 -3 -11 1 -16 17c-5 18 -4 47 -2 73c2 34 8 119 9 138c0 8 -2 12 -7 17c-6 6 -8 9 -4 14c10 16 16 25 17 34s3 35 3 84c0 39 -4 82 -17 97c-4 5 -5 7 0 12c11 10 49 37 59 37c4 0 8 -4 11 -7c3 -4 7 -4 14 0
c3 2 10 3 19 3c13 0 63 -5 113 -4c31 0 63 2 74 2c9 0 8 -5 0 -13c-27 -28 -91 -33 -144 -33c-24 0 -37 0 -51 1c-7 1 -7 -3 -6 -13c4 -25 -2 -124 -3 -161c0 -10 1 -13 11 -14c37 -4 80 -4 112 -4c43 0 86 6 100 8c10 2 9 -5 -4 -16c-35 -30 -107 -39 -163 -39
c-25 0 -41 1 -52 1c-8 1 -10 -2 -11 -10c-1 -14 -4 -85 -5 -118c-1 -38 7 -50 26 -56c13 -4 41 -9 86 -9c51 0 120 3 163 30c10 6 9 -6 -1 -16c-47 -52 -139 -63 -215 -63zM263 555h-1c-24 0 -88 32 -113 51c-12 10 -19 18 -19 25c-2 16 24 34 39 40c7 3 12 2 15 -4
c16 -30 70 -75 95 -90c8 -5 12 -9 6 -14c-5 -4 -15 -8 -22 -8z" />
    <glyph glyph-name="Iacute" unicode="&#xcd;" horiz-adv-x="246" 
d="M147 528h1c21 0 23 -56 22 -88c-1 -57 -6 -142 -10 -197c-4 -53 -9 -131 -9 -180c0 -20 4 -30 9 -34c5 -3 5 -6 -1 -12c-12 -11 -60 -35 -70 -35c-13 0 -14 28 -13 63c1 33 5 101 10 168c5 70 8 134 9 190c0 32 -4 68 -18 78c-6 4 -7 6 1 13c15 13 60 34 69 34zM248 672
h1c15 0 11 -11 -5 -28c-22 -24 -61 -53 -91 -71c-20 -12 -45 -18 -57 -18s-12 7 -3 16c13 12 56 58 65 70c8 11 16 17 26 20c18 6 52 11 64 11z" />
    <glyph glyph-name="Icircumflex" unicode="&#xce;" horiz-adv-x="246" 
d="M147 528h1c21 0 23 -56 22 -88c-1 -57 -6 -142 -10 -197c-4 -53 -9 -131 -9 -180c0 -20 4 -30 9 -34c5 -3 5 -6 -1 -12c-12 -11 -60 -35 -70 -35c-13 0 -14 28 -13 63c1 33 5 101 10 168c5 70 8 134 9 190c0 32 -4 68 -18 78c-6 4 -7 6 1 13c15 13 60 34 69 34zM158 671
h1c6 0 14 -7 22 -15c8 -9 24 -29 40 -50c14 -19 18 -27 18 -31c0 -6 -4 -11 -15 -18c-8 -5 -16 -7 -20 -7c-3 0 -7 2 -11 9c-3 6 -16 24 -30 40c-7 7 -12 11 -16 11s-9 -3 -17 -9c-8 -7 -40 -31 -54 -39c-13 -7 -23 -10 -30 -10c-4 0 -10 1 -13 4c-4 3 -3 7 8 15
c21 17 73 69 90 85c9 9 19 15 27 15z" />
    <glyph glyph-name="Idieresis" unicode="&#xcf;" horiz-adv-x="246" 
d="M147 528h1c21 0 23 -56 22 -88c-1 -57 -6 -142 -10 -197c-4 -53 -9 -131 -9 -180c0 -20 4 -30 9 -34c5 -3 5 -6 -1 -12c-12 -11 -60 -35 -70 -35c-13 0 -14 28 -13 63c1 33 5 101 10 168c5 70 8 134 9 190c0 32 -4 68 -18 78c-6 4 -7 6 1 13c15 13 60 34 69 34zM214 649
h1c6 0 10 -4 16 -12c6 -9 16 -24 24 -31c4 -6 4 -13 -4 -22c-9 -9 -35 -28 -48 -28c-15 0 -36 19 -38 40c-2 15 8 26 22 38s22 15 27 15zM64 647h1c8 0 16 -10 24 -17c6 -5 11 -10 15 -13c4 -4 6 -8 5 -15c-3 -18 -39 -46 -58 -46c-13 0 -37 25 -37 42c0 16 37 49 50 49z
" />
    <glyph glyph-name="Igrave" unicode="&#xcc;" horiz-adv-x="246" 
d="M147 528h1c21 0 23 -56 22 -88c-1 -57 -6 -142 -10 -197c-4 -53 -9 -131 -9 -180c0 -20 4 -30 9 -34c5 -3 5 -6 -1 -12c-12 -11 -60 -35 -70 -35c-13 0 -14 28 -13 63c1 33 5 101 10 168c5 70 8 134 9 190c0 32 -4 68 -18 78c-6 4 -7 6 1 13c15 13 60 34 69 34zM165 556
h-1c-24 0 -88 32 -113 51c-12 10 -19 18 -19 25c-2 16 24 34 39 40c7 3 12 2 15 -4c16 -30 70 -75 95 -90c8 -5 12 -9 6 -14c-5 -4 -15 -8 -22 -8z" />
    <glyph glyph-name="Ntilde" unicode="&#xd1;" horiz-adv-x="629" 
d="M87 -15h-1c-9 0 -13 12 -12 43c1 32 7 83 15 142c7 62 15 164 16 184c1 28 2 42 -17 65c-8 10 -25 33 -30 46c-7 18 -5 32 8 49c11 16 24 24 29 24c4 0 11 -20 20 -37c5 -8 9 -10 18 -10c12 0 15 -2 18 -10c4 -18 5 -28 11 -36c12 -17 73 -72 131 -119
c68 -55 134 -115 193 -174c7 -6 10 -4 11 9c4 32 14 182 14 215c1 54 -4 76 -7 83c-2 4 -1 10 18 34c17 21 28 29 32 29c6 0 8 -7 9 -24c2 -17 -1 -62 -6 -113c-11 -92 -18 -209 -19 -253c-1 -26 -1 -49 5 -61c10 -21 12 -31 12 -36c0 -17 -34 -51 -48 -51c-4 0 -6 4 -10 14
c-12 35 -38 77 -127 163c-50 47 -151 129 -211 183c-10 8 -13 7 -15 -5c-7 -52 -12 -143 -15 -201c-3 -55 4 -93 12 -110c2 -5 0 -7 -9 -15c-19 -16 -41 -28 -45 -28zM300 662h1c17 0 31 -20 44 -34c12 -13 22 -22 31 -22c11 0 23 13 31 30c3 7 7 12 12 17c5 6 9 8 11 8
c4 0 5 -4 5 -11c-2 -35 -39 -92 -77 -92c-19 0 -34 15 -50 32c-12 14 -19 19 -26 19c-11 0 -28 -27 -33 -35c-6 -8 -13 -12 -17 -12c-5 0 -9 6 -5 18c9 24 41 82 73 82z" />
    <glyph glyph-name="Oacute" unicode="&#xd3;" horiz-adv-x="594" 
d="M248 -14h-1c-58 0 -128 19 -170 71c-22 28 -41 77 -41 129c0 116 55 207 159 264c19 11 31 1 19 -9c-55 -44 -99 -101 -99 -215c0 -48 9 -96 42 -132c41 -48 94 -57 130 -57c56 0 91 18 124 49c35 33 70 97 70 193c0 114 -51 199 -154 199c-46 0 -65 -15 -75 -16
c-5 0 -3 9 6 18c27 28 82 46 124 46c58 0 103 -29 125 -53c44 -48 51 -109 51 -162c0 -156 -125 -266 -222 -305c-36 -15 -62 -20 -88 -20zM456 674h1c15 0 11 -11 -5 -28c-22 -24 -61 -53 -91 -71c-20 -12 -45 -18 -57 -18s-12 7 -3 16c13 12 56 58 65 70c8 11 16 17 26 20
c18 6 52 11 64 11z" />
    <glyph glyph-name="Ocircumflex" unicode="&#xd4;" horiz-adv-x="594" 
d="M248 -14h-1c-58 0 -128 19 -170 71c-22 28 -41 77 -41 129c0 116 55 207 159 264c19 11 31 1 19 -9c-55 -44 -99 -101 -99 -215c0 -48 9 -96 42 -132c41 -48 94 -57 130 -57c56 0 91 18 124 49c35 33 70 97 70 193c0 114 -51 199 -154 199c-46 0 -65 -15 -75 -16
c-5 0 -3 9 6 18c27 28 82 46 124 46c58 0 103 -29 125 -53c44 -48 51 -109 51 -162c0 -156 -125 -266 -222 -305c-36 -15 -62 -20 -88 -20zM369 670h1c6 0 14 -7 22 -15c8 -9 24 -29 40 -50c14 -19 18 -27 18 -31c0 -6 -4 -11 -15 -18c-8 -5 -16 -7 -20 -7c-3 0 -7 2 -11 9
c-3 6 -16 24 -30 40c-7 7 -12 11 -16 11s-9 -3 -17 -9c-8 -7 -40 -31 -54 -39c-13 -7 -23 -10 -30 -10c-4 0 -10 1 -13 4c-4 3 -3 7 8 15c21 17 73 69 90 85c9 9 19 15 27 15z" />
    <glyph glyph-name="Odieresis" unicode="&#xd6;" horiz-adv-x="594" 
d="M248 -14h-1c-58 0 -128 19 -170 71c-22 28 -41 77 -41 129c0 116 55 207 159 264c19 11 31 1 19 -9c-55 -44 -99 -101 -99 -215c0 -48 9 -96 42 -132c41 -48 94 -57 130 -57c56 0 91 18 124 49c35 33 70 97 70 193c0 114 -51 199 -154 199c-46 0 -65 -15 -75 -16
c-5 0 -3 9 6 18c27 28 82 46 124 46c58 0 103 -29 125 -53c44 -48 51 -109 51 -162c0 -156 -125 -266 -222 -305c-36 -15 -62 -20 -88 -20zM423 651h1c6 0 10 -4 16 -12c6 -9 16 -24 24 -31c4 -6 4 -13 -4 -22c-9 -9 -35 -28 -48 -28c-15 0 -36 19 -38 40c-2 15 8 26 22 38
s22 15 27 15zM273 649h1c8 0 16 -10 24 -17c6 -5 11 -10 15 -13c4 -4 6 -8 5 -15c-3 -18 -39 -46 -58 -46c-13 0 -37 25 -37 42c0 16 37 49 50 49z" />
    <glyph glyph-name="Ograve" unicode="&#xd2;" horiz-adv-x="594" 
d="M248 -14h-1c-58 0 -128 19 -170 71c-22 28 -41 77 -41 129c0 116 55 207 159 264c19 11 31 1 19 -9c-55 -44 -99 -101 -99 -215c0 -48 9 -96 42 -132c41 -48 94 -57 130 -57c56 0 91 18 124 49c35 33 70 97 70 193c0 114 -51 199 -154 199c-46 0 -65 -15 -75 -16
c-5 0 -3 9 6 18c27 28 82 46 124 46c58 0 103 -29 125 -53c44 -48 51 -109 51 -162c0 -156 -125 -266 -222 -305c-36 -15 -62 -20 -88 -20zM376 553h-1c-24 0 -88 32 -113 51c-12 10 -19 18 -19 25c-2 16 24 34 39 40c7 3 12 2 15 -4c16 -30 70 -75 95 -90c8 -5 12 -9 6 -14
c-5 -4 -15 -8 -22 -8z" />
    <glyph glyph-name="Otilde" unicode="&#xd5;" horiz-adv-x="594" 
d="M248 -14h-1c-58 0 -128 19 -170 71c-22 28 -41 77 -41 129c0 116 55 207 159 264c19 11 31 1 19 -9c-55 -44 -99 -101 -99 -215c0 -48 9 -96 42 -132c41 -48 94 -57 130 -57c56 0 91 18 124 49c35 33 70 97 70 193c0 114 -51 199 -154 199c-46 0 -65 -15 -75 -16
c-5 0 -3 9 6 18c27 28 82 46 124 46c58 0 103 -29 125 -53c44 -48 51 -109 51 -162c0 -156 -125 -266 -222 -305c-36 -15 -62 -20 -88 -20zM316 663h1c17 0 31 -20 44 -34c12 -13 22 -22 31 -22c11 0 23 13 31 30c3 7 7 12 12 17c5 6 9 8 11 8c4 0 5 -4 5 -11
c-2 -35 -39 -92 -77 -92c-19 0 -34 15 -50 32c-12 14 -19 19 -26 19c-11 0 -28 -27 -33 -35c-6 -8 -13 -12 -17 -12c-5 0 -9 6 -5 18c9 24 41 82 73 82z" />
    <glyph glyph-name="Scaron" unicode="&#x160;" horiz-adv-x="381" 
d="M104 -14h-1c-31 0 -81 13 -81 41c0 13 25 31 35 38c12 7 15 6 18 2c13 -20 44 -35 84 -35c60 0 117 40 117 98c0 40 -28 62 -87 88c-30 13 -71 29 -94 46c-26 17 -40 42 -40 78c0 58 41 99 74 126c34 28 100 59 144 59c29 0 57 -13 57 -29c0 -11 -23 -30 -33 -37
c-6 -4 -10 -6 -13 -3c-13 11 -33 21 -67 21c-50 0 -99 -44 -99 -93c0 -45 38 -69 111 -99c66 -27 116 -47 116 -112c0 -80 -76 -130 -110 -150c-25 -15 -76 -39 -131 -39zM212 557h-1c-4 0 -7 4 -11 10c-13 22 -40 57 -65 76c-8 6 -5 10 0 15c5 4 11 8 17 10c9 4 17 4 26 -2
c14 -9 38 -31 48 -43c4 -5 9 -6 17 0c21 15 50 35 70 46c10 5 21 5 28 2c6 -4 4 -9 -5 -16c-29 -23 -78 -70 -104 -91c-5 -4 -13 -7 -20 -7z" />
    <glyph glyph-name="Uacute" unicode="&#xda;" horiz-adv-x="629" 
d="M180 -11h-1c-41 0 -76 24 -90 69c-12 39 -10 81 -6 149c5 55 10 117 13 170c2 41 2 78 -13 91c-3 3 -5 9 11 22c26 18 55 32 61 32c24 0 21 -77 15 -155c-4 -43 -11 -124 -14 -182c-4 -74 10 -133 87 -133c21 0 47 5 82 22c41 21 86 62 100 84c7 12 12 26 14 38
c1 13 4 35 8 72c6 44 10 108 11 138c1 24 -1 45 -7 58c-3 6 5 17 23 33c26 21 45 29 50 29c15 0 13 -50 7 -115c-7 -74 -16 -165 -18 -224c-2 -56 -3 -151 58 -151c23 0 49 11 66 20c8 5 9 -11 -7 -24c-31 -26 -85 -50 -119 -50c-55 0 -69 71 -72 124c-1 12 -6 14 -12 9
c-9 -7 -60 -52 -122 -86c-54 -30 -93 -40 -125 -40zM432 660h1c15 0 11 -11 -5 -28c-22 -24 -61 -53 -91 -71c-20 -12 -45 -18 -57 -18s-12 7 -3 16c13 12 56 58 65 70c8 11 16 17 26 20c18 6 52 11 64 11z" />
    <glyph glyph-name="Ucircumflex" unicode="&#xdb;" horiz-adv-x="629" 
d="M180 -11h-1c-41 0 -76 24 -90 69c-12 39 -10 81 -6 149c5 55 10 117 13 170c2 41 2 78 -13 91c-3 3 -5 9 11 22c26 18 55 32 61 32c24 0 21 -77 15 -155c-4 -43 -11 -124 -14 -182c-4 -74 10 -133 87 -133c21 0 47 5 82 22c41 21 86 62 100 84c7 12 12 26 14 38
c1 13 4 35 8 72c6 44 10 108 11 138c1 24 -1 45 -7 58c-3 6 5 17 23 33c26 21 45 29 50 29c15 0 13 -50 7 -115c-7 -74 -16 -165 -18 -224c-2 -56 -3 -151 58 -151c23 0 49 11 66 20c8 5 9 -11 -7 -24c-31 -26 -85 -50 -119 -50c-55 0 -69 71 -72 124c-1 12 -6 14 -12 9
c-9 -7 -60 -52 -122 -86c-54 -30 -93 -40 -125 -40zM344 666h1c6 0 14 -7 22 -15c8 -9 24 -29 40 -50c14 -19 18 -27 18 -31c0 -6 -4 -11 -15 -18c-8 -5 -16 -7 -20 -7c-3 0 -7 2 -11 9c-3 6 -16 24 -30 40c-7 7 -12 11 -16 11s-9 -3 -17 -9c-8 -7 -40 -31 -54 -39
c-13 -7 -23 -10 -30 -10c-4 0 -10 1 -13 4c-4 3 -3 7 8 15c21 17 73 69 90 85c9 9 19 15 27 15z" />
    <glyph glyph-name="Udieresis" unicode="&#xdc;" horiz-adv-x="629" 
d="M180 -11h-1c-41 0 -76 24 -90 69c-12 39 -10 81 -6 149c5 55 10 117 13 170c2 41 2 78 -13 91c-3 3 -5 9 11 22c26 18 55 32 61 32c24 0 21 -77 15 -155c-4 -43 -11 -124 -14 -182c-4 -74 10 -133 87 -133c21 0 47 5 82 22c41 21 86 62 100 84c7 12 12 26 14 38
c1 13 4 35 8 72c6 44 10 108 11 138c1 24 -1 45 -7 58c-3 6 5 17 23 33c26 21 45 29 50 29c15 0 13 -50 7 -115c-7 -74 -16 -165 -18 -224c-2 -56 -3 -151 58 -151c23 0 49 11 66 20c8 5 9 -11 -7 -24c-31 -26 -85 -50 -119 -50c-55 0 -69 71 -72 124c-1 12 -6 14 -12 9
c-9 -7 -60 -52 -122 -86c-54 -30 -93 -40 -125 -40zM403 645h1c6 0 10 -4 16 -12c6 -9 16 -24 24 -31c4 -6 4 -13 -4 -22c-9 -9 -35 -28 -48 -28c-15 0 -36 19 -38 40c-2 15 8 26 22 38s22 15 27 15zM253 643h1c8 0 16 -10 24 -17c6 -5 11 -10 15 -13c4 -4 6 -8 5 -15
c-3 -18 -39 -46 -58 -46c-13 0 -37 25 -37 42c0 16 37 49 50 49z" />
    <glyph glyph-name="Ugrave" unicode="&#xd9;" horiz-adv-x="629" 
d="M180 -11h-1c-41 0 -76 24 -90 69c-12 39 -10 81 -6 149c5 55 10 117 13 170c2 41 2 78 -13 91c-3 3 -5 9 11 22c26 18 55 32 61 32c24 0 21 -77 15 -155c-4 -43 -11 -124 -14 -182c-4 -74 10 -133 87 -133c21 0 47 5 82 22c41 21 86 62 100 84c7 12 12 26 14 38
c1 13 4 35 8 72c6 44 10 108 11 138c1 24 -1 45 -7 58c-3 6 5 17 23 33c26 21 45 29 50 29c15 0 13 -50 7 -115c-7 -74 -16 -165 -18 -224c-2 -56 -3 -151 58 -151c23 0 49 11 66 20c8 5 9 -11 -7 -24c-31 -26 -85 -50 -119 -50c-55 0 -69 71 -72 124c-1 12 -6 14 -12 9
c-9 -7 -60 -52 -122 -86c-54 -30 -93 -40 -125 -40zM355 545h-1c-24 0 -88 32 -113 51c-12 10 -19 18 -19 25c-2 16 24 34 39 40c7 3 12 2 15 -4c16 -30 70 -75 95 -90c8 -5 12 -9 6 -14c-5 -4 -15 -8 -22 -8z" />
    <glyph glyph-name="Yacute" unicode="&#xdd;" horiz-adv-x="500" 
d="M97 526h1c27 0 60 -28 92 -86s63 -136 74 -165c6 -16 11 -16 19 -6c26 28 94 115 117 151c15 26 22 47 22 57c0 8 -1 17 -3 22c-2 4 0 9 14 19c17 12 33 19 38 19c8 0 13 -9 13 -23c0 -41 -45 -102 -105 -178c-42 -52 -62 -79 -81 -115c-14 -26 -17 -67 -19 -117
c-3 -51 2 -74 9 -82c4 -4 5 -6 -6 -13c-20 -11 -53 -22 -64 -22c-18 0 -17 36 -15 60c2 32 8 120 10 133c0 6 -2 17 -3 21c-3 8 -5 14 -8 26c-14 61 -70 184 -117 229c-15 15 -32 25 -46 25c-7 0 -16 -1 -21 -2c-7 -2 -6 6 2 13c16 15 55 34 77 34zM392 671h1
c15 0 11 -11 -5 -28c-22 -24 -61 -53 -91 -71c-20 -12 -45 -18 -57 -18s-12 7 -3 16c13 12 56 58 65 70c8 11 16 17 26 20c18 6 52 11 64 11z" />
    <glyph glyph-name="Ydieresis" unicode="&#x178;" horiz-adv-x="500" 
d="M97 526h1c27 0 60 -28 92 -86s63 -136 74 -165c6 -16 11 -16 19 -6c26 28 94 115 117 151c15 26 22 47 22 57c0 8 -1 17 -3 22c-2 4 0 9 14 19c17 12 33 19 38 19c8 0 13 -9 13 -23c0 -41 -45 -102 -105 -178c-42 -52 -62 -79 -81 -115c-14 -26 -17 -67 -19 -117
c-3 -51 2 -74 9 -82c4 -4 5 -6 -6 -13c-20 -11 -53 -22 -64 -22c-18 0 -17 36 -15 60c2 32 8 120 10 133c0 6 -2 17 -3 21c-3 8 -5 14 -8 26c-14 61 -70 184 -117 229c-15 15 -32 25 -46 25c-7 0 -16 -1 -21 -2c-7 -2 -6 6 2 13c16 15 55 34 77 34zM355 651h1
c6 0 10 -4 16 -12c6 -9 16 -24 24 -31c4 -6 4 -13 -4 -22c-9 -9 -35 -28 -48 -28c-15 0 -36 19 -38 40c-2 15 8 26 22 38s22 15 27 15zM205 649h1c8 0 16 -10 24 -17c6 -5 11 -10 15 -13c4 -4 6 -8 5 -15c-3 -18 -39 -46 -58 -46c-13 0 -37 25 -37 42c0 16 37 49 50 49z" />
    <glyph glyph-name="Zcaron" unicode="&#x17d;" horiz-adv-x="565" 
d="M223 521h1c40 0 111 -14 165 -20c28 -4 44 -5 54 -5s22 4 33 14c23 22 41 32 54 32c6 0 6 -7 -1 -18c-6 -10 -22 -31 -46 -54c-87 -93 -220 -242 -319 -361c-10 -11 -9 -18 1 -18c20 -1 58 -10 120 -29c48 -15 94 -26 131 -26c44 0 93 32 131 79c8 10 12 -8 2 -24
c-44 -72 -121 -116 -187 -116c-60 0 -148 36 -185 47c-26 8 -49 11 -62 11c-31 0 -59 -21 -82 -41c-10 -8 -17 -3 -16 5c2 9 15 30 34 50c95 102 256 282 338 379c8 8 8 13 -4 13c-29 2 -118 17 -181 17c-69 0 -110 -26 -150 -73c-10 -13 -18 -5 -7 15c17 33 51 70 80 90
c30 21 61 33 96 33zM300 563h-1c-4 0 -7 4 -11 10c-13 22 -40 57 -65 76c-8 6 -5 10 0 15c5 4 11 8 17 10c9 4 17 4 26 -2c14 -9 38 -31 48 -43c4 -5 9 -6 17 0c21 15 50 35 70 46c10 5 21 5 28 2c6 -4 4 -9 -5 -16c-29 -23 -78 -70 -104 -91c-5 -4 -13 -7 -20 -7z" />
    <glyph glyph-name="aacute" unicode="&#xe1;" horiz-adv-x="378" 
d="M242 385h1c36 0 64 -46 58 -113c-4 -47 -7 -108 -8 -155c-1 -30 0 -52 9 -64s20 -17 33 -17c12 0 33 7 42 13c7 4 7 -10 -1 -19c-15 -19 -51 -47 -92 -47c-27 0 -50 27 -60 49c-4 7 -7 7 -16 2c-27 -18 -79 -44 -101 -44c-25 0 -57 11 -70 34c-6 10 -10 22 -10 38
c0 19 10 35 22 48c36 38 104 66 162 83c12 3 17 7 18 15c1 11 2 27 2 45c1 32 -5 80 -42 80c-38 0 -96 -41 -128 -58c-6 -3 -11 -2 -6 10c7 17 19 33 33 41c28 15 67 34 96 45c25 10 44 14 58 14zM150 41h1c15 0 41 8 52 18c12 8 17 19 18 34s3 36 4 56c0 9 -3 10 -13 8
c-28 -4 -69 -17 -86 -27c-17 -9 -29 -21 -29 -41c-1 -28 25 -48 53 -48zM297 572h1c14 0 9 -13 2 -24c-17 -26 -60 -73 -85 -95c-16 -13 -35 -21 -50 -24c-14 -4 -14 4 -4 16s48 72 58 97c5 10 12 14 24 18c16 6 42 12 54 12z" />
    <glyph glyph-name="acircumflex" unicode="&#xe2;" horiz-adv-x="378" 
d="M242 385h1c36 0 64 -46 58 -113c-4 -47 -7 -108 -8 -155c-1 -30 0 -52 9 -64s20 -17 33 -17c12 0 33 7 42 13c7 4 7 -10 -1 -19c-15 -19 -51 -47 -92 -47c-27 0 -50 27 -60 49c-4 7 -7 7 -16 2c-27 -18 -79 -44 -101 -44c-25 0 -57 11 -70 34c-6 10 -10 22 -10 38
c0 19 10 35 22 48c36 38 104 66 162 83c12 3 17 7 18 15c1 11 2 27 2 45c1 32 -5 80 -42 80c-38 0 -96 -41 -128 -58c-6 -3 -11 -2 -6 10c7 17 19 33 33 41c28 15 67 34 96 45c25 10 44 14 58 14zM150 41h1c15 0 41 8 52 18c12 8 17 19 18 34s3 36 4 56c0 9 -3 10 -13 8
c-28 -4 -69 -17 -86 -27c-17 -9 -29 -21 -29 -41c-1 -28 25 -48 53 -48zM199 572h1c6 0 13 -7 21 -17c7 -10 21 -31 32 -56c13 -28 17 -38 17 -45c0 -6 -5 -13 -14 -20c-7 -5 -14 -8 -17 -8c-4 0 -6 3 -8 11c-3 9 -13 31 -26 55c-5 8 -9 14 -13 14c-3 0 -7 -4 -13 -11
c-9 -11 -40 -45 -51 -54c-9 -7 -20 -11 -26 -11c-3 0 -7 1 -9 4s2 10 11 19c17 20 64 90 74 103c7 10 13 16 21 16z" />
    <glyph glyph-name="adieresis" unicode="&#xe4;" horiz-adv-x="378" 
d="M242 385h1c36 0 64 -46 58 -113c-4 -47 -7 -108 -8 -155c-1 -30 0 -52 9 -64s20 -17 33 -17c12 0 33 7 42 13c7 4 7 -10 -1 -19c-15 -19 -51 -47 -92 -47c-27 0 -50 27 -60 49c-4 7 -7 7 -16 2c-27 -18 -79 -44 -101 -44c-25 0 -57 11 -70 34c-6 10 -10 22 -10 38
c0 19 10 35 22 48c36 38 104 66 162 83c12 3 17 7 18 15c1 11 2 27 2 45c1 32 -5 80 -42 80c-38 0 -96 -41 -128 -58c-6 -3 -11 -2 -6 10c7 17 19 33 33 41c28 15 67 34 96 45c25 10 44 14 58 14zM150 41h1c15 0 41 8 52 18c12 8 17 19 18 34s3 36 4 56c0 9 -3 10 -13 8
c-28 -4 -69 -17 -86 -27c-17 -9 -29 -21 -29 -41c-1 -28 25 -48 53 -48zM264 543h1c5 0 10 -4 16 -13c5 -8 14 -24 20 -31c6 -6 7 -12 -1 -21c-10 -11 -35 -27 -48 -27s-35 20 -37 39c-3 14 9 26 23 39c13 11 22 14 26 14zM121 541h1c8 0 14 -6 21 -13c5 -6 10 -11 14 -17
c4 -4 6 -10 4 -17c-3 -16 -32 -43 -53 -43c-14 0 -37 26 -37 41c0 19 39 49 50 49z" />
    <glyph glyph-name="agrave" unicode="&#xe0;" horiz-adv-x="378" 
d="M242 385h1c36 0 64 -46 58 -113c-4 -47 -7 -108 -8 -155c-1 -30 0 -52 9 -64s20 -17 33 -17c12 0 33 7 42 13c7 4 7 -10 -1 -19c-15 -19 -51 -47 -92 -47c-27 0 -50 27 -60 49c-4 7 -7 7 -16 2c-27 -18 -79 -44 -101 -44c-25 0 -57 11 -70 34c-6 10 -10 22 -10 38
c0 19 10 35 22 48c36 38 104 66 162 83c12 3 17 7 18 15c1 11 2 27 2 45c1 32 -5 80 -42 80c-38 0 -96 -41 -128 -58c-6 -3 -11 -2 -6 10c7 17 19 33 33 41c28 15 67 34 96 45c25 10 44 14 58 14zM150 41h1c15 0 41 8 52 18c12 8 17 19 18 34s3 36 4 56c0 9 -3 10 -13 8
c-28 -4 -69 -17 -86 -27c-17 -9 -29 -21 -29 -41c-1 -28 25 -48 53 -48zM164 572h1c4 0 7 -5 8 -12c2 -7 4 -15 9 -25c11 -28 41 -73 55 -93c9 -9 8 -13 0 -17c-8 -3 -15 -2 -24 3c-27 13 -74 54 -89 79c-6 9 -10 18 -10 26c0 14 16 26 26 32c8 5 18 7 24 7z" />
    <glyph glyph-name="aring" unicode="&#xe5;" horiz-adv-x="378" 
d="M242 385h1c36 0 64 -46 58 -113c-4 -47 -7 -108 -8 -155c-1 -30 0 -52 9 -64s20 -17 33 -17c12 0 33 7 42 13c7 4 7 -10 -1 -19c-15 -19 -51 -47 -92 -47c-27 0 -50 27 -60 49c-4 7 -7 7 -16 2c-27 -18 -79 -44 -101 -44c-25 0 -57 11 -70 34c-6 10 -10 22 -10 38
c0 19 10 35 22 48c36 38 104 66 162 83c12 3 17 7 18 15c1 11 2 27 2 45c1 32 -5 80 -42 80c-38 0 -96 -41 -128 -58c-6 -3 -11 -2 -6 10c7 17 19 33 33 41c28 15 67 34 96 45c25 10 44 14 58 14zM150 41h1c15 0 41 8 52 18c12 8 17 19 18 34s3 36 4 56c0 9 -3 10 -13 8
c-28 -4 -69 -17 -86 -27c-17 -9 -29 -21 -29 -41c-1 -28 25 -48 53 -48zM217 590h1c38 0 59 -31 59 -68c0 -50 -50 -93 -97 -93c-22 0 -62 16 -62 65s52 96 99 96zM197 555h-1c-23 0 -39 -19 -39 -45c0 -28 19 -45 41 -45c27 0 39 17 39 44c0 20 -11 46 -40 46z" />
    <glyph glyph-name="atilde" unicode="&#xe3;" horiz-adv-x="378" 
d="M242 385h1c36 0 64 -46 58 -113c-4 -47 -7 -108 -8 -155c-1 -30 0 -52 9 -64s20 -17 33 -17c12 0 33 7 42 13c7 4 7 -10 -1 -19c-15 -19 -51 -47 -92 -47c-27 0 -50 27 -60 49c-4 7 -7 7 -16 2c-27 -18 -79 -44 -101 -44c-25 0 -57 11 -70 34c-6 10 -10 22 -10 38
c0 19 10 35 22 48c36 38 104 66 162 83c12 3 17 7 18 15c1 11 2 27 2 45c1 32 -5 80 -42 80c-38 0 -96 -41 -128 -58c-6 -3 -11 -2 -6 10c7 17 19 33 33 41c28 15 67 34 96 45c25 10 44 14 58 14zM150 41h1c15 0 41 8 52 18c12 8 17 19 18 34s3 36 4 56c0 9 -3 10 -13 8
c-28 -4 -69 -17 -86 -27c-17 -9 -29 -21 -29 -41c-1 -28 25 -48 53 -48zM157 546h1c18 0 32 -20 45 -35c11 -12 22 -21 30 -21c12 0 24 13 33 30c3 6 7 12 12 17c5 6 7 8 10 8s5 -5 5 -11c-2 -35 -38 -92 -78 -92c-18 0 -33 15 -49 32c-12 14 -20 19 -26 19
c-12 0 -29 -25 -35 -34s-13 -13 -17 -13s-7 6 -3 18c9 24 41 82 72 82z" />
    <glyph glyph-name="ccedilla" unicode="&#xe7;" horiz-adv-x="356" 
d="M276 383h1c18 0 50 -15 50 -33c0 -14 -27 -33 -39 -40c-7 -4 -10 -4 -14 0c-12 11 -35 19 -54 19c-32 0 -64 -24 -80 -45c-17 -22 -34 -58 -34 -109c0 -80 37 -131 118 -131c44 0 90 23 122 47c8 6 9 3 8 -5c-2 -9 -8 -22 -21 -32c-26 -21 -59 -40 -100 -54
c-7 -2 -13 -6 -19 -11c-13 -12 -29 -31 -29 -42c0 -7 4 -14 12 -21c14 -15 35 -35 35 -62c0 -55 -87 -94 -117 -94c-9 0 -15 4 -14 9c1 6 9 11 18 15c23 8 60 26 60 50c0 16 -21 36 -38 52c-7 8 -12 16 -12 24c0 7 2 15 11 25c12 15 23 27 30 34c5 5 2 8 -9 8
c-94 0 -130 73 -130 137c0 98 67 173 141 219c32 20 76 40 104 40z" />
    <glyph glyph-name="eacute" unicode="&#xe9;" horiz-adv-x="376" 
d="M162 -10h-1c-49 0 -104 27 -121 89c-6 19 -9 42 -9 69c0 71 33 144 101 193c33 24 74 42 111 42c44 0 66 -22 76 -42c11 -20 14 -51 13 -62c0 -7 2 -9 18 -7c13 2 13 -7 3 -15s-36 -20 -74 -31s-103 -25 -154 -35c-14 -3 -19 -5 -19 -18c-3 -75 35 -127 115 -126
c50 0 102 20 134 47c12 10 10 -15 -4 -28c-34 -34 -115 -76 -189 -76zM205 343h-1c-39 0 -80 -46 -91 -106c-2 -10 1 -12 14 -10c23 3 77 12 113 21c18 4 25 10 25 23c1 14 -3 34 -11 46c-10 16 -26 26 -49 26zM311 569h1c14 0 9 -13 2 -24c-17 -26 -60 -73 -85 -95
c-16 -13 -35 -21 -50 -24c-14 -4 -14 4 -4 16s48 72 58 97c5 10 12 14 24 18c16 6 42 12 54 12z" />
    <glyph glyph-name="ecircumflex" unicode="&#xea;" horiz-adv-x="376" 
d="M162 -10h-1c-49 0 -104 27 -121 89c-6 19 -9 42 -9 69c0 71 33 144 101 193c33 24 74 42 111 42c44 0 66 -22 76 -42c11 -20 14 -51 13 -62c0 -7 2 -9 18 -7c13 2 13 -7 3 -15s-36 -20 -74 -31s-103 -25 -154 -35c-14 -3 -19 -5 -19 -18c-3 -75 35 -127 115 -126
c50 0 102 20 134 47c12 10 10 -15 -4 -28c-34 -34 -115 -76 -189 -76zM205 343h-1c-39 0 -80 -46 -91 -106c-2 -10 1 -12 14 -10c23 3 77 12 113 21c18 4 25 10 25 23c1 14 -3 34 -11 46c-10 16 -26 26 -49 26zM229 571h1c6 0 13 -7 21 -17c7 -10 21 -31 32 -56
c13 -28 17 -38 17 -45c0 -6 -5 -13 -14 -20c-7 -5 -14 -8 -17 -8c-4 0 -6 3 -8 11c-3 9 -13 31 -26 55c-5 8 -9 14 -13 14c-3 0 -7 -4 -13 -11c-9 -11 -40 -45 -51 -54c-9 -7 -20 -11 -26 -11c-3 0 -7 1 -9 4s2 10 11 19c17 20 64 90 74 103c7 10 13 16 21 16z" />
    <glyph glyph-name="edieresis" unicode="&#xeb;" horiz-adv-x="376" 
d="M162 -10h-1c-49 0 -104 27 -121 89c-6 19 -9 42 -9 69c0 71 33 144 101 193c33 24 74 42 111 42c44 0 66 -22 76 -42c11 -20 14 -51 13 -62c0 -7 2 -9 18 -7c13 2 13 -7 3 -15s-36 -20 -74 -31s-103 -25 -154 -35c-14 -3 -19 -5 -19 -18c-3 -75 35 -127 115 -126
c50 0 102 20 134 47c12 10 10 -15 -4 -28c-34 -34 -115 -76 -189 -76zM205 343h-1c-39 0 -80 -46 -91 -106c-2 -10 1 -12 14 -10c23 3 77 12 113 21c18 4 25 10 25 23c1 14 -3 34 -11 46c-10 16 -26 26 -49 26zM281 546h1c5 0 10 -4 16 -13c5 -8 14 -24 20 -31
c6 -6 7 -12 -1 -21c-10 -11 -35 -27 -48 -27s-35 20 -37 39c-3 14 9 26 23 39c13 11 22 14 26 14zM138 544h1c8 0 14 -6 21 -13c5 -6 10 -11 14 -17c4 -4 6 -10 4 -17c-3 -16 -32 -43 -53 -43c-14 0 -37 26 -37 41c0 19 39 49 50 49z" />
    <glyph glyph-name="egrave" unicode="&#xe8;" horiz-adv-x="376" 
d="M162 -10h-1c-49 0 -104 27 -121 89c-6 19 -9 42 -9 69c0 71 33 144 101 193c33 24 74 42 111 42c44 0 66 -22 76 -42c11 -20 14 -51 13 -62c0 -7 2 -9 18 -7c13 2 13 -7 3 -15s-36 -20 -74 -31s-103 -25 -154 -35c-14 -3 -19 -5 -19 -18c-3 -75 35 -127 115 -126
c50 0 102 20 134 47c12 10 10 -15 -4 -28c-34 -34 -115 -76 -189 -76zM205 343h-1c-39 0 -80 -46 -91 -106c-2 -10 1 -12 14 -10c23 3 77 12 113 21c18 4 25 10 25 23c1 14 -3 34 -11 46c-10 16 -26 26 -49 26zM160 572h1c4 0 7 -5 8 -12c2 -7 4 -15 9 -25
c11 -28 41 -73 55 -93c9 -9 8 -13 0 -17c-8 -3 -15 -2 -24 3c-27 13 -74 54 -89 79c-6 9 -10 18 -10 26c0 14 16 26 26 32c8 5 18 7 24 7z" />
    <glyph glyph-name="iacute" unicode="&#xed;" horiz-adv-x="233" 
d="M144 383h1c15 0 11 -65 8 -92c-4 -48 -13 -148 -13 -190c-1 -50 16 -62 32 -62c14 0 32 4 50 14c12 7 12 -12 -3 -23c-43 -32 -89 -45 -109 -45c-31 0 -45 39 -42 90c2 42 8 123 13 183c4 47 -1 68 -6 76c-3 4 -4 8 4 15c21 17 53 34 65 34zM222 570h1c14 0 9 -13 2 -24
c-17 -26 -60 -73 -85 -95c-16 -13 -35 -21 -50 -24c-14 -4 -14 4 -4 16s48 72 58 97c5 10 12 14 24 18c16 6 42 12 54 12z" />
    <glyph glyph-name="icircumflex" unicode="&#xee;" horiz-adv-x="233" 
d="M144 383h1c15 0 11 -65 8 -92c-4 -48 -13 -148 -13 -190c-1 -50 16 -62 32 -62c14 0 32 4 50 14c12 7 12 -12 -3 -23c-43 -32 -89 -45 -109 -45c-31 0 -45 39 -42 90c2 42 8 123 13 183c4 47 -1 68 -6 76c-3 4 -4 8 4 15c21 17 53 34 65 34zM137 572h1c6 0 13 -7 21 -17
c7 -10 21 -31 32 -56c13 -28 17 -38 17 -45c0 -6 -5 -13 -14 -20c-7 -5 -14 -8 -17 -8c-4 0 -6 3 -8 11c-3 9 -13 31 -26 55c-5 8 -9 14 -13 14c-3 0 -7 -4 -13 -11c-9 -11 -40 -45 -51 -54c-9 -7 -20 -11 -26 -11c-3 0 -7 1 -9 4s2 10 11 19c17 20 64 90 74 103
c7 10 13 16 21 16z" />
    <glyph glyph-name="idieresis" unicode="&#xef;" horiz-adv-x="233" 
d="M144 383h1c15 0 11 -65 8 -92c-4 -48 -13 -148 -13 -190c-1 -50 16 -62 32 -62c14 0 32 4 50 14c12 7 12 -12 -3 -23c-43 -32 -89 -45 -109 -45c-31 0 -45 39 -42 90c2 42 8 123 13 183c4 47 -1 68 -6 76c-3 4 -4 8 4 15c21 17 53 34 65 34zM201 546h1c5 0 10 -4 16 -13
c5 -8 14 -24 20 -31c6 -6 7 -12 -1 -21c-10 -11 -35 -27 -48 -27s-35 20 -37 39c-3 14 9 26 23 39c13 11 22 14 26 14zM58 544h1c8 0 14 -6 21 -13c5 -6 10 -11 14 -17c4 -4 6 -10 4 -17c-3 -16 -32 -43 -53 -43c-14 0 -37 26 -37 41c0 19 39 49 50 49z" />
    <glyph glyph-name="igrave" unicode="&#xec;" horiz-adv-x="233" 
d="M144 383h1c15 0 11 -65 8 -92c-4 -48 -13 -148 -13 -190c-1 -50 16 -62 32 -62c14 0 32 4 50 14c12 7 12 -12 -3 -23c-43 -32 -89 -45 -109 -45c-31 0 -45 39 -42 90c2 42 8 123 13 183c4 47 -1 68 -6 76c-3 4 -4 8 4 15c21 17 53 34 65 34zM84 572h1c4 0 7 -5 8 -12
c2 -7 4 -15 9 -25c11 -28 41 -73 55 -93c9 -9 8 -13 0 -17c-8 -3 -15 -2 -24 3c-27 13 -74 54 -89 79c-6 9 -10 18 -10 26c0 14 16 26 26 32c8 5 18 7 24 7z" />
    <glyph glyph-name="ntilde" unicode="&#xf1;" horiz-adv-x="473" 
d="M343 384h1c42 0 50 -68 48 -125c-2 -43 -7 -106 -9 -154c-2 -54 13 -72 32 -72c16 0 38 7 53 15c8 4 7 -12 -6 -24c-33 -27 -78 -44 -104 -44c-17 0 -30 8 -40 21c-9 11 -12 32 -9 66c3 35 11 105 13 149c3 39 4 104 -39 104c-34 0 -82 -46 -105 -73
c-35 -44 -38 -98 -44 -166c-2 -20 -4 -36 -12 -49c-9 -18 -48 -45 -62 -45c-5 0 -8 2 -3 17c9 39 20 152 20 221c0 62 -4 98 -19 114c-4 3 -4 6 1 12c13 14 56 42 64 42c20 0 24 -83 25 -123c0 -11 6 -11 13 -3c36 37 86 79 130 102c22 11 38 15 52 15zM214 546h1
c18 0 32 -20 45 -35c11 -12 22 -21 30 -21c12 0 24 13 33 30c3 6 7 12 12 17c5 6 7 8 10 8s5 -5 5 -11c-2 -35 -38 -92 -78 -92c-18 0 -33 15 -49 32c-12 14 -20 19 -26 19c-12 0 -29 -25 -35 -34s-13 -13 -17 -13s-7 6 -3 18c9 24 41 82 72 82z" />
    <glyph glyph-name="oacute" unicode="&#xf3;" horiz-adv-x="435" 
d="M291 383h1c38 0 113 -25 113 -142c0 -81 -39 -131 -81 -169c-43 -39 -113 -81 -176 -81c-71 0 -117 48 -117 141c0 73 32 128 84 168c12 9 27 16 38 20c18 8 18 -5 6 -17c-41 -35 -56 -79 -56 -131c0 -79 32 -129 98 -129c28 0 61 12 85 36c21 22 43 65 43 127
c0 72 -31 126 -86 126c-14 0 -30 -3 -41 -8c-8 -4 -9 8 1 18c21 20 57 41 88 41zM340 567h1c14 0 9 -13 2 -24c-17 -26 -60 -73 -85 -95c-16 -13 -35 -21 -50 -24c-14 -4 -14 4 -4 16s48 72 58 97c5 10 12 14 24 18c16 6 42 12 54 12z" />
    <glyph glyph-name="ocircumflex" unicode="&#xf4;" horiz-adv-x="435" 
d="M291 383h1c38 0 113 -25 113 -142c0 -81 -39 -131 -81 -169c-43 -39 -113 -81 -176 -81c-71 0 -117 48 -117 141c0 73 32 128 84 168c12 9 27 16 38 20c18 8 18 -5 6 -17c-41 -35 -56 -79 -56 -131c0 -79 32 -129 98 -129c28 0 61 12 85 36c21 22 43 65 43 127
c0 72 -31 126 -86 126c-14 0 -30 -3 -41 -8c-8 -4 -9 8 1 18c21 20 57 41 88 41zM261 569h1c6 0 13 -7 21 -17c7 -10 21 -31 32 -56c13 -28 17 -38 17 -45c0 -6 -5 -13 -14 -20c-7 -5 -14 -8 -17 -8c-4 0 -6 3 -8 11c-3 9 -13 31 -26 55c-5 8 -9 14 -13 14
c-3 0 -7 -4 -13 -11c-9 -11 -40 -45 -51 -54c-9 -7 -20 -11 -26 -11c-3 0 -7 1 -9 4s2 10 11 19c17 20 64 90 74 103c7 10 13 16 21 16z" />
    <glyph glyph-name="odieresis" unicode="&#xf6;" horiz-adv-x="435" 
d="M291 383h1c38 0 113 -25 113 -142c0 -81 -39 -131 -81 -169c-43 -39 -113 -81 -176 -81c-71 0 -117 48 -117 141c0 73 32 128 84 168c12 9 27 16 38 20c18 8 18 -5 6 -17c-41 -35 -56 -79 -56 -131c0 -79 32 -129 98 -129c28 0 61 12 85 36c21 22 43 65 43 127
c0 72 -31 126 -86 126c-14 0 -30 -3 -41 -8c-8 -4 -9 8 1 18c21 20 57 41 88 41zM318 541h1c5 0 10 -4 16 -13c5 -8 14 -24 20 -31c6 -6 7 -12 -1 -21c-10 -11 -35 -27 -48 -27s-35 20 -37 39c-3 14 9 26 23 39c13 11 22 14 26 14zM175 539h1c8 0 14 -6 21 -13
c5 -6 10 -11 14 -17c4 -4 6 -10 4 -17c-3 -16 -32 -43 -53 -43c-14 0 -37 26 -37 41c0 19 39 49 50 49z" />
    <glyph glyph-name="ograve" unicode="&#xf2;" horiz-adv-x="435" 
d="M291 383h1c38 0 113 -25 113 -142c0 -81 -39 -131 -81 -169c-43 -39 -113 -81 -176 -81c-71 0 -117 48 -117 141c0 73 32 128 84 168c12 9 27 16 38 20c18 8 18 -5 6 -17c-41 -35 -56 -79 -56 -131c0 -79 32 -129 98 -129c28 0 61 12 85 36c21 22 43 65 43 127
c0 72 -31 126 -86 126c-14 0 -30 -3 -41 -8c-8 -4 -9 8 1 18c21 20 57 41 88 41zM212 571h1c4 0 7 -5 8 -12c2 -7 4 -15 9 -25c11 -28 41 -73 55 -93c9 -9 8 -13 0 -17c-8 -3 -15 -2 -24 3c-27 13 -74 54 -89 79c-6 9 -10 18 -10 26c0 14 16 26 26 32c8 5 18 7 24 7z" />
    <glyph glyph-name="otilde" unicode="&#xf5;" horiz-adv-x="435" 
d="M291 383h1c38 0 113 -25 113 -142c0 -81 -39 -131 -81 -169c-43 -39 -113 -81 -176 -81c-71 0 -117 48 -117 141c0 73 32 128 84 168c12 9 27 16 38 20c18 8 18 -5 6 -17c-41 -35 -56 -79 -56 -131c0 -79 32 -129 98 -129c28 0 61 12 85 36c21 22 43 65 43 127
c0 72 -31 126 -86 126c-14 0 -30 -3 -41 -8c-8 -4 -9 8 1 18c21 20 57 41 88 41zM207 543h1c18 0 32 -20 45 -35c11 -12 22 -21 30 -21c12 0 24 13 33 30c3 6 7 12 12 17c5 6 7 8 10 8s5 -5 5 -11c-2 -35 -38 -92 -78 -92c-18 0 -33 15 -49 32c-12 14 -20 19 -26 19
c-12 0 -29 -25 -35 -34s-13 -13 -17 -13s-7 6 -3 18c9 24 41 82 72 82z" />
    <glyph glyph-name="scaron" unicode="&#x161;" horiz-adv-x="306" 
d="M51 238c-1 58 60 106 107 130c25 14 49 18 61 18c22 0 45 -10 45 -28c0 -11 -19 -30 -29 -37c-6 -3 -9 -4 -12 -1c-9 9 -28 18 -51 18c-28 0 -58 -27 -58 -58c0 -39 50 -53 111 -81c32 -14 49 -34 49 -60c0 -64 -71 -111 -113 -130c-27 -13 -55 -20 -78 -20
c-21 0 -61 10 -61 34c0 10 25 30 36 37c8 6 11 4 14 1c9 -14 38 -26 64 -26c34 0 71 25 71 60c0 19 -14 36 -50 52c-20 8 -46 18 -65 29c-27 15 -40 37 -41 62zM161 428h-1c-4 0 -7 6 -9 13c-10 31 -36 75 -54 95c-7 7 -7 11 -3 16c4 6 11 13 16 16c7 4 14 4 20 -2
c15 -13 37 -44 43 -55c4 -8 8 -9 15 -1c16 17 47 46 67 59c11 8 21 7 21 2c0 -7 -4 -16 -12 -25c-29 -34 -62 -75 -83 -107c-6 -7 -12 -11 -20 -11z" />
    <glyph glyph-name="uacute" unicode="&#xfa;" horiz-adv-x="479" 
d="M146 -9h-1c-44 0 -77 45 -76 105c0 29 3 54 4 85c4 47 7 80 7 102s-4 45 -14 55c-4 3 -2 7 8 15c29 21 56 34 65 34c20 0 15 -78 12 -112c-4 -36 -9 -95 -10 -137c-2 -63 22 -85 59 -85c44 0 89 49 107 80c11 17 14 30 17 50c3 24 7 78 8 109c1 19 -2 36 -6 45
c-2 5 -1 7 6 11c11 10 50 36 64 36c9 0 10 -12 9 -34c-3 -40 -16 -175 -17 -214c-1 -33 -4 -98 42 -98c13 0 31 4 43 11c10 6 13 -7 -1 -20c-27 -26 -67 -45 -97 -45c-46 0 -56 58 -59 93c0 11 -4 13 -14 4c-13 -11 -71 -59 -100 -74c-20 -11 -35 -16 -56 -16zM350 572h1
c14 0 9 -13 2 -24c-17 -26 -60 -73 -85 -95c-16 -13 -35 -21 -50 -24c-14 -4 -14 4 -4 16s48 72 58 97c5 10 12 14 24 18c16 6 42 12 54 12z" />
    <glyph glyph-name="ucircumflex" unicode="&#xfb;" horiz-adv-x="479" 
d="M146 -9h-1c-44 0 -77 45 -76 105c0 29 3 54 4 85c4 47 7 80 7 102s-4 45 -14 55c-4 3 -2 7 8 15c29 21 56 34 65 34c20 0 15 -78 12 -112c-4 -36 -9 -95 -10 -137c-2 -63 22 -85 59 -85c44 0 89 49 107 80c11 17 14 30 17 50c3 24 7 78 8 109c1 19 -2 36 -6 45
c-2 5 -1 7 6 11c11 10 50 36 64 36c9 0 10 -12 9 -34c-3 -40 -16 -175 -17 -214c-1 -33 -4 -98 42 -98c13 0 31 4 43 11c10 6 13 -7 -1 -20c-27 -26 -67 -45 -97 -45c-46 0 -56 58 -59 93c0 11 -4 13 -14 4c-13 -11 -71 -59 -100 -74c-20 -11 -35 -16 -56 -16zM266 572h1
c6 0 13 -7 21 -17c7 -10 21 -31 32 -56c13 -28 17 -38 17 -45c0 -6 -5 -13 -14 -20c-7 -5 -14 -8 -17 -8c-4 0 -6 3 -8 11c-3 9 -13 31 -26 55c-5 8 -9 14 -13 14c-3 0 -7 -4 -13 -11c-9 -11 -40 -45 -51 -54c-9 -7 -20 -11 -26 -11c-3 0 -7 1 -9 4s2 10 11 19
c17 20 64 90 74 103c7 10 13 16 21 16z" />
    <glyph glyph-name="udieresis" unicode="&#xfc;" horiz-adv-x="479" 
d="M146 -9h-1c-44 0 -77 45 -76 105c0 29 3 54 4 85c4 47 7 80 7 102s-4 45 -14 55c-4 3 -2 7 8 15c29 21 56 34 65 34c20 0 15 -78 12 -112c-4 -36 -9 -95 -10 -137c-2 -63 22 -85 59 -85c44 0 89 49 107 80c11 17 14 30 17 50c3 24 7 78 8 109c1 19 -2 36 -6 45
c-2 5 -1 7 6 11c11 10 50 36 64 36c9 0 10 -12 9 -34c-3 -40 -16 -175 -17 -214c-1 -33 -4 -98 42 -98c13 0 31 4 43 11c10 6 13 -7 -1 -20c-27 -26 -67 -45 -97 -45c-46 0 -56 58 -59 93c0 11 -4 13 -14 4c-13 -11 -71 -59 -100 -74c-20 -11 -35 -16 -56 -16zM326 550h1
c5 0 10 -4 16 -13c5 -8 14 -24 20 -31c6 -6 7 -12 -1 -21c-10 -11 -35 -27 -48 -27s-35 20 -37 39c-3 14 9 26 23 39c13 11 22 14 26 14zM183 548h1c8 0 14 -6 21 -13c5 -6 10 -11 14 -17c4 -4 6 -10 4 -17c-3 -16 -32 -43 -53 -43c-14 0 -37 26 -37 41c0 19 39 49 50 49z
" />
    <glyph glyph-name="ugrave" unicode="&#xf9;" horiz-adv-x="479" 
d="M146 -9h-1c-44 0 -77 45 -76 105c0 29 3 54 4 85c4 47 7 80 7 102s-4 45 -14 55c-4 3 -2 7 8 15c29 21 56 34 65 34c20 0 15 -78 12 -112c-4 -36 -9 -95 -10 -137c-2 -63 22 -85 59 -85c44 0 89 49 107 80c11 17 14 30 17 50c3 24 7 78 8 109c1 19 -2 36 -6 45
c-2 5 -1 7 6 11c11 10 50 36 64 36c9 0 10 -12 9 -34c-3 -40 -16 -175 -17 -214c-1 -33 -4 -98 42 -98c13 0 31 4 43 11c10 6 13 -7 -1 -20c-27 -26 -67 -45 -97 -45c-46 0 -56 58 -59 93c0 11 -4 13 -14 4c-13 -11 -71 -59 -100 -74c-20 -11 -35 -16 -56 -16zM207 572h1
c4 0 7 -5 8 -12c2 -7 4 -15 9 -25c11 -28 41 -73 55 -93c9 -9 8 -13 0 -17c-8 -3 -15 -2 -24 3c-27 13 -74 54 -89 79c-6 9 -10 18 -10 26c0 14 16 26 26 32c8 5 18 7 24 7z" />
    <glyph glyph-name="yacute" unicode="&#xfd;" horiz-adv-x="407" 
d="M105 385h1c19 0 40 -21 51 -49c16 -35 31 -84 44 -138c13 -55 26 -100 32 -115c4 -13 10 -20 16 -20c4 0 7 5 11 13c31 62 72 189 66 265c-1 8 3 12 10 18c8 8 36 30 47 31c6 2 9 -4 10 -17c1 -28 -18 -99 -32 -143c-40 -121 -108 -276 -209 -395
c-27 -30 -93 -102 -125 -102c-8 0 -10 7 -8 15c7 22 45 92 54 89c11 -4 21 -4 28 1c27 19 73 76 93 121c4 8 1 12 -4 20c-9 16 -18 44 -26 74c-24 93 -45 170 -68 228c-13 28 -29 43 -41 43c-11 0 -28 -3 -39 -9c-9 -6 -10 6 -1 18c19 24 60 52 90 52zM336 572h1
c14 0 9 -13 2 -24c-17 -26 -60 -73 -85 -95c-16 -13 -35 -21 -50 -24c-14 -4 -14 4 -4 16s48 72 58 97c5 10 12 14 24 18c16 6 42 12 54 12z" />
    <glyph glyph-name="ydieresis" unicode="&#xff;" horiz-adv-x="407" 
d="M105 385h1c19 0 40 -21 51 -49c16 -35 31 -84 44 -138c13 -55 26 -100 32 -115c4 -13 10 -20 16 -20c4 0 7 5 11 13c31 62 72 189 66 265c-1 8 3 12 10 18c8 8 36 30 47 31c6 2 9 -4 10 -17c1 -28 -18 -99 -32 -143c-40 -121 -108 -276 -209 -395
c-27 -30 -93 -102 -125 -102c-8 0 -10 7 -8 15c7 22 45 92 54 89c11 -4 21 -4 28 1c27 19 73 76 93 121c4 8 1 12 -4 20c-9 16 -18 44 -26 74c-24 93 -45 170 -68 228c-13 28 -29 43 -41 43c-11 0 -28 -3 -39 -9c-9 -6 -10 6 -1 18c19 24 60 52 90 52zM311 550h1
c5 0 10 -4 16 -13c5 -8 14 -24 20 -31c6 -6 7 -12 -1 -21c-10 -11 -35 -27 -48 -27s-35 20 -37 39c-3 14 9 26 23 39c13 11 22 14 26 14zM168 548h1c8 0 14 -6 21 -13c5 -6 10 -11 14 -17c4 -4 6 -10 4 -17c-3 -16 -32 -43 -53 -43c-14 0 -37 26 -37 41c0 19 39 49 50 49z
" />
    <glyph glyph-name="zcaron" unicode="&#x17e;" horiz-adv-x="410" 
d="M172 381h1c27 0 81 -10 105 -16c25 -5 36 -5 47 -5c14 0 27 11 40 22c9 8 27 14 38 14c5 0 3 -6 -7 -19c-26 -30 -224 -254 -250 -281c-10 -11 -9 -17 2 -19c16 -4 42 -11 66 -17c32 -8 57 -16 88 -16c46 0 83 34 107 62c9 9 10 -11 0 -26c-46 -61 -106 -94 -157 -94
c-36 0 -79 15 -118 25c-25 6 -38 8 -52 8c-20 0 -43 -14 -55 -26c-8 -8 -17 -5 -16 4c1 8 9 24 26 40c69 67 193 206 226 250c9 13 10 18 -1 19c-14 1 -39 5 -62 9c-18 2 -38 4 -54 4c-46 0 -83 -30 -105 -55c-10 -11 -18 -2 -7 18c26 46 80 99 138 99zM222 428h-1
c-4 0 -7 6 -9 13c-10 31 -36 75 -54 95c-7 7 -7 11 -3 16c4 6 11 13 16 16c7 4 14 4 20 -2c15 -13 37 -44 43 -55c4 -8 8 -9 15 -1c16 17 47 46 67 59c11 8 21 7 21 2c0 -7 -4 -16 -12 -25c-29 -34 -62 -75 -83 -107c-6 -7 -12 -11 -20 -11z" />
    <glyph glyph-name="dollaroldstyle" unicode="&#xf724;" horiz-adv-x="416" 
d="M297 448h1c30 0 71 -11 72 -38c0 -12 -19 -32 -29 -38c-9 -5 -12 -5 -14 2c-7 19 -32 34 -61 34c-7 0 -8 -1 -10 -10c-4 -29 -10 -78 -19 -134c-2 -9 -1 -12 6 -14c21 -6 47 -12 65 -17c46 -13 68 -36 68 -73c0 -85 -99 -141 -170 -157c-8 -3 -10 -5 -12 -12
c-5 -44 -12 -72 -11 -95c0 -10 -2 -12 -7 -12c-11 0 -31 22 -27 47c2 16 3 28 8 56c1 6 0 8 -5 8h-21c-53 0 -106 23 -106 54c0 13 18 32 30 40c11 7 13 6 16 -1c10 -30 46 -56 84 -57c8 -1 10 1 11 9c8 51 16 94 23 142c1 7 -1 10 -9 12c-68 16 -115 37 -116 92
c0 33 16 62 44 90c26 25 63 46 107 59c9 3 11 5 12 12c3 20 6 48 4 57c-1 6 -1 8 6 16c11 13 27 23 32 23c9 0 0 -52 -5 -89c0 -6 1 -9 6 -8c9 1 17 2 27 2zM127 321v-1c0 -32 29 -47 66 -57c7 -3 9 -1 10 6c9 59 15 98 18 128c1 9 -2 10 -10 8c-46 -8 -84 -41 -84 -84z
M308 119v1c0 41 -38 52 -74 61c-8 2 -10 1 -11 -7c-6 -36 -12 -72 -20 -130c-1 -10 0 -11 7 -10c44 7 98 37 98 85z" />
    <glyph glyph-name="dollarsuperior" unicode="&#xf6e4;" horiz-adv-x="295" 
d="M206 610h1c23 0 54 -12 54 -29c0 -10 -16 -30 -24 -34c-6 -3 -8 -4 -9 1c-4 16 -21 32 -40 32c-5 0 -5 -1 -6 -6c-3 -20 -7 -43 -14 -80c-1 -6 0 -8 4 -9c15 -4 35 -9 48 -13c31 -9 45 -29 45 -53c0 -56 -69 -95 -119 -106c-5 -2 -7 -3 -7 -7c-5 -29 -9 -49 -8 -64
c0 -7 -2 -8 -5 -8c-7 0 -24 14 -22 31c1 11 3 22 6 38c0 4 0 5 -4 5h-14c-42 0 -74 18 -74 39c0 9 17 30 25 36c7 4 9 3 11 -1c9 -25 29 -44 55 -44c4 0 6 1 7 6c6 31 10 50 16 82c0 5 0 7 -7 9c-51 13 -79 26 -80 65c0 22 11 45 30 64c19 16 45 31 75 39c7 2 8 3 8 7
c3 14 4 33 4 39c-1 3 -1 4 3 9c8 9 22 15 26 15c6 0 0 -27 -4 -58c0 -5 1 -6 5 -6c5 1 9 1 14 1zM95 529v-1c0 -19 15 -28 39 -35c5 -1 7 0 7 5c7 39 10 56 13 76c1 6 -1 6 -7 6c-32 -6 -52 -25 -52 -51zM210 389v1c0 23 -19 29 -44 36c-5 1 -7 1 -8 -5
c-4 -24 -8 -37 -13 -75c-1 -7 0 -8 5 -7c30 4 60 18 60 50z" />
    <glyph glyph-name="parenleftsuperior" unicode="&#x207d;" horiz-adv-x="230" 
d="M78 434v-1c0 -33 7 -84 27 -116c22 -35 44 -59 66 -65c7 -1 5 -7 1 -9c-7 -4 -34 -10 -43 -10c-3 0 -12 1 -23 7c-13 8 -30 21 -47 51c-22 37 -27 83 -27 125c1 101 43 178 100 225c26 22 52 34 61 34c6 0 16 -10 16 -11c0 0 0 -2 -3 -3c-38 -11 -71 -38 -93 -79
c-27 -49 -35 -96 -35 -148z" />
    <glyph glyph-name="parenrightsuperior" unicode="&#x207e;" horiz-adv-x="230" 
d="M151 474v1c0 33 -7 84 -26 116c-23 35 -45 59 -67 64c-7 2 -5 7 -1 10c7 4 35 10 43 10c3 0 12 -1 23 -8c13 -7 30 -20 47 -49c21 -38 27 -85 27 -126c-1 -101 -43 -178 -100 -225c-26 -22 -52 -34 -61 -34c-6 0 -16 8 -16 9s0 3 4 4c37 12 70 39 93 81
c26 48 34 95 34 147z" />
    <glyph glyph-name="zerooldstyle" unicode="&#xf730;" horiz-adv-x="441" 
d="M295 393h1c39 0 111 -28 111 -145c0 -81 -39 -140 -81 -177c-43 -39 -113 -80 -176 -80c-71 0 -117 51 -117 145c0 72 35 134 86 174c12 9 27 16 39 20c15 6 18 -4 10 -11c-46 -38 -63 -92 -63 -144c0 -78 33 -132 99 -132c29 0 60 11 84 35c22 23 43 76 43 134
c0 73 -29 130 -84 130c-14 0 -35 -4 -45 -10c-5 -2 -7 8 6 20c20 20 57 41 87 41z" />
    <glyph glyph-name="oneoldstyle" unicode="&#xf731;" horiz-adv-x="310" 
d="M167 -12h-1c-14 0 -20 18 -20 58s7 106 9 150c3 41 7 92 4 107c-2 9 -5 11 -10 9c-23 -10 -60 -19 -80 -22c-15 -2 -38 2 -40 10c0 3 6 7 24 12c25 7 118 42 156 68c14 10 28 18 33 18c4 0 6 0 6 -3c0 -4 -2 -11 -6 -16c-3 -5 -4 -15 -5 -28c-2 -39 -12 -132 -14 -175
c-2 -34 -4 -75 -4 -103c0 -29 10 -40 18 -43c5 -2 8 -3 7 -6c-1 -4 -5 -11 -18 -18c-15 -8 -48 -18 -59 -18z" />
    <glyph glyph-name="twooldstyle" unicode="&#xf732;" horiz-adv-x="392" 
d="M216 392h1c68 0 106 -51 106 -99c0 -55 -33 -92 -84 -136c-30 -28 -66 -57 -87 -77c-7 -6 -7 -10 0 -11c12 -2 28 -6 48 -10c31 -8 57 -13 82 -13c35 0 62 23 83 52c6 7 15 8 18 8c4 0 2 -12 -6 -23c-37 -58 -92 -94 -132 -94s-99 19 -126 27c-12 3 -21 4 -29 4
c-11 0 -27 -7 -33 -11c-10 -7 -27 -15 -32 -15c-6 0 -2 11 6 21c12 15 57 49 91 76c66 56 126 110 126 177c0 37 -27 68 -71 68c-41 0 -81 -30 -112 -63c-5 -6 -9 -8 -12 -8c-4 0 -3 12 2 21c3 7 12 22 28 38c27 28 79 68 133 68z" />
    <glyph glyph-name="threeoldstyle" unicode="&#xf733;" horiz-adv-x="383" 
d="M225 391h1c46 0 90 -34 90 -82c0 -49 -47 -85 -84 -115c-8 -7 -14 -12 -14 -17s6 -7 20 -13c53 -20 103 -50 103 -113s-57 -110 -105 -139c-55 -33 -111 -45 -149 -45c-34 0 -82 15 -83 47c0 11 32 40 44 40c3 0 5 -2 6 -6c11 -27 50 -40 81 -40c88 0 129 60 129 115
c0 35 -19 58 -47 76c-21 14 -49 20 -61 20c-19 0 -34 -4 -49 -7c-5 0 -12 3 -12 8c1 4 11 17 22 23c57 33 123 65 123 134c0 34 -25 70 -66 70s-66 -29 -69 -48c0 -6 -11 -13 -21 -20c-10 -6 -32 -16 -38 -16c-10 0 -7 17 9 35c33 39 107 93 170 93z" />
    <glyph glyph-name="fouroldstyle" unicode="&#xf734;" horiz-adv-x="433" 
d="M323 243h1c12 0 11 -28 11 -47c-2 -24 -5 -65 -10 -112c-1 -7 1 -10 6 -11c6 -1 13 -1 24 -1c18 0 47 4 63 15c6 4 9 3 9 -1c-1 -5 -5 -11 -12 -18c-20 -22 -63 -30 -87 -32c-7 0 -10 -3 -11 -10c-2 -12 -6 -57 -8 -86c-1 -15 3 -29 11 -38c5 -4 4 -6 -1 -11
c-10 -8 -48 -28 -62 -28c-13 0 -17 14 -16 47c3 39 8 82 10 112c1 10 0 11 -10 12c-31 3 -104 10 -144 10c-29 0 -51 -3 -60 -9c-6 -5 -9 -7 -13 -7c-3 0 -4 3 -4 8c0 7 12 24 21 37c8 11 37 47 80 101c56 71 96 132 114 163c12 21 20 44 21 55c1 5 9 12 21 21
c10 9 28 23 33 23c4 0 5 -4 4 -11c-1 -20 -32 -76 -71 -134c-35 -50 -128 -175 -140 -192c-7 -8 -6 -13 2 -13c10 0 23 -1 33 -1c31 -1 86 -7 109 -8c8 -1 10 1 12 10c3 17 6 51 7 71c1 19 -2 32 -7 40c-4 4 -2 5 2 9c9 9 54 36 62 36z" />
    <glyph glyph-name="fiveoldstyle" unicode="&#xf735;" horiz-adv-x="380" 
d="M339 58v-1c0 -77 -70 -131 -128 -160c-40 -20 -78 -29 -115 -29c-28 0 -54 8 -65 18c-9 7 -12 16 -12 24c0 13 27 44 37 44c4 0 5 -1 7 -7c7 -18 38 -38 77 -38c34 0 70 11 98 37c24 21 34 48 34 72c0 39 -22 58 -76 75c-31 9 -75 17 -93 23c-31 9 -47 22 -42 63
c5 38 20 111 28 153c4 18 8 34 13 45c3 7 8 12 12 12c3 0 5 -4 6 -9c3 -16 51 -22 106 -22c66 0 95 19 110 40c5 7 9 13 13 13c5 0 6 -15 1 -27c-9 -24 -29 -47 -53 -63c-22 -14 -60 -24 -100 -24c-25 0 -55 1 -68 3c-7 1 -10 -3 -14 -12c-5 -13 -13 -50 -13 -68
c0 -26 20 -37 61 -49c23 -6 67 -15 98 -24c59 -15 78 -49 78 -89z" />
    <glyph glyph-name="sixoldstyle" unicode="&#xf736;" horiz-adv-x="426" 
d="M339 512h1c31 0 51 -26 55 -44c2 -8 0 -15 -6 -11c-19 13 -45 18 -82 18c-33 0 -70 -14 -97 -38c-47 -38 -98 -118 -98 -254c0 -104 56 -152 111 -152c64 0 100 50 100 113c0 53 -35 93 -81 93c-27 0 -49 -13 -62 -23c-9 -6 -20 -10 -24 -11c-6 0 -10 1 -8 7
c1 5 17 21 50 43c35 22 70 36 90 36c72 0 103 -55 103 -112c0 -73 -64 -133 -105 -158c-29 -18 -69 -31 -105 -31c-88 0 -144 59 -144 171c0 83 23 145 50 192c32 55 88 106 155 138c38 17 71 23 97 23z" />
    <glyph glyph-name="sevenoldstyle" unicode="&#xf737;" horiz-adv-x="413" 
d="M326 364h1c22 0 34 11 47 33c7 11 12 17 18 17c5 0 4 -11 4 -18c-1 -10 -13 -41 -23 -59c-24 -46 -161 -286 -194 -360c-12 -26 -19 -46 -18 -57c0 -8 2 -17 7 -23c4 -4 2 -7 -5 -12c-9 -7 -40 -22 -52 -22c-11 0 -18 6 -18 22c1 18 22 63 50 113c44 76 128 220 165 294
c5 10 2 14 -5 14c-14 0 -54 4 -87 8c-25 3 -55 7 -83 7c-45 0 -70 -24 -96 -69c-4 -7 -7 -12 -11 -12c-6 0 -9 16 -3 31c19 49 62 118 114 118c31 0 64 -6 97 -13c34 -7 72 -12 92 -12z" />
    <glyph glyph-name="eightoldstyle" unicode="&#xf738;" horiz-adv-x="410" 
d="M296 487h1c49 0 73 -41 73 -74c0 -37 -23 -65 -44 -86c-19 -19 -54 -47 -71 -60c-8 -5 -6 -9 1 -13c13 -6 39 -21 62 -34c46 -27 56 -57 56 -82c0 -65 -61 -99 -96 -119c-34 -18 -81 -30 -108 -30c-62 0 -134 32 -134 101c0 61 63 96 106 133c8 5 9 10 2 14
c-20 14 -60 39 -60 85c0 45 25 77 65 106c21 14 35 18 40 18c4 0 8 1 8 -3c0 -6 -8 -12 -18 -20c-18 -14 -34 -40 -34 -71c0 -32 36 -59 65 -74c8 -5 14 -4 20 -1c36 28 79 71 79 116c0 34 -26 56 -56 56c-11 0 -22 -2 -29 -4c-5 -1 -9 -1 -9 3c0 5 13 19 34 28
c14 7 32 11 47 11zM209 29h1c51 0 97 30 97 78c0 17 -7 38 -36 59c-28 21 -62 36 -80 44c-11 5 -15 4 -23 -1c-27 -20 -64 -56 -64 -93c0 -57 56 -87 105 -87z" />
    <glyph glyph-name="nineoldstyle" unicode="&#xf739;" horiz-adv-x="419" 
d="M240 392h1c61 0 139 -49 139 -188c0 -114 -40 -193 -77 -238c-50 -59 -139 -112 -219 -112c-27 0 -62 22 -68 58c-2 7 0 13 5 9c17 -17 57 -27 97 -27c49 0 98 22 133 73c34 47 52 120 52 214c0 106 -47 172 -107 172c-22 0 -42 -10 -56 -22c-21 -18 -36 -48 -36 -88
c0 -60 48 -93 86 -93c21 0 45 8 58 17c5 5 8 6 10 3c3 -2 -2 -14 -8 -22c-20 -27 -67 -51 -110 -51c-54 0 -103 39 -103 112c0 54 32 113 99 153c23 14 63 30 104 30z" />
    <glyph glyph-name="commasuperior" unicode="&#xf6e2;" horiz-adv-x="116" 
d="M66 401h1c16 0 29 -24 29 -48c0 -61 -66 -109 -105 -128c-7 -3 -11 -2 -8 2c6 9 11 18 19 24c28 21 47 40 47 76c0 15 -8 27 -20 33c-5 3 -4 6 -4 8c0 3 18 19 28 26c5 5 10 7 13 7z" />
    <glyph glyph-name="periodsuperior" unicode="&#xf6e8;" horiz-adv-x="120" 
d="M74 383h1c2 0 4 -6 7 -12c3 -8 8 -19 15 -28c4 -6 1 -12 -2 -15c-8 -9 -31 -28 -43 -28c-10 0 -24 26 -26 35c-2 8 -1 16 15 31c14 13 28 17 33 17z" />
    <glyph glyph-name="centsuperior" unicode="&#xf6e0;" horiz-adv-x="295" 
d="M34 433v1c0 73 63 117 128 140c6 1 7 3 8 6c1 13 4 32 3 37s-1 7 3 11c6 6 21 14 25 14c6 0 1 -21 -3 -57c-1 -5 0 -5 4 -4c5 0 9 1 15 1c16 0 37 -7 37 -22c0 -7 -7 -24 -16 -30c-5 -4 -7 -5 -10 0c-5 12 -16 22 -28 22c-5 0 -5 -2 -6 -7c-5 -36 -15 -109 -21 -148
c-1 -6 0 -7 4 -6c40 3 66 26 78 36c4 4 6 2 5 -2c0 -4 -6 -19 -12 -25c-14 -14 -37 -32 -74 -42c-6 -2 -7 -3 -8 -10c-6 -33 -7 -44 -2 -51c3 -3 0 -6 -5 -10c-9 -7 -23 -12 -26 -12c-6 0 -6 9 -4 21c1 11 5 27 8 49c2 6 1 8 -5 8c-54 0 -98 25 -98 80zM92 456v-1
c0 -32 14 -57 46 -62c5 -1 6 1 7 7c7 41 16 98 21 144c0 5 -1 6 -6 4c-41 -11 -68 -45 -68 -92z" />
    <glyph glyph-name="parenleftinferior" unicode="&#x208d;" horiz-adv-x="230" 
d="M78 27v-1c0 -33 7 -84 27 -116c22 -35 44 -59 66 -65c7 -1 5 -7 1 -9c-7 -4 -34 -10 -43 -10c-3 0 -12 1 -23 7c-13 8 -30 21 -47 51c-22 37 -27 83 -27 125c1 101 43 178 100 225c26 22 52 34 61 34c6 0 16 -10 16 -11c0 0 0 -2 -3 -3c-38 -11 -71 -38 -93 -79
c-27 -49 -35 -96 -35 -148z" />
    <glyph glyph-name="parenrightinferior" unicode="&#x208e;" horiz-adv-x="230" 
d="M151 67v1c0 33 -7 84 -26 116c-23 35 -45 59 -67 64c-7 2 -5 7 -1 10c7 4 35 10 43 10c3 0 12 -1 23 -8c13 -7 30 -20 47 -49c21 -38 27 -85 27 -126c-1 -101 -43 -178 -100 -225c-26 -22 -52 -34 -61 -34c-6 0 -16 8 -16 9s0 3 4 4c37 12 70 39 93 81
c26 48 34 95 34 147z" />
    <glyph glyph-name="hyphensuperior" unicode="&#xf6e6;" horiz-adv-x="181" 
d="M159 478c-8 -17 -27 -33 -43 -38c-32 -10 -83 -17 -93 -18c-4 0 -7 -1 -3 6c9 13 22 32 25 32c26 3 91 15 113 24c2 1 4 0 1 -6z" />
    <glyph glyph-name="centoldstyle" unicode="&#xf7a2;" horiz-adv-x="416" 
d="M45 147v1c0 112 98 183 193 218c8 3 11 5 12 11c1 19 5 50 3 59c-2 6 -2 11 4 16c10 10 28 22 33 22c9 0 2 -32 -4 -89c-1 -7 1 -7 6 -6c8 1 16 2 27 2c23 0 53 -8 53 -32c0 -11 -11 -24 -23 -34c-8 -6 -11 -6 -15 2c-5 13 -27 24 -45 24c-6 0 -8 -4 -9 -11
c-6 -57 -23 -180 -32 -245c-2 -9 0 -11 6 -10c59 5 101 39 118 54c7 6 9 3 9 -3c-1 -5 -8 -22 -18 -31c-18 -19 -58 -47 -114 -62c-8 -2 -10 -5 -12 -15c-9 -51 -10 -68 -3 -77c4 -6 -1 -9 -8 -16c-13 -11 -28 -18 -33 -18c-9 0 -7 21 -4 40c3 17 5 30 11 67
c2 10 1 13 -9 13c-77 0 -146 36 -146 120zM118 183v-1c0 -59 27 -95 81 -104c7 -1 10 1 11 11c11 64 26 168 35 238c0 9 -2 11 -10 8c-65 -19 -117 -82 -117 -152z" />
    <glyph glyph-name="hypheninferior" unicode="&#xf6e5;" horiz-adv-x="181" 
d="M159 71c-8 -17 -27 -33 -43 -38c-32 -10 -83 -17 -93 -18c-4 0 -7 -1 -3 6c9 13 22 32 25 32c26 3 91 15 113 24c2 1 4 0 1 -6z" />
    <glyph glyph-name="oneeighth" unicode="&#x215b;" horiz-adv-x="722" 
d="M158 188h-1c-10 0 -20 10 -21 33c-1 25 8 107 11 150c4 38 5 60 4 72c0 8 -2 9 -10 6c-23 -10 -59 -17 -70 -17c-6 0 -13 -1 -20 1c-6 2 -7 6 -2 10s14 9 23 12c36 11 89 33 118 48c13 6 19 9 25 9c4 0 8 -1 8 -5s-3 -7 -5 -10c-3 -4 -3 -11 -3 -17
c0 -33 -6 -102 -11 -152c-2 -34 -4 -66 -3 -79s6 -19 13 -19c4 -1 7 -2 7 -7c-1 -14 -48 -35 -63 -35zM570 555h1c6 0 5 -6 -2 -20c-46 -81 -313 -442 -395 -534c-24 -27 -63 -51 -75 -51c-9 0 -8 6 1 17c99 115 280 356 368 487c18 27 36 54 44 70c4 9 11 12 20 17
c13 7 33 14 38 14zM587 314h1c36 0 54 -27 54 -49c0 -25 -15 -42 -30 -55c-14 -12 -32 -27 -43 -35c-5 -4 -4 -6 2 -8c9 -5 24 -11 41 -20c31 -17 33 -37 33 -55c0 -43 -45 -70 -71 -83c-23 -12 -57 -19 -77 -19c-47 0 -96 21 -96 67c0 37 37 59 69 81c5 3 6 6 1 9
c-19 11 -42 22 -42 56c0 29 21 54 51 73c13 8 28 11 31 11s7 -2 7 -4c0 -3 -4 -7 -10 -11c-15 -10 -27 -22 -27 -42c0 -22 23 -36 51 -48c6 -2 9 -2 13 0c24 17 48 39 48 66c0 22 -18 35 -39 35c-8 0 -15 -1 -21 -2c-4 -2 -5 1 -5 2c0 5 11 17 27 23c9 5 23 8 32 8zM528 22
h1c33 0 61 16 61 44c0 11 -4 24 -25 37c-21 14 -44 21 -58 27c-7 2 -11 2 -16 -1c-17 -12 -38 -29 -38 -52c0 -37 40 -55 75 -55z" />
    <glyph glyph-name="threeeighths" unicode="&#x215c;" horiz-adv-x="722" 
d="M207 506h1c32 0 66 -18 66 -56c0 -25 -23 -48 -50 -66c-7 -4 -13 -10 -13 -14s7 -7 18 -11c34 -13 66 -32 66 -70c0 -37 -35 -68 -86 -94c-31 -16 -73 -31 -105 -31c-24 0 -64 11 -65 36c0 15 26 34 38 34c4 0 6 -1 8 -6c11 -16 33 -27 57 -27c37 0 81 21 81 65
c0 22 -13 37 -31 47s-34 12 -48 12c-10 0 -23 -3 -30 -4c-7 0 -12 1 -12 6s9 17 23 24c31 15 78 33 78 79c0 17 -13 39 -42 39c-20 0 -37 -15 -38 -23c-1 -10 -15 -19 -28 -25c-9 -5 -19 -8 -25 -8c-10 0 -8 18 5 31c28 27 88 62 132 62zM599 555h1c5 0 4 -6 -2 -20
c-46 -81 -314 -442 -396 -534c-24 -27 -63 -51 -75 -51c-9 0 -8 6 1 17c99 115 281 356 369 487c18 26 36 54 44 70c3 9 10 12 20 17c13 7 32 14 38 14zM606 314h1c36 0 54 -27 54 -49c0 -25 -15 -42 -30 -55c-14 -11 -32 -26 -43 -34c-5 -4 -3 -6 2 -9c9 -4 24 -10 41 -19
c31 -17 33 -38 33 -55c0 -44 -45 -71 -70 -84c-24 -12 -58 -19 -77 -19c-47 0 -96 21 -96 67c0 38 37 59 68 82c5 3 6 6 1 8c-19 11 -42 23 -42 57c0 29 21 53 51 72c13 8 28 11 31 11s7 -2 7 -4c0 -3 -4 -7 -10 -11c-15 -10 -27 -22 -27 -42c0 -22 23 -35 51 -47
c6 -3 9 -2 13 0c24 17 48 38 48 66c0 21 -18 34 -39 34c-8 0 -15 -1 -21 -2c-4 -2 -5 1 -5 2c0 5 11 17 27 23c9 5 23 8 32 8zM548 22h1c33 0 60 16 60 44c0 11 -4 24 -25 38c-21 13 -43 21 -58 26c-6 3 -10 3 -15 -1c-17 -12 -38 -29 -38 -51c0 -38 39 -56 75 -56z" />
    <glyph glyph-name="fiveeighths" unicode="&#x215d;" horiz-adv-x="722" 
d="M287 289v-1c0 -50 -52 -86 -95 -106c-29 -13 -53 -18 -82 -18c-25 0 -44 8 -52 16c-6 4 -9 11 -9 16c0 8 25 41 32 41c2 0 6 1 7 -2c8 -19 34 -35 63 -35c20 0 39 3 57 18c11 9 20 23 20 41c0 22 -13 33 -53 43c-23 6 -52 12 -65 16c-22 6 -35 15 -31 41
c3 22 16 81 22 107c3 13 6 23 9 30c2 5 6 9 9 9c2 0 4 -2 5 -6c3 -10 39 -14 80 -14c48 0 69 12 80 25c4 5 7 9 9 9c4 0 6 -11 2 -19c-6 -18 -22 -40 -41 -51c-15 -9 -45 -16 -74 -16c-19 0 -39 1 -48 2c-5 0 -8 -2 -10 -8c-3 -8 -8 -20 -8 -31c0 -17 13 -22 43 -30
c17 -4 53 -11 76 -16c43 -10 54 -35 54 -61zM599 555h1c6 0 5 -7 -2 -20c-45 -81 -313 -442 -395 -534c-24 -27 -62 -51 -74 -51c-9 0 -9 6 0 17c99 115 280 356 368 487c18 26 36 54 44 70c4 9 11 12 21 17c12 7 32 14 37 14zM606 314h1c36 0 54 -27 54 -49
c0 -25 -15 -42 -30 -55c-14 -12 -32 -26 -43 -34c-5 -4 -4 -6 2 -8c9 -5 24 -11 41 -20c31 -17 33 -38 33 -55c0 -44 -45 -71 -71 -84c-23 -12 -57 -19 -77 -19c-47 0 -96 21 -96 67c0 38 37 59 69 82c5 3 6 6 1 8c-19 12 -42 23 -42 57c0 28 21 53 51 72c13 8 28 11 31 11
s7 -2 7 -4c0 -3 -4 -7 -10 -11c-15 -10 -27 -22 -27 -42c0 -22 23 -35 51 -47c6 -3 9 -2 13 0c24 16 48 38 48 66c0 21 -18 34 -39 34c-8 0 -15 -1 -21 -2c-4 -2 -5 1 -5 2c0 5 11 17 27 23c9 5 23 8 32 8zM547 22h1c33 0 61 16 61 44c0 11 -4 24 -25 38
c-20 13 -44 21 -58 26c-7 3 -11 3 -16 0c-17 -13 -38 -30 -38 -52c0 -38 40 -56 75 -56z" />
    <glyph glyph-name="seveneighths" unicode="&#x215e;" horiz-adv-x="722" 
d="M279 486h1c19 0 31 10 39 21c5 8 11 13 14 13s5 -8 5 -12c-1 -8 -11 -30 -18 -42c-17 -27 -112 -188 -135 -236c-9 -17 -14 -29 -13 -36c0 -5 2 -10 5 -14c3 -2 3 -4 -2 -6c-6 -5 -35 -16 -44 -16c-6 0 -11 5 -11 15c1 14 15 42 34 73c31 50 86 134 113 183c4 7 1 9 -4 9
c-10 0 -35 2 -60 5c-17 2 -36 4 -56 4c-31 0 -48 -16 -68 -46c-2 -3 -5 -7 -8 -7c-5 0 -8 12 -4 23c14 32 47 86 84 86c20 0 43 -4 66 -8c23 -5 45 -9 62 -9zM577 555h1c6 0 5 -6 -2 -20c-46 -82 -313 -442 -396 -534c-24 -27 -62 -51 -74 -51c-9 0 -9 6 1 17
c99 115 279 356 368 487c18 27 36 55 44 70c3 9 10 12 20 18c13 6 32 13 38 13zM593 314h1c36 0 54 -27 54 -49c0 -25 -15 -42 -30 -55c-14 -12 -32 -27 -43 -35c-5 -3 -4 -6 2 -8c9 -5 24 -10 41 -20c31 -16 33 -37 33 -55c0 -43 -45 -70 -71 -83c-23 -12 -57 -19 -77 -19
c-47 0 -96 21 -96 67c0 37 37 59 69 81c5 3 6 6 1 9c-19 11 -42 22 -42 56c0 29 21 54 51 73c13 8 28 11 31 11s7 -2 7 -4c0 -3 -4 -7 -10 -11c-15 -10 -27 -22 -27 -42c0 -22 23 -35 51 -48c6 -2 9 -2 13 1c24 16 48 38 48 66c0 21 -18 34 -39 34c-8 0 -15 -1 -21 -2
c-4 -2 -5 1 -5 2c0 5 11 17 27 23c9 5 23 8 32 8zM534 22h1c33 0 61 16 61 44c0 11 -4 24 -25 37c-21 14 -44 21 -58 27c-7 2 -11 3 -16 -1c-17 -12 -38 -29 -38 -52c0 -37 40 -55 75 -55z" />
    <glyph glyph-name="onethird" unicode="&#x2153;" horiz-adv-x="722" 
d="M160 188h-1c-10 0 -20 10 -21 33c-1 25 8 107 11 150c4 38 5 60 4 72c0 8 -2 9 -10 6c-23 -10 -59 -18 -70 -18c-6 0 -13 0 -20 2c-6 2 -7 5 -2 10c5 4 14 9 23 12c36 11 89 33 118 48c13 6 19 9 25 9c4 0 8 -1 8 -5s-3 -7 -5 -10c-3 -4 -3 -11 -3 -17
c0 -34 -6 -102 -11 -152c-2 -35 -4 -66 -3 -79s6 -19 13 -19c4 -1 7 -3 7 -7c-1 -14 -48 -35 -63 -35zM574 555h1c5 0 4 -6 -2 -20c-46 -81 -314 -442 -396 -534c-24 -27 -62 -51 -74 -51c-10 0 -9 6 0 17c99 115 280 356 369 487c18 27 36 54 43 70c4 9 11 12 21 17
c12 7 32 14 38 14zM571 311h1c32 0 66 -18 66 -56c0 -26 -24 -48 -51 -66c-7 -5 -12 -10 -12 -14s7 -7 18 -11c33 -13 66 -33 66 -70s-36 -69 -86 -94c-32 -16 -73 -31 -105 -31c-24 0 -64 10 -65 36c0 14 26 34 38 34c4 0 6 -1 8 -6c10 -16 33 -27 57 -27c37 0 81 21 81 64
c0 22 -13 37 -31 47s-34 12 -48 12c-10 0 -23 -2 -31 -3c-7 -1 -12 1 -12 5c0 6 9 18 23 25c31 14 78 33 78 79c0 17 -13 39 -42 39c-20 0 -37 -15 -38 -23c-1 -10 -15 -19 -28 -26c-9 -4 -19 -7 -25 -7c-10 0 -8 18 5 31c28 27 89 62 133 62z" />
    <glyph glyph-name="twothirds" unicode="&#x2154;" horiz-adv-x="722" 
d="M187 506h1c60 0 85 -41 85 -80c0 -64 -91 -116 -133 -157c-9 -7 -9 -13 -1 -14c7 -1 22 -5 36 -8c19 -5 47 -10 68 -10c20 0 42 9 58 26c6 6 11 8 15 6c4 -4 0 -15 -10 -28c-28 -33 -64 -56 -102 -56c-30 0 -87 18 -103 22c-11 2 -15 2 -19 2c-23 0 -39 -21 -54 -21
c-8 0 -8 11 0 21c9 11 50 46 64 57c47 38 107 93 107 141c0 28 -20 50 -53 50c-27 0 -64 -23 -78 -40c-7 -6 -13 -10 -16 -10s-5 3 -5 9c0 7 13 26 37 47c21 18 62 43 103 43zM608 555h1c6 0 5 -6 -2 -20c-45 -82 -313 -442 -395 -534c-24 -27 -63 -51 -75 -51
c-9 0 -8 6 1 17c99 115 280 356 369 487c18 26 36 54 43 70c4 9 11 12 21 17c12 7 32 14 37 14zM599 311h1c32 0 66 -18 66 -56c0 -26 -24 -48 -51 -66c-7 -5 -12 -10 -12 -14s7 -7 18 -12c33 -13 66 -32 66 -69s-36 -69 -86 -94c-32 -16 -73 -31 -105 -31
c-24 0 -65 10 -65 36c0 14 26 34 38 34c4 0 6 -1 8 -6c10 -16 33 -27 57 -27c37 0 81 21 81 64c0 22 -13 37 -31 47s-34 12 -48 12c-10 0 -23 -2 -31 -3c-7 -1 -12 1 -12 5c0 6 9 18 23 24c31 15 78 33 78 79c0 17 -13 40 -42 40c-20 0 -37 -15 -38 -23
c-1 -11 -15 -19 -28 -26c-9 -5 -19 -8 -25 -8c-10 0 -8 18 5 31c28 28 89 63 133 63z" />
    <glyph glyph-name="zerosuperior" unicode="&#x2070;" 
d="M200 621h1c57 0 82 -55 82 -112c0 -60 -14 -100 -31 -128c-20 -33 -50 -53 -70 -64c-17 -9 -40 -17 -59 -17c-60 0 -97 42 -97 114c0 44 9 78 26 108c17 29 46 49 57 54c10 5 17 2 17 -1c0 -2 -5 -7 -10 -15c-24 -29 -31 -62 -31 -111c0 -64 26 -109 69 -109
c16 0 31 4 44 20c15 20 26 54 26 120c0 40 -15 102 -59 102c-12 0 -21 -3 -27 -4c-2 -1 -5 -1 -4 2c1 5 12 21 23 28c13 8 30 13 43 13z" />
    <glyph glyph-name="foursuperior" unicode="&#x2074;" 
d="M222 534h1c13 0 11 -21 11 -37c0 -14 -3 -46 -6 -63c-1 -6 0 -8 4 -8c20 -1 48 -1 64 8c7 5 12 4 12 0c0 -5 -5 -10 -10 -16c-17 -17 -44 -25 -65 -26c-7 -1 -10 -2 -11 -8c-1 -5 -5 -26 -5 -41c0 -16 5 -21 11 -25c8 -5 6 -10 0 -15c-8 -7 -41 -22 -56 -22
s-20 17 -10 101c1 7 -2 8 -9 9s-54 7 -93 7c-18 0 -32 -3 -38 -8c-4 -3 -8 -4 -12 -4c-3 0 -6 2 -6 9s8 22 17 33c44 50 110 124 137 170c9 15 16 28 16 32c0 6 7 12 21 21c8 5 18 9 22 9c5 0 6 -3 6 -12c0 -14 -24 -50 -46 -78c-32 -41 -87 -106 -102 -125
c-6 -6 -7 -10 -1 -10c27 0 60 -2 83 -5c6 0 9 1 11 8c2 10 4 24 4 36c0 14 -1 19 -4 24c-1 4 -1 8 4 12c8 7 38 24 50 24z" />
    <glyph glyph-name="fivesuperior" unicode="&#x2075;" 
d="M267 403v-1c0 -50 -52 -86 -95 -106c-29 -13 -53 -18 -82 -18c-25 0 -44 8 -52 16c-6 4 -9 11 -9 16c0 8 25 41 32 41c2 0 6 1 7 -2c8 -19 34 -35 63 -35c20 0 39 3 57 18c11 9 20 23 20 41c0 22 -13 33 -53 43c-23 6 -52 12 -65 16c-22 6 -35 15 -31 41
c3 22 16 81 22 107c3 13 6 23 9 30c2 5 6 9 9 9c2 0 4 -2 5 -6c3 -10 39 -14 80 -14c48 0 69 12 80 25c4 5 7 9 9 9c4 0 6 -11 2 -19c-6 -18 -22 -40 -41 -51c-15 -9 -45 -16 -74 -16c-19 0 -39 1 -48 2c-5 0 -8 -2 -10 -8c-3 -8 -8 -20 -8 -31c0 -17 13 -22 43 -30
c17 -4 53 -11 76 -16c43 -10 54 -35 54 -61z" />
    <glyph glyph-name="sixsuperior" unicode="&#x2076;" 
d="M243 642h1c21 0 39 -7 39 -18c0 -9 -19 -29 -25 -32c-3 -1 -4 -1 -6 0c-6 7 -21 16 -38 16c-21 0 -38 -6 -54 -18c-35 -25 -69 -74 -69 -158c0 -67 36 -98 74 -98c40 0 65 25 65 66c0 35 -23 59 -56 59c-19 0 -31 -7 -41 -13c-6 -4 -16 -5 -18 -6c-4 0 -5 1 -4 4
c0 5 15 21 37 35c24 14 47 23 63 23c52 0 74 -37 74 -74c0 -53 -48 -92 -79 -109c-21 -11 -49 -21 -76 -21c-64 0 -103 39 -103 113c0 57 15 94 35 124c25 38 64 70 113 91c28 12 50 16 68 16z" />
    <glyph glyph-name="sevensuperior" unicode="&#x2077;" 
d="M231 600h1c19 0 32 10 40 21c5 8 11 13 14 13c4 0 5 -8 5 -12c-1 -8 -11 -30 -18 -42c-17 -27 -112 -187 -135 -235c-9 -17 -14 -29 -13 -36c0 -6 2 -10 5 -15c3 -2 3 -3 -2 -6c-6 -5 -35 -15 -44 -15c-6 0 -11 4 -11 15c1 14 15 41 34 73c31 50 86 133 113 182
c4 7 1 9 -4 9c-9 0 -35 2 -60 5c-17 2 -36 4 -56 4c-31 0 -48 -16 -68 -46c-2 -3 -5 -7 -8 -7c-5 0 -8 12 -4 23c14 32 47 86 84 86c20 0 43 -4 66 -8c23 -5 45 -9 61 -9z" />
    <glyph glyph-name="eightsuperior" unicode="&#x2078;" 
d="M216 623h1c36 0 54 -27 54 -49c0 -25 -15 -42 -30 -55c-14 -12 -32 -26 -43 -34c-5 -4 -4 -7 2 -9c9 -5 24 -10 41 -20c31 -17 33 -37 33 -55c0 -44 -45 -71 -70 -84c-24 -12 -58 -19 -77 -19c-47 0 -97 21 -97 67c0 38 37 60 69 82c5 3 6 6 1 9c-19 11 -42 22 -42 57
c0 28 21 53 51 72c13 8 27 11 31 11c3 0 7 -2 7 -4c0 -3 -4 -7 -10 -11c-15 -10 -27 -22 -27 -42c0 -22 23 -35 51 -47c6 -3 9 -3 13 0c24 17 48 38 48 66c0 21 -18 34 -39 34c-8 0 -16 -1 -21 -2c-4 -2 -5 1 -5 2c0 5 11 17 27 23c9 5 23 8 32 8zM157 330h1
c33 0 61 16 61 44c0 12 -4 25 -25 38c-21 14 -44 21 -58 27c-6 2 -10 2 -15 -1c-17 -12 -38 -30 -38 -52c0 -38 39 -56 74 -56z" />
    <glyph glyph-name="ninesuperior" unicode="&#x2079;" 
d="M176 621h1c44 0 100 -31 100 -121c0 -74 -29 -125 -56 -154c-37 -40 -99 -72 -154 -72c-21 0 -46 21 -50 45c-1 4 1 10 5 6c13 -11 43 -18 69 -18c34 0 64 13 87 45c22 31 34 74 34 132c0 66 -30 107 -69 107c-14 0 -25 -6 -35 -14c-13 -10 -22 -28 -22 -52
c0 -39 28 -58 53 -58c10 0 29 4 36 9c4 3 6 4 7 3c2 -2 -2 -14 -6 -19c-13 -17 -47 -33 -74 -33c-39 0 -73 25 -73 73c0 37 25 75 73 102c16 8 45 19 74 19z" />
    <glyph glyph-name="zeroinferior" unicode="&#x2080;" 
d="M200 214h1c57 0 82 -55 82 -112c0 -60 -14 -100 -31 -128c-20 -33 -50 -53 -70 -64c-17 -9 -40 -17 -59 -17c-60 0 -97 42 -97 114c0 44 9 78 26 108c17 29 46 49 57 54c10 5 17 2 17 -1c0 -2 -5 -7 -10 -15c-24 -29 -31 -62 -31 -111c0 -64 26 -109 69 -109
c16 0 31 4 44 20c15 20 26 54 26 120c0 40 -15 102 -59 102c-12 0 -21 -3 -27 -4c-2 -1 -5 -1 -4 2c1 5 12 21 23 28c13 8 30 13 43 13z" />
    <glyph glyph-name="oneinferior" unicode="&#x2081;" 
d="M150 -105h-1c-10 0 -20 10 -21 32c-1 26 8 107 11 151c4 38 5 60 4 72c0 8 -2 9 -10 6c-23 -10 -59 -18 -70 -18c-6 0 -13 0 -20 2c-6 2 -7 5 -2 10c5 4 14 9 23 12c36 11 89 33 118 48c13 6 19 9 25 9c4 0 8 -1 8 -5s-3 -7 -5 -10c-3 -4 -3 -11 -3 -17
c0 -34 -6 -102 -11 -152c-2 -35 -4 -67 -3 -79c1 -13 6 -19 13 -19c4 -1 7 -3 7 -7c-1 -14 -48 -35 -63 -35z" />
    <glyph glyph-name="twoinferior" unicode="&#x2082;" 
d="M174 213h1c60 0 85 -41 85 -80c0 -64 -91 -116 -133 -157c-9 -7 -9 -13 -1 -14c7 -1 22 -5 36 -8c19 -5 47 -10 68 -10c20 0 42 9 58 26c6 5 11 8 15 5c4 -4 0 -15 -10 -27c-28 -33 -64 -56 -102 -56c-30 0 -87 18 -103 22c-11 2 -15 2 -19 2c-23 0 -39 -21 -54 -21
c-8 0 -8 11 0 21c9 11 50 45 64 57c47 38 107 93 107 141c0 28 -20 50 -53 50c-27 0 -64 -23 -78 -40c-7 -6 -13 -10 -16 -10s-5 3 -5 9c0 7 13 26 37 47c21 18 62 43 103 43z" />
    <glyph glyph-name="threeinferior" unicode="&#x2083;" 
d="M194 213h1c32 0 66 -18 66 -56c0 -25 -24 -48 -51 -66c-7 -4 -12 -10 -12 -14s7 -7 19 -11c33 -13 66 -32 66 -70c0 -37 -36 -69 -86 -94c-32 -16 -73 -31 -105 -31c-24 0 -64 10 -65 36c0 14 26 34 38 34c4 0 6 -1 8 -6c10 -16 33 -27 57 -27c37 0 81 21 81 64
c0 22 -13 37 -31 48c-18 10 -34 11 -48 11c-10 0 -23 -2 -32 -3c-7 -1 -12 1 -12 6s9 17 23 24c31 15 78 33 78 79c0 17 -13 39 -42 39c-20 0 -37 -15 -38 -23c-1 -10 -15 -19 -28 -25c-9 -5 -19 -8 -25 -8c-10 0 -8 18 5 31c28 27 89 62 133 62z" />
    <glyph glyph-name="fourinferior" unicode="&#x2084;" 
d="M222 127h1c13 0 11 -21 11 -37c0 -14 -3 -46 -6 -63c-1 -6 0 -8 4 -8c20 -1 48 -1 64 8c7 5 12 4 12 0c0 -5 -5 -10 -10 -16c-17 -17 -44 -25 -65 -26c-7 -1 -10 -2 -11 -8c-1 -5 -5 -26 -5 -41c0 -16 5 -21 11 -25c8 -5 6 -10 0 -15c-8 -7 -41 -22 -56 -22
s-20 17 -10 101c1 7 -2 8 -9 9s-54 7 -93 7c-18 0 -32 -3 -38 -8c-4 -3 -8 -4 -12 -4c-3 0 -6 2 -6 9s8 22 17 33c44 50 110 124 137 170c9 15 16 28 16 32c0 6 7 12 21 21c8 5 18 9 22 9c5 0 6 -3 6 -12c0 -14 -24 -50 -46 -78c-32 -41 -87 -106 -102 -125
c-6 -6 -7 -10 -1 -10c27 0 60 -2 83 -5c6 0 9 1 11 8c2 10 4 24 4 36c0 14 -1 19 -4 24c-1 4 -1 8 4 12c8 7 38 24 50 24z" />
    <glyph glyph-name="fiveinferior" unicode="&#x2085;" 
d="M267 -4v-1c0 -50 -52 -86 -95 -106c-29 -13 -53 -18 -82 -18c-25 0 -44 8 -52 16c-6 4 -9 11 -9 16c0 8 25 41 32 41c2 0 6 1 7 -2c8 -19 34 -35 63 -35c20 0 39 3 57 18c11 9 20 23 20 41c0 22 -13 33 -53 43c-23 6 -52 12 -65 16c-22 6 -35 15 -31 41
c3 22 16 81 22 107c3 13 6 23 9 30c2 5 6 9 9 9c2 0 4 -2 5 -6c3 -10 39 -14 80 -14c48 0 69 12 80 25c4 5 7 9 9 9c4 0 6 -11 2 -19c-6 -18 -22 -40 -41 -51c-15 -9 -45 -16 -74 -16c-19 0 -39 1 -48 2c-5 0 -8 -2 -10 -8c-3 -8 -8 -20 -8 -31c0 -17 13 -22 43 -30
c17 -4 53 -11 76 -16c43 -10 54 -35 54 -61z" />
    <glyph glyph-name="sixinferior" unicode="&#x2086;" 
d="M243 235h1c21 0 39 -7 39 -18c0 -9 -19 -29 -25 -32c-3 -1 -4 -1 -6 0c-6 7 -21 16 -38 16c-21 0 -38 -6 -54 -18c-35 -25 -69 -74 -69 -158c0 -67 36 -98 74 -98c40 0 65 25 65 66c0 35 -23 59 -56 59c-19 0 -31 -7 -41 -13c-6 -4 -16 -5 -18 -6c-4 0 -5 1 -4 4
c0 5 15 21 37 35c24 14 47 23 63 23c52 0 74 -37 74 -74c0 -53 -48 -92 -79 -109c-21 -11 -49 -21 -76 -21c-64 0 -103 39 -103 113c0 57 15 94 35 124c25 38 64 70 113 91c28 12 50 16 68 16z" />
    <glyph glyph-name="seveninferior" unicode="&#x2087;" 
d="M231 193h1c19 0 32 10 40 21c5 8 11 13 14 13c4 0 5 -8 5 -12c-1 -8 -11 -30 -18 -42c-17 -27 -112 -187 -135 -235c-9 -17 -14 -29 -13 -36c0 -6 2 -10 5 -15c3 -2 3 -3 -2 -6c-6 -5 -35 -15 -44 -15c-6 0 -11 4 -11 15c1 14 15 41 34 73c31 50 86 133 113 182
c4 7 1 9 -4 9c-9 0 -35 2 -60 5c-17 2 -36 4 -56 4c-31 0 -48 -16 -68 -46c-2 -3 -5 -7 -8 -7c-5 0 -8 12 -4 23c14 32 47 86 84 86c20 0 43 -4 66 -8c23 -5 45 -9 61 -9z" />
    <glyph glyph-name="eightinferior" unicode="&#x2088;" 
d="M216 216h1c36 0 54 -27 54 -49c0 -25 -15 -42 -30 -55c-14 -12 -32 -26 -43 -34c-5 -4 -4 -7 2 -9c9 -5 24 -10 41 -20c31 -17 33 -37 33 -55c0 -44 -45 -71 -70 -84c-24 -12 -58 -19 -77 -19c-47 0 -97 21 -97 67c0 38 37 60 69 82c5 3 6 6 1 9c-19 11 -42 22 -42 57
c0 28 21 53 51 72c13 8 27 11 31 11c3 0 7 -2 7 -4c0 -3 -4 -7 -10 -11c-15 -10 -27 -22 -27 -42c0 -22 23 -35 51 -47c6 -3 9 -3 13 0c24 17 48 38 48 66c0 21 -18 34 -39 34c-8 0 -16 -1 -21 -2c-4 -2 -5 1 -5 2c0 5 11 17 27 23c9 5 23 8 32 8zM157 -77h1
c33 0 61 16 61 44c0 12 -4 25 -25 38c-21 14 -44 21 -58 27c-6 2 -10 2 -15 -1c-17 -12 -38 -30 -38 -52c0 -38 39 -56 74 -56z" />
    <glyph glyph-name="nineinferior" unicode="&#x2089;" 
d="M176 214h1c44 0 100 -31 100 -121c0 -74 -29 -125 -56 -154c-37 -40 -99 -72 -154 -72c-21 0 -46 21 -50 45c-1 4 1 10 5 6c13 -11 43 -18 69 -18c34 0 64 13 87 45c22 31 34 74 34 132c0 66 -30 107 -69 107c-14 0 -25 -6 -35 -14c-13 -10 -22 -28 -22 -52
c0 -39 28 -58 53 -58c10 0 29 4 36 9c4 3 6 4 7 3c2 -2 -2 -14 -6 -19c-13 -17 -47 -33 -74 -33c-39 0 -73 25 -73 73c0 37 25 75 73 102c16 8 45 19 74 19z" />
    <glyph glyph-name="centinferior" unicode="&#xf6df;" horiz-adv-x="295" 
d="M34 26v1c0 73 63 117 128 140c6 1 7 3 8 6c1 13 4 32 3 37s-1 7 3 11c6 6 21 14 25 14c6 0 1 -21 -3 -57c-1 -5 0 -5 4 -4c5 0 9 1 15 1c16 0 37 -7 37 -22c0 -7 -7 -24 -16 -30c-5 -4 -7 -5 -10 0c-5 12 -16 22 -28 22c-5 0 -5 -2 -6 -7c-5 -36 -15 -109 -21 -148
c-1 -6 0 -7 4 -6c40 3 66 26 78 36c4 4 6 2 5 -2c0 -4 -6 -19 -12 -25c-14 -14 -37 -32 -74 -42c-6 -2 -7 -3 -8 -10c-6 -33 -7 -44 -2 -51c3 -3 0 -6 -5 -10c-9 -7 -23 -12 -26 -12c-6 0 -6 9 -4 21c1 11 5 27 8 49c2 6 1 8 -5 8c-54 0 -98 25 -98 80zM92 49v-1
c0 -32 14 -57 46 -62c5 -1 6 1 7 7c7 41 16 98 21 144c0 5 -1 6 -6 4c-41 -11 -68 -45 -68 -92z" />
    <glyph glyph-name="dollarinferior" unicode="&#xf6e3;" horiz-adv-x="295" 
d="M206 203h1c23 0 54 -12 54 -29c0 -10 -16 -30 -24 -34c-6 -3 -8 -4 -9 1c-4 16 -21 32 -40 32c-5 0 -5 -1 -6 -6c-3 -20 -7 -43 -14 -80c-1 -6 0 -8 4 -9c15 -4 35 -9 48 -13c31 -9 45 -29 45 -53c0 -56 -69 -95 -119 -106c-5 -2 -7 -3 -7 -7c-5 -29 -9 -49 -8 -64
c0 -7 -2 -8 -5 -8c-7 0 -24 14 -22 31c1 11 3 22 6 38c0 4 0 5 -4 5h-14c-42 0 -74 18 -74 39c0 9 17 30 25 36c7 4 9 3 11 -1c9 -25 29 -44 55 -44c4 0 6 1 7 6c6 31 10 50 16 82c0 5 0 7 -7 9c-51 13 -79 26 -80 65c0 22 11 45 30 64c19 16 45 31 75 39c7 2 8 3 8 7
c3 14 4 33 4 39c-1 3 -1 4 3 9c8 9 22 15 26 15c6 0 0 -27 -4 -58c0 -5 1 -6 5 -6c5 1 9 1 14 1zM95 122v-1c0 -19 15 -28 39 -35c5 -1 7 0 7 5c7 39 10 56 13 76c1 6 -1 6 -7 6c-32 -6 -52 -25 -52 -51zM210 -18v1c0 23 -19 29 -44 36c-5 1 -7 1 -8 -5
c-4 -24 -8 -37 -13 -75c-1 -7 0 -8 5 -7c30 4 60 18 60 50z" />
    <glyph glyph-name="periodinferior" unicode="&#xf6e7;" horiz-adv-x="120" 
d="M74 -24h1c2 0 4 -6 7 -12c3 -8 8 -19 15 -28c4 -6 1 -12 -2 -15c-8 -9 -31 -28 -43 -28c-10 0 -24 26 -26 35c-2 8 -1 16 15 31c14 13 28 17 33 17z" />
    <glyph glyph-name="commainferior" unicode="&#xf6e1;" horiz-adv-x="116" 
d="M66 -6h1c16 0 29 -24 29 -48c0 -61 -66 -109 -105 -128c-7 -3 -11 -2 -8 2c6 9 11 18 19 24c28 21 47 40 47 76c0 15 -8 27 -20 33c-5 3 -4 6 -4 8c0 3 18 19 28 26c5 5 10 7 13 7z" />
    <glyph glyph-name="commaaccent" unicode="&#xf6c3;" horiz-adv-x="300" 
d="M108 -60h1c18 0 31 -23 31 -53c0 -62 -54 -119 -102 -139c-16 -7 -22 3 -10 13c29 24 51 58 52 92c0 24 -8 35 -17 41c-7 5 -3 16 17 32c12 9 21 14 28 14z" />
    <glyph glyph-name="Abreve" unicode="&#x102;" horiz-adv-x="587" 
d="M477 -19h-1c-34 0 -58 10 -87 63c-18 36 -35 80 -53 136c-4 12 -6 13 -24 13c-62 0 -119 -4 -143 -13c-13 -4 -22 -12 -29 -21c-26 -40 -48 -96 -48 -134c0 -6 -4 -11 -20 -21c-19 -11 -37 -18 -43 -18c-7 0 -11 5 -11 17c0 17 14 51 33 84c22 39 54 92 92 152
c41 64 101 166 117 211c4 13 11 25 20 36c9 10 22 22 31 34c7 8 16 12 21 12c4 0 4 -5 3 -14c-1 -10 -2 -26 -1 -41c2 -62 36 -172 59 -233c2 -8 5 -9 12 -9c24 0 67 -4 95 -9c18 -4 17 -8 8 -15c-18 -13 -62 -17 -87 -18c-10 0 -10 -1 -7 -12c13 -38 24 -61 40 -90
c25 -45 52 -66 82 -66c16 0 36 3 50 9c8 3 12 3 12 -1s-7 -15 -15 -20c-18 -11 -65 -32 -106 -32zM309 233h1c9 0 11 1 8 11c-22 72 -33 114 -37 132c-3 12 -8 13 -14 1c-22 -39 -60 -107 -84 -147c-4 -7 -2 -11 8 -8c23 5 86 11 118 11zM327 609h1c29 0 47 18 61 44
c7 10 17 21 29 21c5 0 5 -6 1 -21c-6 -21 -34 -61 -56 -75c-17 -12 -37 -19 -59 -19c-40 0 -72 29 -72 69c0 21 16 36 34 45c10 5 10 -3 10 -10c0 -35 24 -54 51 -54z" />
    <glyph glyph-name="Amacron" unicode="&#x100;" horiz-adv-x="587" 
d="M477 -19h-1c-34 0 -58 10 -87 63c-18 36 -35 80 -53 136c-4 12 -6 13 -24 13c-62 0 -119 -4 -143 -13c-13 -4 -22 -12 -29 -21c-26 -40 -48 -96 -48 -134c0 -6 -4 -11 -20 -21c-19 -11 -37 -18 -43 -18c-7 0 -11 5 -11 17c0 17 14 51 33 84c22 39 54 92 92 152
c41 64 101 166 117 211c4 13 11 25 20 36c9 10 22 22 31 34c7 8 16 12 21 12c4 0 4 -5 3 -14c-1 -10 -2 -26 -1 -41c2 -62 36 -172 59 -233c2 -8 5 -9 12 -9c24 0 67 -4 95 -9c18 -4 17 -8 8 -15c-18 -13 -62 -17 -87 -18c-10 0 -10 -1 -7 -12c13 -38 24 -61 40 -90
c25 -45 52 -66 82 -66c16 0 36 3 50 9c8 3 12 3 12 -1s-7 -15 -15 -20c-18 -11 -65 -32 -106 -32zM309 233h1c9 0 11 1 8 11c-22 72 -33 114 -37 132c-3 12 -8 13 -14 1c-22 -39 -60 -107 -84 -147c-4 -7 -2 -11 8 -8c23 5 86 11 118 11zM289 617h1c33 0 89 -2 123 -1
c9 0 11 -3 3 -14c-21 -29 -41 -32 -58 -32c-30 0 -106 1 -130 -2c-10 -2 -12 2 -4 14c17 26 34 35 65 35z" />
    <glyph glyph-name="Aogonek" unicode="&#x104;" horiz-adv-x="587" 
d="M309 233h1c9 0 11 1 8 11c-22 72 -33 114 -37 132c-3 12 -8 13 -14 1c-22 -39 -60 -107 -84 -147c-4 -7 -2 -11 8 -8c23 5 86 11 118 11zM449 -251h-1c-35 0 -67 27 -67 72c0 61 62 122 122 163c-9 -2 -17 -3 -26 -3c-35 0 -59 10 -87 63c-19 36 -36 80 -54 136
c-4 12 -6 13 -24 13c-62 0 -119 -4 -143 -13c-13 -4 -22 -12 -29 -21c-26 -40 -49 -95 -48 -133c0 -7 -4 -13 -20 -22c-19 -11 -36 -18 -42 -18c-7 0 -12 5 -12 17c0 17 14 51 33 84c22 39 54 92 92 152c41 64 101 166 117 211c4 13 11 25 20 36c9 10 22 22 31 34
c7 8 14 12 19 12s6 -6 5 -16c0 -9 -2 -24 -1 -39c2 -62 36 -172 59 -233c3 -8 5 -9 12 -9c24 0 67 -4 96 -9c17 -3 18 -7 8 -15c-18 -13 -62 -17 -87 -18c-10 0 -11 -1 -7 -12c13 -38 23 -61 39 -90c25 -45 52 -66 82 -66c16 0 38 3 52 9c7 3 9 2 10 -2c0 -4 -7 -13 -15 -18
c-50 -28 -133 -95 -133 -158c0 -33 26 -46 45 -46c30 0 64 14 88 33c6 6 10 -7 0 -23c-31 -45 -85 -71 -134 -71z" />
    <glyph glyph-name="Cacute" unicode="&#x106;" horiz-adv-x="484" 
d="M291 41h1c90 0 158 49 185 72c5 5 7 2 5 -5c-2 -13 -20 -32 -33 -42c-20 -15 -57 -37 -104 -56c-38 -15 -80 -24 -119 -24c-52 0 -110 21 -141 54c-27 30 -49 69 -49 146c0 114 70 213 174 279c61 40 122 61 165 61c28 0 43 -8 50 -17c7 -8 6 -17 -4 -26
c-9 -9 -22 -19 -32 -26c-12 -7 -17 -8 -20 -4c-11 12 -38 19 -63 19c-46 0 -94 -32 -121 -61c-37 -40 -67 -99 -67 -182c0 -113 52 -188 173 -188zM417 671h1c15 0 11 -11 -5 -28c-22 -24 -61 -53 -91 -71c-20 -12 -45 -18 -57 -18s-12 7 -3 16c13 12 56 58 65 70
c8 11 16 17 26 20c18 6 52 11 64 11z" />
    <glyph glyph-name="Ccaron" unicode="&#x10c;" horiz-adv-x="484" 
d="M291 41h1c90 0 158 49 185 72c5 5 7 2 5 -5c-2 -13 -20 -32 -33 -42c-20 -15 -57 -37 -104 -56c-38 -15 -80 -24 -119 -24c-52 0 -110 21 -141 54c-27 30 -49 69 -49 146c0 114 70 213 174 279c61 40 122 61 165 61c28 0 43 -8 50 -17c7 -8 6 -17 -4 -26
c-9 -9 -22 -19 -32 -26c-12 -7 -17 -8 -20 -4c-11 12 -38 19 -63 19c-46 0 -94 -32 -121 -61c-37 -40 -67 -99 -67 -182c0 -113 52 -188 173 -188zM298 555h-1c-4 0 -7 4 -11 10c-13 22 -40 57 -65 76c-8 6 -5 10 0 15c5 4 11 8 17 10c9 4 17 4 26 -2c14 -9 38 -31 48 -43
c4 -5 9 -6 17 0c21 15 50 35 70 46c10 5 21 5 28 2c6 -4 4 -9 -5 -16c-29 -23 -78 -70 -104 -91c-5 -4 -13 -7 -20 -7z" />
    <glyph glyph-name="Dcaron" unicode="&#x10e;" horiz-adv-x="600" 
d="M315 523h2c85 0 148 -24 188 -63c37 -36 58 -90 58 -148c0 -126 -66 -200 -133 -244c-76 -50 -156 -81 -234 -81c-35 0 -63 14 -82 47c-18 31 -19 90 -12 180c8 110 17 203 4 225c-3 6 -3 7 -12 5c-19 -5 -61 -27 -74 -36c-7 -4 -11 -4 -10 1c3 9 14 26 21 32
c7 7 19 16 58 33c7 3 11 5 14 9c4 3 7 7 14 11c18 12 45 24 52 24c3 0 7 -4 11 -11c3 -3 5 -4 11 -2c34 9 79 18 124 18zM275 482h-1c-33 0 -63 -6 -77 -11c-8 -2 -8 -4 -8 -10c2 -35 -5 -128 -12 -212c-6 -80 -11 -150 14 -181c16 -20 44 -30 79 -30c29 0 59 5 90 21
c35 18 124 75 124 223c0 125 -85 200 -209 200zM304 555h-1c-4 0 -7 4 -11 10c-13 22 -40 57 -65 76c-8 6 -5 10 0 15c5 4 11 8 17 10c9 4 17 4 26 -2c14 -9 38 -31 48 -43c4 -5 9 -6 17 0c21 15 50 35 70 46c10 5 21 5 28 2c6 -4 4 -9 -5 -16c-29 -23 -78 -70 -104 -91
c-5 -4 -13 -7 -20 -7z" />
    <glyph glyph-name="Dcroat" unicode="&#x110;" horiz-adv-x="608" 
d="M330 523h1c84 0 145 -25 185 -63c37 -36 57 -91 57 -148c0 -126 -65 -198 -126 -240c-77 -52 -162 -85 -242 -85c-30 0 -61 11 -82 50c-23 40 -16 118 -10 192c1 10 0 12 -8 13c-24 2 -65 3 -86 -4c-8 -3 -9 3 0 12c25 26 49 34 88 34c8 0 10 2 11 7c6 55 8 125 6 150
c0 8 -4 9 -12 6c-21 -6 -72 -33 -84 -40c-7 -3 -8 0 -4 9c3 7 10 17 19 25c8 7 27 19 65 34c6 3 9 4 12 7c3 2 7 5 10 8c8 11 42 28 50 28c5 0 9 -5 13 -11c2 -3 4 -4 11 -2c36 10 82 18 126 18zM289 482h-1c-34 0 -65 -6 -80 -11c-7 -2 -8 -4 -8 -10c0 -38 -4 -109 -8 -168
c-1 -9 0 -12 8 -12c23 -2 51 -4 78 -4c32 0 60 1 75 4c8 1 3 -8 -6 -16c-32 -26 -77 -31 -147 -28c-11 1 -13 -1 -14 -9c-5 -52 -11 -128 15 -159c17 -21 42 -31 77 -31c28 0 60 4 92 21c35 18 124 80 124 220c0 132 -88 203 -205 203z" />
    <glyph glyph-name="Ecaron" unicode="&#x11a;" horiz-adv-x="445" 
d="M215 -9h-1c-44 0 -77 7 -91 11c-8 3 -17 0 -24 -3c-5 -3 -11 1 -16 17c-5 18 -4 47 -2 73c2 34 8 119 9 138c0 8 -2 12 -7 17c-6 6 -8 9 -4 14c10 16 16 25 17 34s3 35 3 84c0 39 -4 82 -17 97c-4 5 -5 7 0 12c11 10 49 37 59 37c4 0 8 -4 11 -7c3 -4 7 -4 14 0
c3 2 10 3 19 3c13 0 63 -5 113 -4c31 0 63 2 74 2c9 0 8 -5 0 -13c-27 -28 -91 -33 -144 -33c-24 0 -37 0 -51 1c-7 1 -7 -3 -6 -13c4 -25 -2 -124 -3 -161c0 -10 1 -13 11 -14c37 -4 80 -4 112 -4c43 0 86 6 100 8c10 2 9 -5 -4 -16c-35 -30 -107 -39 -163 -39
c-25 0 -41 1 -52 1c-8 1 -10 -2 -11 -10c-1 -14 -4 -85 -5 -118c-1 -38 7 -50 26 -56c13 -4 41 -9 86 -9c51 0 120 3 163 30c10 6 9 -6 -1 -16c-47 -52 -139 -63 -215 -63zM230 555h-1c-4 0 -7 4 -11 10c-13 22 -40 57 -65 76c-8 6 -5 10 0 15c5 4 11 8 17 10
c9 4 17 4 26 -2c14 -9 38 -31 48 -43c4 -5 9 -6 17 0c21 15 50 35 70 46c10 5 21 5 28 2c6 -4 4 -9 -5 -16c-29 -23 -78 -70 -104 -91c-5 -4 -13 -7 -20 -7z" />
    <glyph glyph-name="Edotaccent" unicode="&#x116;" horiz-adv-x="445" 
d="M215 -9h-1c-44 0 -77 7 -91 11c-8 3 -17 0 -24 -3c-5 -3 -11 1 -16 17c-5 18 -4 47 -2 73c2 34 8 119 9 138c0 8 -2 12 -7 17c-6 6 -8 9 -4 14c10 16 16 25 17 34s3 35 3 84c0 39 -4 82 -17 97c-4 5 -5 7 0 12c11 10 49 37 59 37c4 0 8 -4 11 -7c3 -4 7 -4 14 0
c3 2 10 3 19 3c13 0 63 -5 113 -4c31 0 63 2 74 2c9 0 8 -5 0 -13c-27 -28 -91 -33 -144 -33c-24 0 -37 0 -51 1c-7 1 -7 -3 -6 -13c4 -25 -2 -124 -3 -161c0 -10 1 -13 11 -14c37 -4 80 -4 112 -4c43 0 86 6 100 8c10 2 9 -5 -4 -16c-35 -30 -107 -39 -163 -39
c-25 0 -41 1 -52 1c-8 1 -10 -2 -11 -10c-1 -14 -4 -85 -5 -118c-1 -38 7 -50 26 -56c13 -4 41 -9 86 -9c51 0 120 3 163 30c10 6 9 -6 -1 -16c-47 -52 -139 -63 -215 -63zM252 653h1c7 0 16 -10 24 -18c5 -5 12 -11 17 -16c5 -4 6 -8 5 -14c-6 -18 -42 -46 -61 -46
c-13 0 -39 28 -39 43c0 16 38 51 53 51z" />
    <glyph glyph-name="Emacron" unicode="&#x112;" horiz-adv-x="445" 
d="M215 -9h-1c-44 0 -77 7 -91 11c-8 3 -17 0 -24 -3c-5 -3 -11 1 -16 17c-5 18 -4 47 -2 73c2 34 8 119 9 138c0 8 -2 12 -7 17c-6 6 -8 9 -4 14c10 16 16 25 17 34s3 35 3 84c0 39 -4 82 -17 97c-4 5 -5 7 0 12c11 10 49 37 59 37c4 0 8 -4 11 -7c3 -4 7 -4 14 0
c3 2 10 3 19 3c13 0 63 -5 113 -4c31 0 63 2 74 2c9 0 8 -5 0 -13c-27 -28 -91 -33 -144 -33c-24 0 -37 0 -51 1c-7 1 -7 -3 -6 -13c4 -25 -2 -124 -3 -161c0 -10 1 -13 11 -14c37 -4 80 -4 112 -4c43 0 86 6 100 8c10 2 9 -5 -4 -16c-35 -30 -107 -39 -163 -39
c-25 0 -41 1 -52 1c-8 1 -10 -2 -11 -10c-1 -14 -4 -85 -5 -118c-1 -38 7 -50 26 -56c13 -4 41 -9 86 -9c51 0 120 3 163 30c10 6 9 -6 -1 -16c-47 -52 -139 -63 -215 -63zM215 617h1c33 0 89 -2 123 -1c9 0 11 -3 3 -14c-21 -29 -41 -32 -58 -32c-30 0 -106 1 -130 -2
c-10 -2 -12 2 -4 14c17 26 34 35 65 35z" />
    <glyph glyph-name="Eogonek" unicode="&#x118;" horiz-adv-x="445" 
d="M251 -251h-1c-35 0 -67 27 -67 72c0 64 70 135 125 177c-30 -5 -63 -7 -93 -7c-45 0 -78 7 -92 11c-8 2 -17 0 -24 -3c-5 -3 -11 0 -16 16c-5 18 -4 47 -2 74c2 33 8 119 9 138c0 8 -2 12 -7 18c-5 5 -7 9 -2 16c10 16 14 22 15 31s3 35 3 84c0 39 -4 81 -16 95
c-6 6 -6 9 1 16c11 10 45 35 56 35c5 0 9 -4 12 -7c3 -4 7 -4 14 0c4 2 10 3 19 3c14 0 63 -5 113 -4c31 0 58 2 69 2c12 0 13 -5 5 -13c-27 -28 -91 -33 -143 -33c-23 0 -37 0 -51 1c-8 1 -8 -3 -7 -13c4 -25 -2 -124 -3 -161c0 -10 1 -13 11 -14c38 -4 80 -4 113 -4
c42 0 82 5 96 8s13 -5 1 -16c-35 -30 -109 -39 -164 -39c-26 0 -41 1 -53 1c-8 1 -10 -2 -10 -10c-2 -14 -5 -85 -6 -118c-1 -38 8 -49 27 -55c12 -4 40 -10 85 -10c51 0 117 2 161 28c11 7 12 -3 3 -14c-20 -21 -47 -35 -78 -45c-48 -36 -102 -103 -102 -153
c0 -33 26 -46 45 -46c30 0 62 12 88 33c8 7 12 -6 1 -21c-30 -46 -84 -73 -135 -73z" />
    <glyph glyph-name="Gbreve" unicode="&#x11e;" horiz-adv-x="594" 
d="M117 208v-1c0 -103 63 -166 148 -166c64 0 108 28 127 43c15 11 20 37 22 58c3 31 3 56 0 69c-2 11 -12 15 -25 15c-62 0 -112 -28 -134 -48c-10 -8 -13 4 0 19c44 53 121 76 191 76c36 0 68 -4 97 -7s52 -4 65 -4c10 0 8 -6 -4 -14c-24 -18 -67 -25 -101 -25
c-10 0 -10 -4 -11 -14c-6 -69 -17 -126 -24 -192c-3 -26 3 -38 7 -44c4 -4 5 -5 -6 -16c-18 -15 -48 -35 -57 -35c-11 0 -17 9 -15 44c2 23 5 60 7 80c1 10 -3 12 -12 6c-49 -31 -129 -66 -184 -66c-44 0 -95 18 -129 57c-34 38 -43 82 -43 129c0 145 118 252 187 295
c40 26 104 59 165 59c30 0 66 -9 66 -34c0 -16 -41 -46 -51 -46c-4 0 -4 1 -7 4c-9 12 -32 25 -64 25c-66 0 -120 -40 -155 -85c-32 -39 -60 -106 -60 -182zM348 609h1c29 0 47 18 61 44c7 10 17 21 29 21c5 0 5 -6 1 -21c-6 -21 -34 -61 -56 -75c-17 -12 -37 -19 -59 -19
c-40 0 -72 29 -72 69c0 21 16 36 34 45c10 5 10 -3 10 -10c0 -35 24 -54 51 -54z" />
    <glyph glyph-name="Gcommaaccent" unicode="&#x122;" horiz-adv-x="594" 
d="M117 208v-1c0 -103 63 -166 148 -166c64 0 108 28 127 43c15 11 20 37 22 58c3 31 3 56 0 69c-2 11 -12 15 -25 15c-62 0 -112 -28 -134 -48c-10 -8 -13 4 0 19c44 53 121 76 191 76c36 0 68 -4 97 -7s52 -4 65 -4c10 0 8 -6 -4 -14c-24 -18 -67 -25 -101 -25
c-10 0 -10 -4 -11 -14c-6 -69 -17 -126 -24 -192c-3 -26 3 -38 7 -44c4 -4 5 -5 -6 -16c-18 -15 -48 -35 -57 -35c-11 0 -17 9 -15 44c2 23 5 60 7 80c1 10 -3 12 -12 6c-49 -31 -129 -66 -184 -66c-44 0 -95 18 -129 57c-34 38 -43 82 -43 129c0 145 118 252 187 295
c40 26 104 59 165 59c30 0 66 -9 66 -34c0 -16 -41 -46 -51 -46c-4 0 -4 1 -7 4c-9 12 -32 25 -64 25c-66 0 -120 -40 -155 -85c-32 -39 -60 -106 -60 -182zM268 -60h1c18 0 31 -23 31 -53c0 -62 -54 -119 -102 -139c-16 -7 -22 3 -10 13c29 24 51 58 52 92
c0 24 -8 35 -17 41c-7 5 -3 16 17 32c12 9 21 14 28 14z" />
    <glyph glyph-name="Imacron" unicode="&#x12a;" horiz-adv-x="246" 
d="M147 528h1c21 0 23 -56 22 -88c-1 -57 -6 -142 -10 -197c-4 -53 -9 -131 -9 -180c0 -20 4 -30 9 -34c5 -3 5 -6 -1 -12c-12 -11 -60 -35 -70 -35c-13 0 -14 28 -13 63c1 33 5 101 10 168c5 70 8 134 9 190c0 32 -4 68 -18 78c-6 4 -7 6 1 13c15 13 60 34 69 34zM103 617
h1c33 0 89 -2 123 -1c9 0 11 -3 3 -14c-21 -29 -41 -32 -58 -32c-30 0 -106 1 -130 -2c-10 -2 -12 2 -4 14c17 26 34 35 65 35z" />
    <glyph glyph-name="Iogonek" unicode="&#x12e;" horiz-adv-x="246" 
d="M77 -251h-1c-35 0 -67 29 -67 74c0 60 52 125 92 165c-5 0 -11 -1 -15 0c-10 3 -11 30 -10 57c1 33 5 101 10 169c5 70 8 133 9 190c0 31 -3 63 -18 72c-9 5 -7 11 3 19c15 13 56 33 67 33c22 0 24 -56 23 -88c-1 -57 -6 -142 -10 -197c-4 -53 -9 -131 -9 -180
c0 -19 4 -28 9 -31c6 -4 8 -7 1 -15c-42 -41 -83 -95 -83 -159c0 -33 26 -48 46 -48c29 0 60 12 85 33c7 7 11 -6 1 -21c-30 -46 -82 -73 -133 -73z" />
    <glyph glyph-name="Kcommaaccent" unicode="&#x136;" horiz-adv-x="562" 
d="M518 28h1c18 0 45 9 58 16c6 3 3 -13 -7 -22c-22 -20 -79 -42 -114 -42c-39 0 -86 30 -129 87c-50 67 -85 116 -107 142c-12 16 -23 24 -32 24c-17 0 -28 -24 -31 -46c-1 -17 -6 -87 -6 -122c0 -16 3 -30 9 -37c4 -3 2 -6 -5 -12c-17 -14 -51 -32 -63 -32
c-13 0 -15 31 -13 62c4 71 17 270 20 346c1 49 -8 81 -18 91c-4 3 -4 6 7 13c26 17 59 31 65 31c17 0 21 -47 21 -82c-1 -48 -6 -140 -9 -179c-1 -11 3 -14 10 -7c14 12 36 26 66 47c75 52 133 108 150 131c18 23 25 38 24 49c0 5 2 8 20 16c24 13 47 21 56 21
c6 0 9 -2 9 -11c0 -18 -33 -58 -78 -97c-45 -38 -110 -90 -144 -117c-13 -11 -14 -16 -9 -24c5 -6 18 -24 38 -52c25 -37 69 -94 115 -142c42 -42 71 -52 96 -52zM259 -60h1c18 0 31 -23 31 -53c0 -62 -54 -119 -102 -139c-16 -7 -22 3 -10 13c29 24 51 58 52 92
c0 24 -8 35 -17 41c-7 5 -3 16 17 32c12 9 21 14 28 14z" />
    <glyph glyph-name="Lacute" unicode="&#x139;" horiz-adv-x="441" 
d="M301 42h1c46 0 95 7 129 22c9 4 10 -7 -5 -20c-50 -42 -130 -50 -196 -50c-37 0 -61 2 -80 3c-8 1 -17 1 -27 -2c-8 -3 -20 -6 -27 -6c-5 0 -9 3 -13 13c-5 11 -6 25 -6 41c0 26 4 85 9 138c6 64 11 141 12 207c1 40 -1 84 -13 97c-2 3 -3 6 5 11c19 11 56 30 62 30
c25 0 22 -59 22 -95c-1 -50 -6 -114 -11 -184c-3 -56 -7 -114 -7 -139c0 -42 16 -55 47 -60c26 -4 55 -6 98 -6zM289 671h1c15 0 11 -11 -5 -28c-22 -24 -61 -53 -91 -71c-20 -12 -45 -18 -57 -18s-12 7 -3 16c13 12 56 58 65 70c8 11 16 17 26 20c18 6 52 11 64 11z" />
    <glyph glyph-name="Lcaron" unicode="&#x13d;" horiz-adv-x="441" 
d="M301 42h1c46 0 95 7 129 22c9 4 10 -7 -5 -20c-50 -42 -130 -50 -196 -50c-37 0 -61 2 -80 3c-8 1 -17 1 -27 -2c-8 -3 -20 -6 -27 -6c-5 0 -9 3 -13 13c-5 11 -6 25 -6 41c0 26 4 85 9 138c6 64 11 141 12 207c1 40 -1 84 -13 97c-2 3 -3 6 5 11c19 11 56 30 62 30
c25 0 22 -59 22 -95c-1 -50 -6 -114 -11 -184c-3 -56 -7 -114 -7 -139c0 -42 16 -55 47 -60c26 -4 55 -6 98 -6zM301 526h1c18 0 31 -23 31 -53c0 -62 -54 -119 -102 -139c-16 -7 -22 3 -10 13c29 24 51 58 52 92c0 24 -8 35 -17 41c-7 5 -3 16 17 32c12 9 21 14 28 14z" />
    <glyph glyph-name="Lcommaaccent" unicode="&#x13b;" horiz-adv-x="441" 
d="M301 42h1c46 0 95 7 129 22c9 4 10 -7 -5 -20c-50 -42 -130 -50 -196 -50c-37 0 -61 2 -80 3c-8 1 -17 1 -27 -2c-8 -3 -20 -6 -27 -6c-5 0 -9 3 -13 13c-5 11 -6 25 -6 41c0 26 4 85 9 138c6 64 11 141 12 207c1 40 -1 84 -13 97c-2 3 -3 6 5 11c19 11 56 30 62 30
c25 0 22 -59 22 -95c-1 -50 -6 -114 -11 -184c-3 -56 -7 -114 -7 -139c0 -42 16 -55 47 -60c26 -4 55 -6 98 -6zM241 -60h1c18 0 31 -23 31 -53c0 -62 -54 -119 -102 -139c-16 -7 -22 3 -10 13c29 24 51 58 52 92c0 24 -8 35 -17 41c-7 5 -3 16 17 32c12 9 21 14 28 14z" />
    <glyph glyph-name="Nacute" unicode="&#x143;" horiz-adv-x="629" 
d="M87 -15h-1c-9 0 -13 12 -12 43c1 32 7 83 15 142c7 62 15 164 16 184c1 28 2 42 -17 65c-8 10 -25 33 -30 46c-7 18 -5 32 8 49c11 16 24 24 29 24c4 0 11 -20 20 -37c5 -8 9 -10 18 -10c12 0 15 -2 18 -10c4 -18 5 -28 11 -36c12 -17 73 -72 131 -119
c68 -55 134 -115 193 -174c7 -6 10 -4 11 9c4 32 14 182 14 215c1 54 -4 76 -7 83c-2 4 -1 10 18 34c17 21 28 29 32 29c6 0 8 -7 9 -24c2 -17 -1 -62 -6 -113c-11 -92 -18 -209 -19 -253c-1 -26 -1 -49 5 -61c10 -21 12 -31 12 -36c0 -17 -34 -51 -48 -51c-4 0 -6 4 -10 14
c-12 35 -38 77 -127 163c-50 47 -151 129 -211 183c-10 8 -13 7 -15 -5c-7 -52 -12 -143 -15 -201c-3 -55 4 -93 12 -110c2 -5 0 -7 -9 -15c-19 -16 -41 -28 -45 -28zM452 654h1c15 0 11 -11 -5 -28c-22 -24 -61 -53 -91 -71c-20 -12 -45 -18 -57 -18s-12 7 -3 16
c13 12 56 58 65 70c8 11 16 17 26 20c18 6 52 11 64 11z" />
    <glyph glyph-name="Ncaron" unicode="&#x147;" horiz-adv-x="629" 
d="M87 -15h-1c-9 0 -13 12 -12 43c1 32 7 83 15 142c7 62 15 164 16 184c1 28 2 42 -17 65c-8 10 -25 33 -30 46c-7 18 -5 32 8 49c11 16 24 24 29 24c4 0 11 -20 20 -37c5 -8 9 -10 18 -10c12 0 15 -2 18 -10c4 -18 5 -28 11 -36c12 -17 73 -72 131 -119
c68 -55 134 -115 193 -174c7 -6 10 -4 11 9c4 32 14 182 14 215c1 54 -4 76 -7 83c-2 4 -1 10 18 34c17 21 28 29 32 29c6 0 8 -7 9 -24c2 -17 -1 -62 -6 -113c-11 -92 -18 -209 -19 -253c-1 -26 -1 -49 5 -61c10 -21 12 -31 12 -36c0 -17 -34 -51 -48 -51c-4 0 -6 4 -10 14
c-12 35 -38 77 -127 163c-50 47 -151 129 -211 183c-10 8 -13 7 -15 -5c-7 -52 -12 -143 -15 -201c-3 -55 4 -93 12 -110c2 -5 0 -7 -9 -15c-19 -16 -41 -28 -45 -28zM319 538h-1c-4 0 -7 4 -11 10c-13 22 -40 57 -65 76c-8 6 -5 10 0 15c5 4 11 8 17 10c9 4 17 4 26 -2
c14 -9 38 -31 48 -43c4 -5 9 -6 17 0c21 15 50 35 70 46c10 5 21 5 28 2c6 -4 4 -9 -5 -16c-29 -23 -78 -70 -104 -91c-5 -4 -13 -7 -20 -7z" />
    <glyph glyph-name="Ncommaaccent" unicode="&#x145;" horiz-adv-x="629" 
d="M87 -15h-1c-9 0 -13 12 -12 43c1 32 7 83 15 142c7 62 15 164 16 184c1 28 2 42 -17 65c-8 10 -25 33 -30 46c-7 18 -5 32 8 49c11 16 24 24 29 24c4 0 11 -20 20 -37c5 -8 9 -10 18 -10c12 0 15 -2 18 -10c4 -18 5 -28 11 -36c12 -17 73 -72 131 -119
c68 -55 134 -115 193 -174c7 -6 10 -4 11 9c4 32 14 182 14 215c1 54 -4 76 -7 83c-2 4 -1 10 18 34c17 21 28 29 32 29c6 0 8 -7 9 -24c2 -17 -1 -62 -6 -113c-11 -92 -18 -209 -19 -253c-1 -26 -1 -49 5 -61c10 -21 12 -31 12 -36c0 -17 -34 -51 -48 -51c-4 0 -6 4 -10 14
c-12 35 -38 77 -127 163c-50 47 -151 129 -211 183c-10 8 -13 7 -15 -5c-7 -52 -12 -143 -15 -201c-3 -55 4 -93 12 -110c2 -5 0 -7 -9 -15c-19 -16 -41 -28 -45 -28zM318 -60h1c18 0 31 -23 31 -53c0 -62 -54 -119 -102 -139c-16 -7 -22 3 -10 13c29 24 51 58 52 92
c0 24 -8 35 -17 41c-7 5 -3 16 17 32c12 9 21 14 28 14z" />
    <glyph glyph-name="Ohungarumlaut" unicode="&#x150;" horiz-adv-x="594" 
d="M248 -14h-1c-58 0 -128 19 -170 71c-22 28 -41 77 -41 129c0 116 55 207 159 264c19 11 31 1 19 -9c-55 -44 -99 -101 -99 -215c0 -48 9 -96 42 -132c41 -48 94 -57 130 -57c56 0 91 18 124 49c35 33 70 97 70 193c0 114 -51 199 -154 199c-46 0 -65 -15 -75 -16
c-5 0 -3 9 6 18c27 28 82 46 124 46c58 0 103 -29 125 -53c44 -48 51 -109 51 -162c0 -156 -125 -266 -222 -305c-36 -15 -62 -20 -88 -20zM353 671h1c11 0 5 -12 -3 -24c-16 -23 -50 -56 -75 -75c-16 -11 -36 -18 -50 -18c-9 0 -10 5 3 19c14 17 43 58 49 73
c4 9 14 14 29 17c14 4 33 8 46 8zM486 671h1c11 0 6 -12 -1 -23c-17 -24 -50 -57 -76 -76c-15 -11 -33 -18 -47 -18c-13 0 -14 4 0 19c15 17 43 58 50 73c4 9 14 14 28 17c15 4 33 8 45 8z" />
    <glyph glyph-name="Omacron" unicode="&#x14c;" horiz-adv-x="594" 
d="M248 -14h-1c-58 0 -128 19 -170 71c-22 28 -41 77 -41 129c0 116 55 207 159 264c19 11 31 1 19 -9c-55 -44 -99 -101 -99 -215c0 -48 9 -96 42 -132c41 -48 94 -57 130 -57c56 0 91 18 124 49c35 33 70 97 70 193c0 114 -51 199 -154 199c-46 0 -65 -15 -75 -16
c-5 0 -3 9 6 18c27 28 82 46 124 46c58 0 103 -29 125 -53c44 -48 51 -109 51 -162c0 -156 -125 -266 -222 -305c-36 -15 -62 -20 -88 -20zM307 617h1c33 0 89 -2 123 -1c9 0 11 -3 3 -14c-21 -29 -41 -32 -58 -32c-30 0 -106 1 -130 -2c-10 -2 -12 2 -4 14
c17 26 34 35 65 35z" />
    <glyph glyph-name="Racute" unicode="&#x154;" horiz-adv-x="533" 
d="M282 524h1c86 0 141 -40 141 -116c0 -72 -48 -109 -100 -146c-12 -8 -12 -13 -2 -29c23 -38 64 -112 103 -156c35 -38 58 -53 83 -53c15 0 30 3 38 7c7 2 8 0 7 -3c0 -4 -5 -12 -12 -17c-28 -20 -61 -26 -84 -26c-34 0 -68 19 -102 59c-32 37 -75 107 -91 135
c-17 30 -32 44 -53 44c-12 0 -23 -2 -28 -5s-9 -10 -10 -21c-3 -32 -8 -102 -8 -129c0 -18 4 -29 13 -36c5 -4 4 -8 -7 -16c-16 -10 -53 -27 -62 -27c-15 0 -18 40 -15 92c5 75 28 330 13 364c-3 7 -4 9 -12 7c-17 -6 -44 -23 -58 -32c-7 -3 -11 -4 -11 0c0 6 6 16 12 22
c16 15 41 29 62 41c6 3 11 9 18 15c9 9 47 33 54 33c5 0 7 -9 10 -14c2 -4 5 -5 14 -3c11 3 53 10 86 10zM230 482h-1c-10 0 -26 -1 -34 -3c-6 -2 -7 -5 -7 -12c1 -42 -6 -136 -10 -202c0 -9 3 -14 22 -14c34 1 69 10 93 26c28 17 55 51 55 97c0 72 -47 108 -118 108z
M399 671h1c15 0 11 -11 -5 -28c-22 -24 -61 -53 -91 -71c-20 -12 -45 -18 -57 -18s-12 7 -3 16c13 12 56 58 65 70c8 11 16 17 26 20c18 6 52 11 64 11z" />
    <glyph glyph-name="Rcaron" unicode="&#x158;" horiz-adv-x="533" 
d="M282 524h1c86 0 141 -40 141 -116c0 -72 -48 -109 -100 -146c-12 -8 -12 -13 -2 -29c23 -38 64 -112 103 -156c35 -38 58 -53 83 -53c15 0 30 3 38 7c7 2 8 0 7 -3c0 -4 -5 -12 -12 -17c-28 -20 -61 -26 -84 -26c-34 0 -68 19 -102 59c-32 37 -75 107 -91 135
c-17 30 -32 44 -53 44c-12 0 -23 -2 -28 -5s-9 -10 -10 -21c-3 -32 -8 -102 -8 -129c0 -18 4 -29 13 -36c5 -4 4 -8 -7 -16c-16 -10 -53 -27 -62 -27c-15 0 -18 40 -15 92c5 75 28 330 13 364c-3 7 -4 9 -12 7c-17 -6 -44 -23 -58 -32c-7 -3 -11 -4 -11 0c0 6 6 16 12 22
c16 15 41 29 62 41c6 3 11 9 18 15c9 9 47 33 54 33c5 0 7 -9 10 -14c2 -4 5 -5 14 -3c11 3 53 10 86 10zM230 482h-1c-10 0 -26 -1 -34 -3c-6 -2 -7 -5 -7 -12c1 -42 -6 -136 -10 -202c0 -9 3 -14 22 -14c34 1 69 10 93 26c28 17 55 51 55 97c0 72 -47 108 -118 108z
M264 555h-1c-4 0 -7 4 -11 10c-13 22 -40 57 -65 76c-8 6 -5 10 0 15c5 4 11 8 17 10c9 4 17 4 26 -2c14 -9 38 -31 48 -43c4 -5 9 -6 17 0c21 15 50 35 70 46c10 5 21 5 28 2c6 -4 4 -9 -5 -16c-29 -23 -78 -70 -104 -91c-5 -4 -13 -7 -20 -7z" />
    <glyph glyph-name="Rcommaaccent" unicode="&#x156;" horiz-adv-x="533" 
d="M282 524h1c86 0 141 -40 141 -116c0 -72 -48 -109 -100 -146c-12 -8 -12 -13 -2 -29c23 -38 64 -112 103 -156c35 -38 58 -53 83 -53c15 0 30 3 38 7c7 2 8 0 7 -3c0 -4 -5 -12 -12 -17c-28 -20 -61 -26 -84 -26c-34 0 -68 19 -102 59c-32 37 -75 107 -91 135
c-17 30 -32 44 -53 44c-12 0 -23 -2 -28 -5s-9 -10 -10 -21c-3 -32 -8 -102 -8 -129c0 -18 4 -29 13 -36c5 -4 4 -8 -7 -16c-16 -10 -53 -27 -62 -27c-15 0 -18 40 -15 92c5 75 28 330 13 364c-3 7 -4 9 -12 7c-17 -6 -44 -23 -58 -32c-7 -3 -11 -4 -11 0c0 6 6 16 12 22
c16 15 41 29 62 41c6 3 11 9 18 15c9 9 47 33 54 33c5 0 7 -9 10 -14c2 -4 5 -5 14 -3c11 3 53 10 86 10zM230 482h-1c-10 0 -26 -1 -34 -3c-6 -2 -7 -5 -7 -12c1 -42 -6 -136 -10 -202c0 -9 3 -14 22 -14c34 1 69 10 93 26c28 17 55 51 55 97c0 72 -47 108 -118 108z
M267 -60h1c18 0 31 -23 31 -53c0 -62 -54 -119 -102 -139c-16 -7 -22 3 -10 13c29 24 51 58 52 92c0 24 -8 35 -17 41c-7 5 -3 16 17 32c12 9 21 14 28 14z" />
    <glyph glyph-name="Sacute" unicode="&#x15a;" horiz-adv-x="381" 
d="M104 -14h-1c-31 0 -81 13 -81 41c0 13 25 31 35 38c12 7 15 6 18 2c13 -20 44 -35 84 -35c60 0 117 40 117 98c0 40 -28 62 -87 88c-30 13 -71 29 -94 46c-26 17 -40 42 -40 78c0 58 41 99 74 126c34 28 100 59 144 59c29 0 57 -13 57 -29c0 -11 -23 -30 -33 -37
c-6 -4 -10 -6 -13 -3c-13 11 -33 21 -67 21c-50 0 -99 -44 -99 -93c0 -45 38 -69 111 -99c66 -27 116 -47 116 -112c0 -80 -76 -130 -110 -150c-25 -15 -76 -39 -131 -39zM336 671h1c15 0 11 -11 -5 -28c-22 -24 -61 -53 -91 -71c-20 -12 -45 -18 -57 -18s-12 7 -3 16
c13 12 56 58 65 70c8 11 16 17 26 20c18 6 52 11 64 11z" />
    <glyph glyph-name="Scedilla" unicode="&#x15e;" horiz-adv-x="381" 
d="M229 -130v-1c0 -54 -92 -95 -122 -95c-8 0 -15 4 -15 8c0 5 8 14 17 17c25 8 63 24 63 50c0 16 -20 32 -43 51c-9 7 -13 17 -13 25c0 7 2 15 10 25c14 18 29 34 45 47c-21 -6 -44 -11 -67 -11c-32 0 -82 13 -82 41c0 13 24 31 34 38c13 8 16 7 19 2c12 -19 44 -35 83 -35
c61 0 118 40 118 98c0 40 -28 62 -88 88c-29 13 -70 29 -93 46c-26 17 -40 42 -40 78c0 58 41 99 74 126c34 28 100 59 144 59c29 0 57 -13 57 -29c0 -11 -22 -29 -33 -37c-7 -5 -10 -5 -14 -2c-10 10 -32 20 -66 20c-50 0 -99 -44 -99 -93c0 -45 38 -69 111 -99
c66 -27 116 -47 116 -112c0 -74 -72 -133 -125 -158c-24 -21 -47 -46 -47 -60c0 -9 4 -16 14 -24c24 -20 42 -35 42 -63z" />
    <glyph glyph-name="Scommaaccent" unicode="&#x218;" horiz-adv-x="381" 
d="M104 -14h-1c-31 0 -81 13 -81 41c0 13 25 31 35 38c12 7 15 6 18 2c13 -20 44 -35 84 -35c60 0 117 40 117 98c0 40 -28 62 -87 88c-30 13 -71 29 -94 46c-26 17 -40 42 -40 78c0 58 41 99 74 126c34 28 100 59 144 59c29 0 57 -13 57 -29c0 -11 -23 -30 -33 -37
c-6 -4 -10 -6 -13 -3c-13 11 -33 21 -67 21c-50 0 -99 -44 -99 -93c0 -45 38 -69 111 -99c66 -27 116 -47 116 -112c0 -80 -76 -130 -110 -150c-25 -15 -76 -39 -131 -39zM169 -60h1c18 0 31 -23 31 -53c0 -62 -54 -119 -102 -139c-16 -7 -22 3 -10 13c29 24 51 58 52 92
c0 24 -8 35 -17 41c-7 5 -3 16 17 32c12 9 21 14 28 14z" />
    <glyph glyph-name="Tcaron" unicode="&#x164;" horiz-adv-x="519" 
d="M226 522h1c49 0 94 -5 135 -10s80 -8 107 -8c28 0 57 5 71 13c6 4 8 -4 -1 -15c-17 -20 -63 -40 -119 -40c-31 0 -74 3 -106 5c-8 1 -9 -2 -9 -10c0 -11 -1 -42 -4 -80c-5 -64 -11 -169 -17 -270c-3 -53 2 -70 10 -78c4 -4 4 -7 -5 -14c-14 -10 -53 -29 -65 -29
c-18 0 -21 24 -17 89c8 116 16 215 19 284c3 44 4 81 -1 100c-3 10 -7 14 -15 15c-11 2 -24 3 -38 3c-84 -1 -133 -41 -155 -63c-6 -6 -9 4 -1 16c48 70 124 92 210 92zM264 555h-1c-4 0 -7 4 -11 10c-13 22 -40 57 -65 76c-8 6 -5 10 0 15c5 4 11 8 17 10c9 4 17 4 26 -2
c14 -9 38 -31 48 -43c4 -5 9 -6 17 0c21 15 50 35 70 46c10 5 21 5 28 2c6 -4 4 -9 -5 -16c-29 -23 -78 -70 -104 -91c-5 -4 -13 -7 -20 -7z" />
    <glyph glyph-name="Tcommaaccent" unicode="&#x162;" horiz-adv-x="519" 
d="M226 522h1c49 0 94 -5 135 -10s80 -8 107 -8c28 0 57 5 71 13c6 4 8 -4 -1 -15c-17 -20 -63 -40 -119 -40c-31 0 -74 3 -106 5c-8 1 -9 -2 -9 -10c0 -11 -1 -42 -4 -80c-5 -64 -11 -169 -17 -270c-3 -53 2 -70 10 -78c4 -4 4 -7 -5 -14c-14 -10 -53 -29 -65 -29
c-18 0 -21 24 -17 89c8 116 16 215 19 284c3 44 4 81 -1 100c-3 10 -7 14 -15 15c-11 2 -24 3 -38 3c-84 -1 -133 -41 -155 -63c-6 -6 -9 4 -1 16c48 70 124 92 210 92zM251 -60h1c18 0 31 -23 31 -53c0 -62 -54 -119 -102 -139c-16 -7 -22 3 -10 13c29 24 51 58 52 92
c0 24 -8 35 -17 41c-7 5 -3 16 17 32c12 9 21 14 28 14z" />
    <glyph glyph-name="Uhungarumlaut" unicode="&#x170;" horiz-adv-x="629" 
d="M180 -11h-1c-41 0 -76 24 -90 69c-12 39 -10 81 -6 149c5 55 10 117 13 170c2 41 2 78 -13 91c-3 3 -5 9 11 22c26 18 55 32 61 32c24 0 21 -77 15 -155c-4 -43 -11 -124 -14 -182c-4 -74 10 -133 87 -133c21 0 47 5 82 22c41 21 86 62 100 84c7 12 12 26 14 38
c1 13 4 35 8 72c6 44 10 108 11 138c1 24 -1 45 -7 58c-3 6 5 17 23 33c26 21 45 29 50 29c15 0 13 -50 7 -115c-7 -74 -16 -165 -18 -224c-2 -56 -3 -151 58 -151c23 0 49 11 66 20c8 5 9 -11 -7 -24c-31 -26 -85 -50 -119 -50c-55 0 -69 71 -72 124c-1 12 -6 14 -12 9
c-9 -7 -60 -52 -122 -86c-54 -30 -93 -40 -125 -40zM354 671h1c11 0 5 -12 -3 -24c-16 -23 -50 -56 -75 -75c-16 -11 -36 -18 -50 -18c-9 0 -10 5 3 19c14 17 43 58 49 73c4 9 14 14 29 17c14 4 33 8 46 8zM487 671h1c11 0 6 -12 -1 -23c-17 -24 -50 -57 -76 -76
c-15 -11 -33 -18 -47 -18c-13 0 -14 4 0 19c15 17 43 58 50 73c4 9 14 14 28 17c15 4 33 8 45 8z" />
    <glyph glyph-name="Umacron" unicode="&#x16a;" horiz-adv-x="629" 
d="M180 -11h-1c-41 0 -76 24 -90 69c-12 39 -10 81 -6 149c5 55 10 117 13 170c2 41 2 78 -13 91c-3 3 -5 9 11 22c26 18 55 32 61 32c24 0 21 -77 15 -155c-4 -43 -11 -124 -14 -182c-4 -74 10 -133 87 -133c21 0 47 5 82 22c41 21 86 62 100 84c7 12 12 26 14 38
c1 13 4 35 8 72c6 44 10 108 11 138c1 24 -1 45 -7 58c-3 6 5 17 23 33c26 21 45 29 50 29c15 0 13 -50 7 -115c-7 -74 -16 -165 -18 -224c-2 -56 -3 -151 58 -151c23 0 49 11 66 20c8 5 9 -11 -7 -24c-31 -26 -85 -50 -119 -50c-55 0 -69 71 -72 124c-1 12 -6 14 -12 9
c-9 -7 -60 -52 -122 -86c-54 -30 -93 -40 -125 -40zM305 617h1c33 0 89 -2 123 -1c9 0 11 -3 3 -14c-21 -29 -41 -32 -58 -32c-30 0 -106 1 -130 -2c-10 -2 -12 2 -4 14c17 26 34 35 65 35z" />
    <glyph glyph-name="Uogonek" unicode="&#x172;" horiz-adv-x="629" 
d="M485 -251h-1c-35 0 -67 27 -67 72c0 60 62 120 119 164c-9 -2 -18 -3 -25 -3c-55 0 -69 71 -72 124c-1 13 -6 14 -12 9c-9 -7 -59 -51 -122 -86c-53 -29 -93 -40 -125 -40c-42 0 -77 24 -91 69c-12 39 -10 81 -6 149c5 55 10 117 13 170c2 41 3 73 -12 86
c-6 6 -6 14 9 26c26 18 52 33 62 33c24 0 21 -77 15 -155c-4 -43 -11 -124 -14 -182c-4 -74 10 -133 87 -133c21 0 47 5 82 22c41 21 86 62 100 84c7 12 12 26 14 38c1 13 4 35 8 72c6 44 10 108 11 138c1 24 -1 41 -7 54c-4 11 7 25 24 40c27 21 43 26 48 26
c16 0 14 -50 8 -115c-7 -74 -15 -165 -18 -224c-2 -56 -3 -151 58 -151c23 0 49 10 63 20c11 5 12 -12 -5 -25c-48 -37 -143 -102 -143 -175c0 -33 26 -46 45 -46c30 0 63 12 88 33c8 7 12 -6 1 -21c-30 -46 -84 -73 -135 -73z" />
    <glyph glyph-name="Uring" unicode="&#x16e;" horiz-adv-x="629" 
d="M180 -11h-1c-41 0 -76 24 -90 69c-12 39 -10 81 -6 149c5 55 10 117 13 170c2 41 2 78 -13 91c-3 3 -5 9 11 22c26 18 55 32 61 32c24 0 21 -77 15 -155c-4 -43 -11 -124 -14 -182c-4 -74 10 -133 87 -133c21 0 47 5 82 22c41 21 86 62 100 84c7 12 12 26 14 38
c1 13 4 35 8 72c6 44 10 108 11 138c1 24 -1 45 -7 58c-3 6 5 17 23 33c26 21 45 29 50 29c15 0 13 -50 7 -115c-7 -74 -16 -165 -18 -224c-2 -56 -3 -151 58 -151c23 0 49 11 66 20c8 5 9 -11 -7 -24c-31 -26 -85 -50 -119 -50c-55 0 -69 71 -72 124c-1 12 -6 14 -12 9
c-9 -7 -60 -52 -122 -86c-54 -30 -93 -40 -125 -40zM356 704h1c38 0 59 -31 59 -68c0 -50 -50 -93 -97 -93c-23 0 -63 17 -63 66c1 49 52 95 100 95zM336 669h-1c-22 0 -39 -17 -39 -45c0 -27 19 -45 40 -45c26 0 39 20 39 45c0 20 -10 45 -39 45z" />
    <glyph glyph-name="Zacute" unicode="&#x179;" horiz-adv-x="565" 
d="M223 521h1c40 0 111 -14 165 -20c28 -4 44 -5 54 -5s22 4 33 14c23 22 41 32 54 32c6 0 6 -7 -1 -18c-6 -10 -22 -31 -46 -54c-87 -93 -220 -242 -319 -361c-10 -11 -9 -18 1 -18c20 -1 58 -10 120 -29c48 -15 94 -26 131 -26c44 0 93 32 131 79c8 10 12 -8 2 -24
c-44 -72 -121 -116 -187 -116c-60 0 -148 36 -185 47c-26 8 -49 11 -62 11c-31 0 -59 -21 -82 -41c-10 -8 -17 -3 -16 5c2 9 15 30 34 50c95 102 256 282 338 379c8 8 8 13 -4 13c-29 2 -118 17 -181 17c-69 0 -110 -26 -150 -73c-10 -13 -18 -5 -7 15c17 33 51 70 80 90
c30 21 61 33 96 33zM425 671h1c15 0 11 -11 -5 -28c-22 -24 -61 -53 -91 -71c-20 -12 -45 -18 -57 -18s-12 7 -3 16c13 12 56 58 65 70c8 11 16 17 26 20c18 6 52 11 64 11z" />
    <glyph glyph-name="Zdotaccent" unicode="&#x17b;" horiz-adv-x="565" 
d="M223 521h1c40 0 111 -14 165 -20c28 -4 44 -5 54 -5s22 4 33 14c23 22 41 32 54 32c6 0 6 -7 -1 -18c-6 -10 -22 -31 -46 -54c-87 -93 -220 -242 -319 -361c-10 -11 -9 -18 1 -18c20 -1 58 -10 120 -29c48 -15 94 -26 131 -26c44 0 93 32 131 79c8 10 12 -8 2 -24
c-44 -72 -121 -116 -187 -116c-60 0 -148 36 -185 47c-26 8 -49 11 -62 11c-31 0 -59 -21 -82 -41c-10 -8 -17 -3 -16 5c2 9 15 30 34 50c95 102 256 282 338 379c8 8 8 13 -4 13c-29 2 -118 17 -181 17c-69 0 -110 -26 -150 -73c-10 -13 -18 -5 -7 15c17 33 51 70 80 90
c30 21 61 33 96 33zM317 653h1c7 0 16 -10 24 -18c5 -5 12 -11 17 -16c5 -4 6 -8 5 -14c-6 -18 -42 -46 -61 -46c-13 0 -39 28 -39 43c0 16 38 51 53 51z" />
    <glyph glyph-name="Idotaccent" unicode="&#x130;" horiz-adv-x="246" 
d="M147 528h1c21 0 23 -56 22 -88c-1 -57 -6 -142 -10 -197c-4 -53 -9 -131 -9 -180c0 -20 4 -30 9 -34c5 -3 5 -6 -1 -12c-12 -11 -60 -35 -70 -35c-13 0 -14 28 -13 63c1 33 5 101 10 168c5 70 8 134 9 190c0 32 -4 68 -18 78c-6 4 -7 6 1 13c15 13 60 34 69 34zM135 653
h1c7 0 16 -10 24 -18c5 -5 12 -11 17 -16c5 -4 6 -8 5 -14c-6 -18 -42 -46 -61 -46c-13 0 -39 28 -39 43c0 16 38 51 53 51z" />
    <glyph glyph-name="abreve" unicode="&#x103;" horiz-adv-x="378" 
d="M242 385h1c36 0 64 -46 58 -113c-4 -47 -7 -108 -8 -155c-1 -30 0 -52 9 -64s20 -17 33 -17c12 0 33 7 42 13c7 4 7 -10 -1 -19c-15 -19 -51 -47 -92 -47c-27 0 -50 27 -60 49c-4 7 -7 7 -16 2c-27 -18 -79 -44 -101 -44c-25 0 -57 11 -70 34c-6 10 -10 22 -10 38
c0 19 10 35 22 48c36 38 104 66 162 83c12 3 17 7 18 15c1 11 2 27 2 45c1 32 -5 80 -42 80c-38 0 -96 -41 -128 -58c-6 -3 -11 -2 -6 10c7 17 19 33 33 41c28 15 67 34 96 45c25 10 44 14 58 14zM150 41h1c15 0 41 8 52 18c12 8 17 19 18 34s3 36 4 56c0 9 -3 10 -13 8
c-28 -4 -69 -17 -86 -27c-17 -9 -29 -21 -29 -41c-1 -28 25 -48 53 -48zM205 488h1c29 0 49 19 61 46c5 11 17 21 26 21c4 0 6 -6 2 -18c-6 -27 -34 -65 -57 -81c-16 -11 -34 -18 -57 -18c-40 0 -69 30 -69 70c0 20 16 37 33 46c9 4 11 1 11 -7c-1 -40 20 -59 49 -59z" />
    <glyph glyph-name="amacron" unicode="&#x101;" horiz-adv-x="378" 
d="M242 385h1c36 0 64 -46 58 -113c-4 -47 -7 -108 -8 -155c-1 -30 0 -52 9 -64s20 -17 33 -17c12 0 33 7 42 13c7 4 7 -10 -1 -19c-15 -19 -51 -47 -92 -47c-27 0 -50 27 -60 49c-4 7 -7 7 -16 2c-27 -18 -79 -44 -101 -44c-25 0 -57 11 -70 34c-6 10 -10 22 -10 38
c0 19 10 35 22 48c36 38 104 66 162 83c12 3 17 7 18 15c1 11 2 27 2 45c1 32 -5 80 -42 80c-38 0 -96 -41 -128 -58c-6 -3 -11 -2 -6 10c7 17 19 33 33 41c28 15 67 34 96 45c25 10 44 14 58 14zM150 41h1c15 0 41 8 52 18c12 8 17 19 18 34s3 36 4 56c0 9 -3 10 -13 8
c-28 -4 -69 -17 -86 -27c-17 -9 -29 -21 -29 -41c-1 -28 25 -48 53 -48zM172 508h1c36 0 79 -2 116 -2c6 0 8 -4 2 -14c-16 -24 -33 -31 -63 -31c-35 1 -90 1 -115 -1c-7 -1 -9 2 -4 12c15 24 34 36 63 36z" />
    <glyph glyph-name="aogonek" unicode="&#x105;" horiz-adv-x="378" 
d="M150 41h1c15 0 41 8 52 18c12 8 17 19 18 34s3 36 4 56c0 9 -3 10 -13 8c-28 -4 -69 -17 -86 -27c-17 -9 -29 -21 -29 -41c-1 -28 25 -48 53 -48zM251 -251h-1c-35 0 -67 27 -67 72c0 57 56 120 109 163c-3 -1 -6 -1 -10 -1c-26 0 -47 27 -58 49c-3 7 -7 7 -16 2
c-27 -18 -79 -44 -101 -44c-25 0 -57 11 -70 34c-6 10 -10 22 -10 38c0 19 10 35 22 48c36 38 104 66 162 83c12 3 17 7 18 15c1 11 2 27 2 45c1 32 -5 80 -42 80c-38 0 -90 -38 -122 -56c-11 -5 -15 1 -11 10c6 16 16 31 32 39c34 17 67 34 96 45c25 10 44 14 58 14
c37 0 65 -46 59 -113c-4 -47 -7 -108 -8 -155c-1 -30 0 -52 9 -64s20 -17 33 -17c12 0 28 5 39 11c9 6 14 -5 3 -17c-36 -39 -125 -95 -125 -173c0 -33 26 -47 45 -47c30 0 63 12 88 33c8 7 12 -6 1 -21c-30 -46 -84 -73 -135 -73z" />
    <glyph glyph-name="cacute" unicode="&#x107;" horiz-adv-x="356" 
d="M276 383h1c18 0 49 -13 49 -33c0 -13 -27 -32 -37 -39c-6 -4 -10 -5 -14 -1c-13 13 -33 19 -56 19c-33 0 -64 -24 -80 -45c-17 -21 -34 -58 -34 -109c0 -80 37 -131 118 -131c44 0 93 26 124 53c5 3 8 3 7 -4c-1 -10 -13 -29 -24 -38c-43 -35 -110 -68 -171 -68
c-93 0 -129 74 -129 138c0 97 67 173 140 218c33 20 77 40 106 40zM310 572h1c14 0 9 -13 2 -24c-17 -26 -60 -73 -85 -95c-16 -13 -35 -21 -50 -24c-14 -4 -14 4 -4 16s48 72 58 97c5 10 12 14 24 18c16 6 42 12 54 12z" />
    <glyph glyph-name="ccaron" unicode="&#x10d;" horiz-adv-x="356" 
d="M276 383h1c18 0 49 -13 49 -33c0 -13 -27 -32 -37 -39c-6 -4 -10 -5 -14 -1c-13 13 -33 19 -56 19c-33 0 -64 -24 -80 -45c-17 -21 -34 -58 -34 -109c0 -80 37 -131 118 -131c44 0 93 26 124 53c5 3 8 3 7 -4c-1 -10 -13 -29 -24 -38c-43 -35 -110 -68 -171 -68
c-93 0 -129 74 -129 138c0 97 67 173 140 218c33 20 77 40 106 40zM213 428h-1c-4 0 -7 6 -9 13c-10 31 -36 75 -54 95c-7 7 -7 11 -3 16c4 6 11 13 16 16c7 4 14 4 20 -2c15 -13 37 -44 43 -55c4 -8 8 -9 15 -1c16 17 47 46 67 59c11 8 21 7 21 2c0 -7 -4 -16 -12 -25
c-29 -34 -62 -75 -83 -107c-6 -7 -12 -11 -20 -11z" />
    <glyph glyph-name="dcaron" unicode="&#x10f;" horiz-adv-x="473" 
d="M118 -10h-1c-45 0 -86 43 -86 124c0 95 51 160 120 213c48 35 110 56 158 56c11 0 14 1 15 11c3 31 6 94 7 131c1 41 -3 74 -13 87c-3 4 -3 6 1 10c15 14 62 37 71 37c17 0 15 -78 11 -131c-4 -60 -18 -260 -20 -324c-2 -86 -3 -164 46 -164c14 0 37 6 53 15
c7 5 9 -9 -2 -20c-21 -22 -70 -52 -111 -52c-43 0 -53 50 -59 88c-2 9 -6 8 -15 1c-43 -29 -118 -82 -175 -82zM182 52h1c43 0 87 29 112 60c9 10 13 23 14 39c2 47 7 148 10 175c1 8 -1 10 -6 9c-11 -2 -28 1 -49 1c-46 0 -96 -20 -125 -59c-23 -29 -36 -65 -36 -113
c0 -56 22 -112 79 -112zM507 659h1c18 0 31 -23 31 -53c0 -62 -54 -119 -102 -139c-16 -7 -22 3 -10 13c29 24 51 58 52 92c0 24 -8 35 -17 41c-7 5 -3 16 17 32c12 9 21 14 28 14z" />
    <glyph glyph-name="dcroat" unicode="&#x111;" horiz-adv-x="473" 
d="M182 52h1c43 0 87 29 112 60c9 10 13 23 14 39c2 47 7 148 10 175c1 9 -1 10 -6 9c-11 -2 -28 1 -49 1c-51 0 -99 -26 -125 -59c-22 -29 -36 -65 -36 -113c0 -56 22 -112 79 -112zM275 480h-1c-24 2 -64 2 -84 -5c-9 -3 -12 3 -3 13c28 28 57 34 92 34c18 0 35 0 52 -1
v18c0 33 -3 61 -12 71c-4 5 -5 7 1 12c15 14 59 37 70 37c16 0 15 -69 11 -120c0 -7 0 -15 -1 -23c15 -1 31 -2 47 -2c31 0 54 2 69 5c12 2 9 -8 -1 -17c-26 -23 -62 -29 -117 -29c-6 -81 -16 -219 -17 -269c-2 -86 -3 -164 46 -164c13 0 34 5 50 14c10 5 13 -7 0 -20
c-21 -21 -69 -51 -110 -51c-43 0 -53 50 -59 88c-2 9 -6 8 -15 1c-43 -29 -118 -82 -175 -82c-46 0 -87 43 -87 124c0 95 51 160 120 213c48 35 111 56 158 56c12 0 14 1 16 11c2 20 3 52 5 83c-13 1 -44 2 -55 3z" />
    </font>
</defs>
</svg>
